<?xml version="1.0" encoding="UTF-8"?>
<svg xmlns="http://www.w3.org/2000/svg" xmlns:amisfits="https://amisfits.fi/metadata" viewBox="0 0 820 350" width="820" height="350" role="img" aria-labelledby="teema3-title teema3-desc">
  <title id="teema3-title">Amis antaa suunnan - teema 3</title>
  <desc id="teema3-desc">AMIS ANTAA SUUNNAN. Animated SVG, tight 820 x 350 crop. The star rotates once every 3 seconds around its own center.</desc>
  <metadata>
    <amisfits:text>AMIS ANTAA SUUNNAN</amisfits:text>
    <amisfits:animation>Star rotation, 360 degrees, 3 seconds, indefinite repeat.</amisfits:animation>
    <amisfits:source-crop>820x350</amisfits:source-crop>
  </metadata>
  <g id="logo-base">
    <path d="M770 273.365 L770 235.033 L643.333 257.333 L643.333 295.666 L770 273.365 Z M748.843 253.372 C749.022 253.467 749.988 253.369 750.543 253.271 C751.097 253.173 752.027 252.919 752.224 252.758 L752.224 263.17 L748.843 263.766 L748.843 253.372 Z M711.696 259.922 C711.874 260.017 712.84 259.919 713.395 259.821 C713.949 259.723 714.879 259.469 715.076 259.308 L715.076 269.721 L711.696 270.317 L711.696 259.922 Z M688.445 264.022 C688.623 264.117 689.589 264.019 690.144 263.921 C690.698 263.823 691.628 263.569 691.825 263.408 L691.825 273.82 L688.445 274.416 L688.445 264.022 Z M669.414 277.772 L666.731 278.245 L666.373 276.558 C665.783 277.835 664.656 278.882 662.725 279.222 C660.471 279.62 659.38 278.729 659.38 276.997 C659.38 275.734 659.899 274.83 660.739 274.159 C661.562 273.49 662.313 273.213 663.994 272.646 C665.569 272.152 666.212 271.858 666.212 271.191 C666.212 270.595 665.855 270.243 664.746 270.439 C663.601 270.64 663.047 271.28 663.011 272.26 L659.702 272.844 C659.863 270.379 661.508 268.483 664.746 267.912 C668.18 267.307 669.414 268.677 669.414 271.095 L669.414 277.772 Z M686.799 274.707 L683.544 275.281 L683.544 269.542 C683.544 268.279 683.222 267.488 682.077 267.689 C680.95 267.888 680.593 268.817 680.593 270.098 L680.593 275.801 L677.338 276.375 L677.338 270.6 C677.338 269.409 677.051 268.576 675.907 268.777 C674.78 268.976 674.368 269.969 674.368 271.358 L674.368 276.898 L671.095 277.476 L671.095 267.009 L673.832 266.527 L674.118 268.118 C674.655 266.887 675.692 265.982 677.159 265.723 C678.751 265.443 679.752 265.952 680.235 267.094 C680.772 265.826 681.809 264.903 683.329 264.635 C685.619 264.232 686.799 265.467 686.799 267.994 L686.799 274.707 Z M692.093 261.087 C692.093 262.278 691.467 262.821 690.144 263.055 C688.713 263.307 688.194 263.002 688.194 261.775 C688.194 260.547 688.838 260.019 690.144 259.789 C691.432 259.562 692.093 259.86 692.093 261.087 Z M696.439 265.572 C696.439 266.222 697.316 266.175 698.854 266.103 C700.643 266.022 702.789 266.094 702.789 268.531 C702.789 270.624 701.215 272.453 697.996 273.021 C694.901 273.567 693.22 272.492 692.88 270.133 L696.243 269.541 C696.457 270.387 697.101 270.67 698.157 270.484 C699.176 270.305 699.623 269.883 699.623 269.305 C699.623 268.584 698.496 268.692 697.209 268.757 C695.42 268.837 693.309 268.813 693.309 266.322 C693.309 264.283 694.901 262.577 697.835 262.06 C700.947 261.511 702.342 262.672 702.664 264.709 L699.462 265.274 C699.319 264.577 698.783 264.275 697.799 264.448 C696.797 264.625 696.439 265.067 696.439 265.572 Z M710.355 259.058 L709.335 259.238 C708.333 259.414 708.137 259.702 708.137 260.929 L708.137 261.091 L710.337 260.703 L710.337 263.555 L708.137 263.942 L708.119 270.947 L704.989 271.499 L704.989 264.498 L703.343 264.788 L703.343 261.937 L704.989 261.646 L704.989 261.051 C704.989 258.38 706.133 257.132 708.852 256.652 L710.355 256.387 L710.355 259.058 Z M715.344 256.987 C715.344 258.178 714.718 258.722 713.395 258.955 C711.964 259.207 711.445 258.902 711.445 257.675 C711.445 256.448 712.089 255.919 713.395 255.689 C714.683 255.462 715.344 255.76 715.344 256.987 Z M723.589 268.219 L721.944 268.51 C718.814 269.061 718.045 268.06 718.045 264.794 L718.045 261.636 L716.292 261.945 L716.292 259.22 C716.685 259.151 716.954 259.067 717.311 258.932 C717.973 258.725 718.224 258.392 718.331 257.489 C718.385 257.047 718.42 256.481 718.438 256.045 L721.121 255.572 L721.121 258.188 L723.589 257.753 L723.589 260.658 L721.121 261.094 L721.121 263.602 C721.121 265.406 721.389 265.558 722.928 265.286 L723.589 265.17 L723.589 268.219 Z M727.828 260.037 C727.828 260.687 728.704 260.641 730.243 260.568 C732.031 260.487 734.178 260.56 734.178 262.996 C734.178 265.089 732.604 266.919 729.384 267.486 C726.29 268.032 724.609 266.957 724.269 264.599 L727.631 264.006 C727.846 264.852 728.49 265.136 729.545 264.95 C730.565 264.77 731.012 264.348 731.012 263.771 C731.012 263.049 729.885 263.157 728.597 263.222 C726.809 263.303 724.698 263.278 724.698 260.788 C724.698 258.749 726.29 257.042 729.223 256.525 C732.335 255.976 733.731 257.138 734.052 259.174 L730.851 259.739 C730.708 259.042 730.171 258.74 729.187 258.913 C728.186 259.09 727.828 259.532 727.828 260.037 Z M739.436 263.711 C739.436 265.209 738.881 265.74 737.468 265.989 C735.966 266.254 735.519 265.954 735.519 264.402 C735.519 262.868 736.073 262.391 737.468 262.145 C738.863 261.899 739.436 262.177 739.436 263.711 Z M747.502 252.508 L746.483 252.688 C745.481 252.864 745.284 253.152 745.284 254.379 L745.284 254.541 L747.484 254.153 L747.484 257.004 L745.284 257.392 L745.267 264.397 L742.136 264.949 L742.136 257.947 L740.491 258.238 L740.491 255.386 L742.136 255.096 L742.136 254.501 C742.136 251.83 743.281 250.581 746 250.102 L747.502 249.837 L747.502 252.508 Z M752.492 250.437 C752.492 251.628 751.866 252.172 750.543 252.405 C749.112 252.657 748.593 252.352 748.593 251.125 C748.593 249.898 749.237 249.369 750.543 249.139 C751.83 248.912 752.492 249.21 752.492 250.437 Z M666.23 274.129 L666.23 273.497 C665.926 273.785 665.461 273.994 664.835 274.23 C663.941 274.55 663.601 274.701 663.279 274.974 C662.993 275.241 662.85 275.519 662.85 275.88 C662.85 276.493 663.261 276.728 664.048 276.589 C665.354 276.359 666.23 275.157 666.23 274.129 Z" fill="#002a53" fill-rule="nonzero"/>
    <path d="M731.542 294.845 C731.996 294.765 732.374 294.625 732.675 294.426 C732.977 294.227 733.203 293.977 733.356 293.677 C733.508 293.377 733.584 293.04 733.584 292.666 C733.584 292.255 733.471 291.93 733.246 291.692 C733.021 291.454 732.716 291.333 732.332 291.328 C732.6 291.202 732.815 290.995 732.977 290.706 C733.138 290.417 733.219 290.106 733.219 289.773 C733.219 289.252 733.05 288.89 732.714 288.689 C732.377 288.488 731.93 288.436 731.373 288.534 L729.555 288.855 L729.555 295.195 L731.542 294.845 Z M730.345 292.079 L731.506 291.874 C731.901 291.804 732.214 291.842 732.442 291.987 C732.671 292.132 732.785 292.39 732.785 292.76 C732.785 293.068 732.727 293.318 732.611 293.512 C732.495 293.705 732.341 293.853 732.147 293.956 C731.954 294.059 731.742 294.131 731.51 294.172 L730.345 294.377 L730.345 292.079 Z M730.345 289.385 L731.346 289.208 C731.69 289.147 731.956 289.183 732.145 289.314 C732.334 289.446 732.428 289.674 732.428 289.997 C732.428 290.32 732.335 290.594 732.147 290.819 C731.96 291.044 731.693 291.186 731.346 291.248 L730.345 291.424 L730.345 289.385 Z M737.274 293.834 L737.274 291.295 L739.179 287.158 L738.316 287.31 L736.877 290.635 L735.433 287.818 L734.57 287.971 L736.47 291.437 L736.47 293.976 L737.274 293.834 Z M747.108 292.1 L747.108 291.426 L744.335 291.915 L744.335 289.654 L746.889 289.204 L746.889 288.545 L744.335 288.995 L744.335 286.922 L747.108 286.434 L747.108 285.76 L743.545 286.388 L743.545 292.728 L747.108 292.1 Z M750.908 291.43 L750.908 285.768 L752.47 285.493 L752.47 284.814 L748.541 285.507 L748.541 286.185 L750.113 285.908 L750.113 291.57 L750.908 291.43 Z M757.791 290.216 L757.791 289.543 L755.018 290.032 L755.018 287.771 L757.572 287.32 L757.572 286.661 L755.018 287.111 L755.018 285.039 L757.791 284.55 L757.791 283.876 L754.228 284.505 L754.228 290.844 L757.791 290.216 Z M760.718 289.7 L760.718 286.445 L763.108 289.279 L764.053 289.112 L761.582 286.199 L763.87 282.804 L762.975 282.962 L760.718 286.412 L760.718 283.36 L759.928 283.499 L759.928 289.839 L760.718 289.7 Z M765.838 288.797 L766.391 286.891 L768.63 286.496 L769.159 288.212 L769.982 288.067 L767.931 282.088 L767.095 282.236 L765.021 288.941 L765.838 288.797 Z M767.51 282.958 L768.429 285.844 L766.592 286.168 L767.51 282.958 Z" fill="#002a53" fill-rule="nonzero"/>
    <path d="M814.214 134.906 C733.518 149.05 45.6442 271.834 37.008 273.322 C17.7819 276.452 -.992371 268.458 5.35001 258.132 C7.27261 255.002 18.1654 250.656 27.6593 256.326 C39.6665 263.498 33.748 281.49 19.7867 290.167 C15.2126 293.009 9.60822 295.34 4.07001 297.208" fill="none" stroke="#002a53" stroke-width="8" stroke-linecap="round" stroke-linejoin="miter"/>
    <path d="M801.001 126.335 L814.214 134.906 L804.704 147.46" fill="none" stroke="#002a53" stroke-width="8" stroke-linecap="round" stroke-linejoin="miter"/>
    <path d="M431.644 168.81 C429.077 169.262 428.288 167.454 428.288 162.91 L428.288 137.375 C428.288 133.48 428.485 131.064 429.077 129.445 C429.67 128.042 430.657 127.219 432.038 126.326 C433.42 125.433 434.21 124.429 434.802 123.242 L434.802 161.545 C434.802 166.305 434.21 168.357 431.644 168.81 Z M439.342 184.115 L452.174 181.852 L452.174 76.4668 C452.174 60.2369 445.067 55.2145 431.644 57.5814 C418.023 59.9832 411.311 68.5241 411.311 83.672 L411.311 112.236 L428.682 109.173 L428.682 82.9893 C428.682 76.7137 429.472 75.2761 431.841 74.8584 C434.407 74.4059 434.999 75.3835 434.999 81.659 L434.999 100.918 C434.999 109.791 433.42 111.584 425.919 115.071 C419.997 117.846 416.049 120.273 413.68 123.721 C410.916 127.887 409.929 133.254 409.929 141.91 L409.929 164.848 C409.929 184.757 413.482 189.973 424.34 188.059 C430.854 186.91 435.197 182.898 436.776 173.315 L439.342 184.115 Z M487.725 175.584 L499.175 46.9722 L481.606 50.0701 L477.658 119.148 L476.671 161.519 L476.078 119.426 L472.328 51.7061 L454.166 54.9084 L465.419 179.517 L487.725 175.584 Z M521.757 152.92 C519.191 153.373 518.401 151.565 518.401 147.02 L518.401 121.485 C518.401 117.59 518.599 115.175 519.191 113.556 C519.783 112.153 520.77 111.33 522.152 110.437 C523.534 109.544 524.323 108.539 524.915 107.353 L524.915 145.655 C524.915 150.416 524.323 152.468 521.757 152.92 Z M529.456 168.225 L542.287 165.963 L542.287 60.5773 C542.287 44.3475 535.181 39.3251 521.757 41.692 C508.136 44.0937 501.424 52.6347 501.424 67.7825 L501.424 96.347 L518.796 93.2839 L518.796 67.0998 C518.796 60.8243 519.586 59.3867 521.954 58.969 C524.521 58.5165 525.113 59.4941 525.113 65.7696 L525.113 85.029 C525.113 93.9013 523.534 95.6945 516.032 99.1812 C510.11 101.957 506.162 104.384 503.793 107.831 C501.029 111.997 500.042 117.365 500.042 126.021 L500.042 148.959 C500.042 168.867 503.596 174.084 514.453 172.169 C520.967 171.021 525.31 167.009 526.89 157.425 L529.456 168.225 Z M567.811 144.8 C565.244 145.252 564.455 143.444 564.455 138.9 L564.455 113.365 C564.455 109.47 564.652 107.054 565.244 105.435 C565.837 104.032 566.824 103.209 568.205 102.316 C569.587 101.423 570.377 100.419 570.969 99.2322 L570.969 137.535 C570.969 142.295 570.377 144.347 567.811 144.8 Z M575.509 160.105 L588.341 157.842 L588.341 52.4568 C588.341 36.227 581.234 31.2046 567.811 33.5715 C554.19 35.9732 547.478 44.5142 547.478 59.6621 L547.478 88.2265 L564.849 85.1634 L564.849 58.9793 C564.849 52.7038 565.639 51.2662 568.008 50.8485 C570.574 50.396 571.166 51.3736 571.166 57.6491 L571.166 76.9085 C571.166 85.7808 569.587 87.574 562.086 91.0607 C556.164 93.8361 552.216 96.2634 549.847 99.7107 C547.083 103.877 546.096 109.244 546.096 117.9 L546.096 140.838 C546.096 160.747 549.649 165.963 560.507 164.049 C567.021 162.9 571.364 158.888 572.943 149.305 L575.509 160.105 Z M635.289 151.079 C648.713 148.712 656.609 141.044 656.609 123.732 L656.609 41.2849 C656.609 24.8387 648.91 19.2714 635.487 21.6384 C622.458 23.9357 614.167 32.3223 614.167 48.7686 L614.167 131.216 C614.167 148.528 621.668 153.481 635.289 151.079 Z M635.487 132.65 C633.315 133.033 632.131 132.376 632.131 126.75 L632.131 46.683 C632.131 41.0567 633.118 39.8007 635.289 39.4178 C637.658 39.0001 638.645 39.908 638.645 45.5344 L638.645 125.601 C638.645 131.011 637.461 132.302 635.487 132.65 Z M692.16 139.536 L703.61 10.9248 L686.041 14.0227 L682.092 83.1005 L681.106 125.472 L680.513 83.379 L676.763 15.6587 L658.601 18.861 L669.853 143.47 L692.16 139.536 Z M715.644 31.6725 C723.145 30.3498 725.316 28.0461 725.316 18.2675 C725.316 8.48893 724.132 6.77698 715.644 8.27372 C707.353 9.73564 706.168 11.8653 706.168 21.6439 C706.168 31.5971 707.945 33.03 715.644 31.6725 Z M706.563 136.997 L724.724 133.794 L724.724 31.4683 C723.145 33.3183 720.184 34.7135 715.644 35.5141 C710.906 36.3495 708.34 36.1035 706.563 34.6706 L706.563 136.997 Z M749.872 112.698 C747.305 113.15 746.516 111.342 746.516 106.797 L746.516 81.2624 C746.516 77.3673 746.713 74.9521 747.305 73.3329 C747.898 71.9301 748.885 71.1069 750.267 70.214 C751.648 69.3212 752.438 68.3163 753.03 67.1299 L753.03 105.432 C753.03 110.193 752.438 112.245 749.872 112.698 Z M757.571 128.003 L770.402 125.74 L770.402 20.3545 C770.402 4.12472 763.295 -.897732 749.872 1.46919 C736.251 3.87093 729.539 12.4119 729.539 27.5598 L729.539 56.1242 L746.911 53.0611 L746.911 26.877 C746.911 20.6015 747.7 19.1639 750.069 18.7462 C752.635 18.2937 753.228 19.2713 753.228 25.5468 L753.228 44.8062 C753.228 53.6785 751.648 55.4717 744.147 58.9584 C738.225 61.7338 734.277 64.1611 731.908 67.6084 C729.144 71.7745 728.157 77.142 728.157 85.798 L728.157 108.736 C728.157 128.645 731.71 133.861 742.568 131.946 C749.082 130.798 753.425 126.786 755.004 117.202 L757.571 128.003 Z" fill="#002a53" fill-rule="nonzero"/>
    <path d="M56.4774 345.209 C61.6979 344.289 64.6897 340.865 64.6897 334.475 L64.6897 320.814 L60.2935 321.589 L60.2935 335.125 C60.2935 339.091 59.164 340.581 56.4774 341.054 C53.7908 341.528 52.8139 340.284 52.6918 337.693 L52.6918 337.441 L48.2956 338.216 L48.2956 338.436 C48.4177 343.861 51.2569 346.13 56.4774 345.209 Z M76.5656 323.536 L76.6266 323.21 L76.6877 323.514 L79.9848 331.904 L73.36 333.072 L76.5656 323.536 Z M83.1904 339.996 L87.556 339.226 L78.8247 318.321 L74.4285 319.097 L65.9109 343.042 L70.2766 342.273 L72.0473 336.955 L81.3586 335.314 L83.1904 339.996 Z M102.241 318.001 L102.241 314.193 L84.9611 317.239 L84.9611 321.048 L91.3112 319.929 L91.3112 338.564 L95.6157 337.805 L95.6157 319.17 L102.241 318.001 Z M120.283 333.455 L125.107 332.605 L116.955 319.845 L124.618 310.247 L119.276 311.189 L109.781 323.314 L109.781 312.863 L105.568 313.606 L105.568 336.05 L109.781 335.307 L109.781 328.287 L113.933 323.085 L120.283 333.455 Z M135.425 331.289 C141.562 330.207 145.591 325.971 145.591 318.636 L145.591 317.094 C145.591 309.917 141.47 306.835 135.456 307.895 C129.442 308.956 125.351 313.58 125.351 320.663 L125.351 322.205 C125.351 329.666 129.075 332.409 135.425 331.289 Z M135.456 327.317 C131.64 327.99 129.747 325.9 129.747 321.304 L129.747 320.045 C129.747 315.323 131.64 312.503 135.456 311.83 C139.211 311.168 141.195 313.21 141.195 318.058 L141.195 319.286 C141.195 323.976 139.211 326.655 135.456 327.317 Z M162.993 312.357 L148.888 314.844 L148.888 319.22 L162.993 316.733 L162.993 312.357 Z M176.364 324.07 C182.501 322.988 186.53 318.752 186.53 311.418 L186.53 309.875 C186.53 302.698 182.409 299.616 176.395 300.676 C170.381 301.737 166.29 306.362 166.29 313.444 L166.29 314.987 C166.29 322.447 170.014 325.19 176.364 324.07 Z M176.395 320.099 C172.579 320.771 170.686 318.681 170.686 314.086 L170.686 312.826 C170.686 308.105 172.579 305.284 176.395 304.611 C180.15 303.949 182.134 305.992 182.134 310.839 L182.134 312.067 C182.134 316.757 180.15 319.436 176.395 320.099 Z M199.139 300.821 C202.466 300.235 204.084 301.334 204.084 303.915 C204.084 306.591 202.466 308.199 199.261 308.764 L194.529 309.598 L194.529 301.634 L199.139 300.821 Z M199.352 312.462 C205.397 311.428 208.328 307.952 208.328 303.167 C208.328 298.477 205.458 295.993 199.139 297.107 L190.346 298.657 L190.346 321.101 L194.529 320.364 L194.529 313.313 L199.352 312.462 Z M216.082 316.563 L216.082 294.119 L211.808 294.873 L211.808 317.317 L216.082 316.563 Z M224.813 299.568 L224.691 298.582 L225.21 299.592 L235.437 313.15 L239.376 312.456 L239.376 290.012 L235.376 290.717 L235.376 305.921 L235.468 307.007 L234.949 305.965 L224.874 292.569 L220.783 293.29 L220.783 315.734 L224.813 315.024 L224.813 299.568 Z M259.982 290.187 L259.982 286.378 L242.703 289.425 L242.703 293.234 L249.053 292.114 L249.053 310.75 L253.358 309.991 L253.358 291.355 L259.982 290.187 Z M271.309 307.329 C277.445 306.247 281.475 302.011 281.475 294.676 L281.475 293.134 C281.475 285.957 277.354 282.875 271.339 283.935 C265.325 284.996 261.234 289.62 261.234 296.703 L261.234 298.245 C261.234 305.706 264.959 308.449 271.309 307.329 Z M271.339 303.357 C267.523 304.03 265.631 301.94 265.631 297.344 L265.631 296.085 C265.631 291.363 267.523 288.543 271.339 287.87 C275.095 287.208 277.079 289.25 277.079 294.098 L277.079 295.326 C277.079 300.016 275.095 302.695 271.339 303.357 Z M300.006 301.765 L304.83 300.915 L296.678 288.155 L304.341 278.557 L298.999 279.499 L289.504 291.624 L289.504 281.173 L285.291 281.916 L285.291 304.36 L289.504 303.617 L289.504 296.597 L293.656 291.395 L300.006 301.765 Z M323.605 293.732 L311.057 295.945 L311.057 290.373 L321.254 288.575 L321.254 284.829 L311.057 286.627 L311.057 281.118 L323.086 278.997 L323.086 275.252 L306.967 278.094 L306.967 300.538 L323.605 297.604 L323.605 293.732 Z M342.441 294.283 L342.441 290.191 L331.146 292.182 L331.146 273.83 L326.871 274.584 L326.871 297.028 L342.441 294.283 Z M354.5 273.427 C357.827 272.84 359.445 273.94 359.445 276.521 C359.445 279.197 357.827 280.804 354.622 281.369 L349.89 282.204 L349.89 274.24 L354.5 273.427 Z M354.713 285.068 C360.758 284.033 363.689 280.558 363.689 275.773 C363.689 271.083 360.819 268.598 354.5 269.713 L345.707 271.263 L345.707 293.707 L349.89 292.969 L349.89 285.918 L354.713 285.068 Z M376.663 288.752 C382.8 287.67 386.829 283.434 386.829 276.1 L386.829 274.557 C386.829 267.38 382.708 264.298 376.694 265.358 C370.68 266.419 366.589 271.043 366.589 278.126 L366.589 279.669 C366.589 287.129 370.313 289.872 376.663 288.752 Z M376.694 284.78 C372.878 285.453 370.985 283.363 370.985 278.767 L370.985 277.508 C370.985 272.787 372.878 269.966 376.694 269.293 C380.449 268.631 382.433 270.673 382.433 275.521 L382.433 276.749 C382.433 281.439 380.449 284.118 376.694 284.78 Z M394.98 285.019 L394.98 262.575 L390.706 263.328 L390.706 285.772 L394.98 285.019 Z M407.955 283.234 C413.817 282.201 416.809 278.557 416.809 274.528 C416.778 269.654 413.145 269.224 408.718 269.312 C405.238 269.359 403.071 269.332 403.071 267.192 C403.071 265.65 404.139 264.17 407.07 263.654 C410.306 263.083 411.741 263.932 412.016 266.496 L416.442 265.716 C416.106 261.053 413.237 258.915 407.131 259.991 C401.514 260.982 398.796 264.42 398.796 268.009 C398.796 272.856 402.368 273.297 406.459 273.236 C410.092 273.131 412.596 273.067 412.565 275.433 C412.565 277.259 411.161 278.86 408.047 279.409 C404.444 280.045 402.735 278.961 402.521 275.882 L397.972 276.684 C398.339 282.034 400.964 284.467 407.955 283.234 Z M428.929 279.536 C434.821 278.497 438.057 274.653 438.057 267.161 L438.057 254.979 L433.661 255.754 L433.661 267.779 C433.661 272.627 432.287 274.726 428.959 275.313 C425.662 275.894 424.166 274.206 424.166 269.453 L424.166 257.428 L419.77 258.204 L419.77 270.386 C419.77 277.877 422.792 280.618 428.929 279.536 Z M451.336 275.585 C457.229 274.546 460.465 270.702 460.465 263.21 L460.465 251.028 L456.068 251.803 L456.068 263.828 C456.068 268.675 454.695 270.775 451.367 271.362 C448.07 271.943 446.574 270.255 446.574 265.502 L446.574 253.477 L442.178 254.252 L442.178 266.435 C442.178 273.926 445.2 276.667 451.336 275.585 Z M464.769 272.713 L473.103 271.243 C479.148 270.178 483.3 266.109 483.3 259.026 L483.3 257.484 C483.3 250.307 478.904 247.777 472.92 248.832 L464.769 250.269 L464.769 272.713 Z M472.707 252.615 C476.706 251.91 479.026 253.705 479.026 258.489 L479.026 259.465 C479.026 264.218 476.767 266.789 472.89 267.472 L468.951 268.167 L468.951 253.277 L472.707 252.615 Z M503.754 261.967 L491.207 264.18 L491.207 258.608 L501.403 256.81 L501.403 253.064 L491.207 254.862 L491.207 249.353 L503.235 247.232 L503.235 243.486 L487.116 246.329 L487.116 268.773 L503.754 265.839 L503.754 261.967 Z M511.05 249.097 L510.928 248.111 L511.447 249.121 L521.675 262.679 L525.613 261.985 L525.613 239.541 L521.613 240.246 L521.613 255.45 L521.705 256.535 L521.186 255.494 L511.112 242.098 L507.021 242.819 L507.021 265.263 L511.05 264.552 L511.05 249.097 Z M554.462 256.898 L565.3 254.987 L557.332 242.636 L565.422 232.301 L554.035 234.309 L547.99 242.363 L547.99 235.375 L538.465 237.054 L538.465 259.718 L547.99 258.039 L547.99 252.121 L549.944 249.542 L554.462 256.898 Z M577.542 253.426 C585.571 252.01 589.907 247.626 589.907 239.032 L589.907 227.984 L579.985 229.733 L579.985 240.782 C579.985 243.206 579.16 244.232 577.603 244.507 C575.955 244.798 575.161 244.056 575.161 241.632 L575.161 230.584 L565.239 232.333 L565.239 243.382 C565.239 251.787 568.414 255.036 577.542 253.426 Z M602.545 248.419 L602.545 225.755 L592.807 227.472 L592.807 250.137 L602.545 248.419 Z M622.755 244.856 L631.609 243.295 L631.609 220.63 L622.42 222.251 L622.42 232.324 L614.787 223.596 L605.659 225.206 L605.659 247.87 L614.879 246.245 L614.879 235.699 L622.755 244.856 Z M662.626 237.825 L662.626 228.665 L652.429 230.463 L652.429 216.959 L642.385 218.73 L642.385 241.394 L662.626 237.825 Z M676.822 235.92 C684.851 234.505 689.187 230.12 689.187 221.527 L689.187 210.478 L679.265 212.227 L679.265 223.276 C679.265 225.7 678.44 226.727 676.883 227.001 C675.235 227.292 674.441 226.55 674.441 224.127 L674.441 213.078 L664.519 214.827 L664.519 225.876 C664.519 234.281 667.694 237.53 676.822 235.92 Z M707.992 229.826 L718.83 227.915 L710.862 215.564 L718.952 205.229 L707.565 207.237 L701.52 215.291 L701.52 208.303 L691.995 209.983 L691.995 232.647 L701.52 230.967 L701.52 225.05 L703.474 222.47 L707.992 229.826 Z M730.278 225.897 L730.278 203.232 L720.539 204.949 L720.539 227.614 L730.278 225.897 Z M746.031 223.717 C754.304 222.258 759.372 217.556 759.372 209.497 C759.372 202.006 754.091 198.435 746.214 199.824 C738.063 201.262 732.69 206.71 732.69 214.202 C732.69 222.261 737.605 225.203 746.031 223.717 Z M746.031 215.186 C743.955 215.552 742.612 214.593 742.612 212.453 C742.612 210.407 743.955 208.816 746.031 208.45 C748.107 208.084 749.45 209.201 749.45 211.247 C749.45 213.387 748.107 214.82 746.031 215.186 Z M766.577 219.937 C770.485 219.248 771.767 218.235 771.767 214.394 C771.767 210.46 770.362 209.952 766.577 210.619 C762.73 211.298 761.387 212.29 761.387 216.225 C761.387 220.159 762.394 220.674 766.577 219.937 Z" fill="#002a53" fill-rule="nonzero"/>
    <path d="M60.843 295.813 L61.0568 294.736 L61.2705 295.769 L62.6137 299.845 L59.4692 300.399 L60.843 295.813 Z M65.4835 308.593 L75.3443 306.855 L66.7962 285.698 L55.4394 287.7 L46.647 311.915 L56.5385 310.171 L57.4238 307.181 L64.5981 305.916 L65.4835 308.593 Z M89.1125 299.422 L89.7536 299.309 L93.8445 293.74 L93.8445 303.592 L103.309 301.924 L103.309 279.259 L94.7909 280.761 L89.6315 288.344 L84.3195 282.608 L75.7103 284.126 L75.7103 306.79 L85.2048 305.116 L85.2048 295.326 L89.1125 299.422 Z M119.428 294.076 L120.069 293.963 L124.16 288.394 L124.16 298.247 L133.624 296.578 L133.624 273.914 L125.106 275.416 L119.947 282.999 L114.635 277.262 L106.025 278.78 L106.025 301.445 L115.52 299.771 L115.52 289.981 L119.428 294.076 Z M148.216 280.407 L148.43 279.33 L148.644 280.363 L149.987 284.438 L146.842 284.993 L148.216 280.407 Z M152.857 293.187 L162.718 291.448 L154.169 270.291 L142.813 272.294 L134.02 296.508 L143.912 294.764 L144.797 291.775 L151.971 290.51 L152.857 293.187 Z M181.889 274.123 L181.889 265.403 L159.298 269.387 L159.298 278.106 L165.648 276.987 L165.648 290.932 L175.417 289.209 L175.417 275.264 L181.889 274.123 Z M193.857 285.958 L193.857 263.293 L184.118 265.011 L184.118 287.675 L193.857 285.958 Z M216.906 281.893 L216.906 272.733 L206.709 274.531 L206.709 261.027 L196.665 262.798 L196.665 285.462 L216.906 281.893 Z M239.223 277.958 L239.223 268.798 L229.026 270.596 L229.026 257.092 L218.982 258.863 L218.982 281.527 L239.223 277.958 Z M251.129 275.859 L251.129 253.195 L241.39 254.912 L241.39 277.576 L251.129 275.859 Z M271.034 272.349 L279.887 270.788 L279.887 248.124 L270.698 249.744 L270.698 259.817 L263.066 251.09 L253.938 252.699 L253.938 275.364 L263.157 273.738 L263.157 263.193 L271.034 272.349 Z M304.341 258.859 L291.702 261.087 L291.702 259.419 L303.516 257.336 L303.516 252.803 L291.702 254.886 L291.702 253.344 L304.066 251.163 L304.066 243.86 L282.604 247.645 L282.604 270.309 L304.341 266.476 L304.341 258.859 Z M323.605 263.08 L332.458 261.519 L332.458 238.854 L323.269 240.474 L323.269 250.548 L315.636 241.82 L306.508 243.43 L306.508 266.094 L315.728 264.468 L315.728 253.923 L323.605 263.08 Z M364.635 241.9 L364.635 233.18 L342.044 237.164 L342.044 245.883 L348.394 244.764 L348.394 258.709 L358.163 256.986 L358.163 243.041 L364.635 241.9 Z M378.862 253.934 C386.891 252.519 391.226 248.134 391.226 239.541 L391.226 228.492 L381.304 230.241 L381.304 241.29 C381.304 243.714 380.48 244.741 378.923 245.015 C377.274 245.306 376.48 244.565 376.48 242.141 L376.48 231.092 L366.558 232.841 L366.558 243.89 C366.558 252.295 369.733 255.544 378.862 253.934 Z M415.923 232.856 L415.923 224.137 L393.332 228.12 L393.332 236.84 L399.682 235.72 L399.682 249.665 L409.451 247.942 L409.451 233.998 L415.923 232.856 Z M434.058 243.604 L444.895 241.693 L436.927 229.342 L445.018 219.007 L433.63 221.015 L427.585 229.069 L427.585 222.081 L418.06 223.76 L418.06 246.424 L427.585 244.745 L427.585 238.827 L429.539 236.248 L434.058 243.604 Z M456.038 239.728 L456.038 217.064 L446.299 218.781 L446.299 241.445 L456.038 239.728 Z M475.943 236.218 L484.797 234.657 L484.797 211.993 L475.607 213.613 L475.607 223.686 L467.975 214.959 L458.847 216.568 L458.847 239.233 L468.067 237.607 L468.067 227.062 L475.943 236.218 Z M509.525 216.352 L509.525 207.633 L486.933 211.616 L486.933 220.335 L493.283 219.216 L493.283 233.161 L503.053 231.438 L503.053 217.493 L509.525 216.352 Z M524.087 228.327 C532.361 226.868 537.428 222.166 537.428 214.107 C537.428 206.616 532.147 203.046 524.27 204.434 C516.119 205.872 510.746 211.32 510.746 218.812 C510.746 226.871 515.661 229.813 524.087 228.327 Z M524.087 219.797 C522.011 220.163 520.668 219.203 520.668 217.063 C520.668 215.017 522.011 213.426 524.087 213.06 C526.163 212.694 527.507 213.811 527.507 215.857 C527.507 217.997 526.163 219.431 524.087 219.797 Z M558.126 204.099 L558.188 203.774 L558.249 204.078 L561.546 212.468 L554.921 213.636 L558.126 204.099 Z M564.751 220.559 L569.117 219.789 L560.386 198.885 L555.989 199.66 L547.472 223.606 L551.837 222.836 L553.608 217.519 L562.919 215.877 L564.751 220.559 Z M575.314 203.241 L575.192 202.255 L575.711 203.265 L585.939 216.823 L589.877 216.129 L589.877 193.685 L585.877 194.39 L585.877 209.594 L585.969 210.679 L585.45 209.638 L575.376 196.242 L571.285 196.963 L571.285 219.407 L575.314 218.696 L575.314 203.241 Z M610.178 193.914 L610.178 190.105 L592.899 193.152 L592.899 196.961 L599.249 195.841 L599.249 214.476 L603.554 213.717 L603.554 195.082 L610.178 193.914 Z M617.902 193.559 L617.963 193.234 L618.024 193.538 L621.321 201.928 L614.697 203.096 L617.902 193.559 Z M624.527 210.019 L628.893 209.249 L620.161 188.345 L615.765 189.12 L607.247 213.066 L611.613 212.296 L613.384 206.979 L622.695 205.337 L624.527 210.019 Z M640.096 189.646 L640.158 189.32 L640.219 189.624 L643.516 198.014 L636.891 199.182 L640.096 189.646 Z M646.721 206.105 L651.087 205.336 L642.356 184.431 L637.959 185.206 L629.442 209.152 L633.808 208.382 L635.578 203.065 L644.89 201.423 L646.721 206.105 Z M670.777 202.367 C676.639 201.334 679.631 197.69 679.631 193.661 C679.6 188.787 675.968 188.357 671.541 188.445 C668.06 188.492 665.893 188.465 665.893 186.325 C665.893 184.782 666.961 183.303 669.892 182.787 C673.128 182.216 674.563 183.065 674.838 185.629 L679.265 184.848 C678.929 180.186 676.059 178.048 669.953 179.124 C664.336 180.115 661.619 183.553 661.619 187.141 C661.619 191.989 665.191 192.429 669.282 192.369 C672.915 192.264 675.418 192.2 675.387 194.566 C675.387 196.392 673.983 197.993 670.869 198.542 C667.267 199.177 665.557 198.094 665.343 195.015 L660.795 195.817 C661.161 201.167 663.786 203.6 670.777 202.367 Z M691.14 180.645 L691.201 180.32 L691.263 180.624 L694.56 189.014 L687.935 190.182 L691.14 180.645 Z M697.765 197.105 L702.131 196.335 L693.4 175.431 L689.003 176.206 L680.486 200.152 L684.851 199.382 L686.622 194.065 L695.934 192.423 L697.765 197.105 Z M708.573 179.618 L714.709 186.751 L715.228 186.66 L721.486 177.341 L721.792 176.783 L721.792 192.868 L725.821 192.158 L725.821 169.745 L721.975 170.424 L715.075 180.926 L708.237 172.815 L704.298 173.509 L704.298 195.953 L708.359 195.237 L708.359 179.309 L708.573 179.618 Z M738.705 172.258 L738.766 171.933 L738.827 172.237 L742.124 180.627 L735.499 181.795 L738.705 172.258 Z M745.329 188.718 L749.695 187.948 L740.964 167.044 L736.568 167.819 L728.05 191.765 L732.416 190.995 L734.186 185.678 L743.498 184.036 L745.329 188.718 Z M755.892 171.4 L755.77 170.414 L756.289 171.424 L766.517 184.982 L770.455 184.288 L770.455 161.844 L766.456 162.549 L766.456 177.753 L766.547 178.839 L766.028 177.797 L755.954 164.401 L751.863 165.122 L751.863 187.566 L755.892 186.856 L755.892 171.4 Z" fill="#002a53" fill-rule="nonzero"/>
    <path d="M336.308 111.648 L336.308 109.201 C336.308 104.309 338.209 101.352 343.395 100.438 C348.754 99.4931 351.001 101.543 351.001 107.834 L351.001 114.998 L383.671 109.237 L383.671 100.85 C383.671 77.9593 369.324 68.9564 344.087 73.4064 C317.121 78.1612 302.773 93.0974 302.773 115.988 L302.773 119.832 C302.773 141.849 318.503 146.589 332.159 149.773 C342.358 152.343 351.519 154.048 351.519 161.562 L351.519 166.28 C351.519 170.997 349.791 173.923 344.259 174.899 C337.864 176.026 335.962 173.042 335.962 167.45 L335.962 156.616 L301.563 162.682 L301.563 173.515 C301.563 198.328 312.108 209.574 343.222 204.088 C371.398 199.12 385.054 184.131 385.054 160.192 L385.054 152.503 C385.054 129.787 368.632 124.82 354.977 121.811 C344.951 119.385 336.308 118.113 336.308 111.648 Z M258.004 216.843 L291.884 210.869 L291.884 112.736 L258.004 118.71 L258.004 216.843 Z M212.37 224.889 L243.83 219.342 L243.83 93.5306 L214.963 98.6207 L194.047 146.343 L173.304 105.966 L144.437 111.056 L144.437 221.945 L141.612 222.443 L112.805 116.591 L79.7895 122.413 L47.6378 253.893 L80.8266 248.041 L83.9381 232.814 L108.83 228.425 L112.114 242.524 L175.897 231.32 L175.897 167.192 L191.627 194.647 L196.986 193.703 L212.37 160.935 L212.37 224.889 Z M102.953 202.202 L89.8153 204.519 L96.211 172.812 L102.953 202.202 Z" fill="#002a53" fill-rule="nonzero"/>
  </g>
  <g id="star-position" transform="translate(274.3303 76.7089)">
    <g id="rotating-star">
      <animateTransform attributeName="transform" type="rotate" from="0" to="360" dur="3s" repeatCount="indefinite"/>
      <path d="M55.2356 24.1214 L57.5514 7.03798 L42.5178 13.2697 L33.0709 .0182495 L25.982 15.733 L10.3063 14.0762 L15.3146 30.0685 L2.59264 40.9768 L16.7644 47.8786 L14.4486 64.962 L29.4821 58.7303 L38.929 71.9818 L46.018 56.267 L61.6937 57.9238 L56.6854 41.9315 L69.4074 31.0232 L55.2356 24.1214 Z" fill="#002a53" fill-rule="nonzero" transform="translate(-36 -36)"/>
    </g>
    <g id="rotating-star-static" display="none">
      <path d="M55.2356 24.1214 L57.5514 7.03798 L42.5178 13.2697 L33.0709 .0182495 L25.982 15.733 L10.3063 14.0762 L15.3146 30.0685 L2.59264 40.9768 L16.7644 47.8786 L14.4486 64.962 L29.4821 58.7303 L38.929 71.9818 L46.018 56.267 L61.6937 57.9238 L56.6854 41.9315 L69.4074 31.0232 L55.2356 24.1214 Z" fill="#002a53" fill-rule="nonzero" transform="translate(-36 -36)"/>
    </g>
  </g>
  <style>
    @media (prefers-reduced-motion: reduce) {
      #rotating-star { display: none; }
      #rotating-star-static { display: inline; }
    }
  </style>
</svg>
