<?xml version="1.0" encoding="UTF-8" standalone="no"?>
<!DOCTYPE svg PUBLIC "-//W3C//DTD SVG 1.1//EN" "http://www.w3.org/Graphics/SVG/1.1/DTD/svg11.dtd">
<svg width="100%" height="100%" viewBox="0 0 8872 3128" version="1.1" xmlns="http://www.w3.org/2000/svg" xmlns:xlink="http://www.w3.org/1999/xlink" xml:space="preserve" xmlns:serif="http://www.serif.com/" style="fill-rule:evenodd;clip-rule:evenodd;stroke-linejoin:round;stroke-miterlimit:2;">
    <g transform="matrix(1,0,0,1,-9433.13,-69.3478)">
        <g transform="matrix(4.69651,0,0,3.01522,9358.42,19.3292)">
            <g transform="matrix(1.77437,0,0,2.76376,1096.18,796.279)">
                <path d="M0,-47.882L-0.003,-47.897L-147.079,-21.964L-147.074,-21.936L-535.211,46.503C-536.772,43.139 -538.846,40.009 -541.362,37.309C-548.797,29.33 -559.683,24.046 -574.642,21.154C-577.685,20.565 -582.228,20.027 -586.59,20.804C-593.337,22.005 -596.606,25.717 -598.161,28.619C-601.067,34.045 -600.076,41.249 -595.695,46.543C-592.131,50.85 -587.163,53.211 -583.233,54.786C-574.445,58.309 -565.108,60.295 -555.482,60.69C-551.603,60.848 -547.75,60.745 -543.94,60.383C-543.888,63.081 -544.406,66.232 -546.339,69.096C-550.835,75.757 -560.624,77.974 -568.65,79.161C-582.376,81.191 -599.52,81.219 -602.83,81.219C-606.14,81.219 -608.824,83.902 -608.824,87.212C-608.824,90.522 -606.14,93.206 -602.83,93.206C-602.83,93.206 -581.445,93.154 -566.899,91.003C-560.246,90.019 -555.086,88.704 -550.658,86.864C-544.415,84.269 -539.623,80.543 -536.416,75.792C-533.093,70.868 -531.583,64.771 -532.059,58.378C-531.977,58.358 -531.896,58.33 -531.813,58.31L-531.955,57.792L-145.045,-10.429L-144.994,-10.138L-8.882,-34.138L-8.88,-34.129L395.479,-105.766C405.322,-107.441 402.731,-119.099 395.744,-118.179L0,-47.882ZM-547.648,48.664C-550.079,48.808 -552.529,48.829 -554.993,48.729C-563.255,48.39 -571.258,46.691 -578.779,43.675C-581.555,42.563 -584.64,41.126 -586.473,38.911C-587.685,37.447 -588.194,35.365 -587.608,34.27C-587.561,34.182 -587.505,34.096 -587.443,34.013C-586.198,32.362 -582.057,31.912 -576.914,32.906C-564.531,35.301 -555.766,39.41 -550.12,45.47C-549.212,46.444 -548.383,47.519 -547.648,48.664" style="fill:rgb(0,32,76);fill-rule:nonzero;"/>
            </g>
        </g>
        <g transform="matrix(4.69651,0,0,3.01522,9358.42,19.3292)">
            <g transform="matrix(1.77437,0,0.312869,-2.76376,1872.08,416.548)">
                <path d="M0,-30.099L-8.105,-36.548L-9.684,-25.691L-19.564,-23.954L-13.696,-15.049L-19.564,-6.145L-9.684,-4.408L-8.105,6.449L0,-0.001L8.103,6.449L9.684,-4.408L19.564,-6.145L13.694,-15.049L19.564,-23.954L9.684,-25.691L8.103,-36.548L0,-30.099Z" style="fill:rgb(0,32,76);fill-rule:nonzero;"/>
            </g>
        </g>
        <g transform="matrix(4.69651,0,0,3.01522,9358.42,19.3292)">
            <g transform="matrix(1.77437,0,0.312869,-2.76376,695.341,218.747)">
                <path d="M0,-47.029L-12.661,-57.106L-15.131,-40.143L-30.569,-37.429L-21.398,-23.515L-30.569,-9.602L-15.131,-6.888L-12.661,10.077L0,-0.002L12.663,10.077L15.131,-6.888L30.569,-9.602L21.398,-23.515L30.569,-37.429L15.131,-40.143L12.663,-57.106L0,-47.029Z" style="fill:rgb(0,32,76);fill-rule:nonzero;"/>
            </g>
        </g>
        <g transform="matrix(4.69651,0,0,3.01522,9358.42,19.3292)">
            <g transform="matrix(1.74741,-0.479922,0,-2.8064,305.161,549.362)">
                <path d="M0,-50.05L-15.783,-50.05L-8.099,-13.707L0,-50.05ZM11.007,-99.892L51.088,-99.892L11.837,49.633L-27.828,49.633L-66.456,-99.892L-26.582,-99.892L-22.844,-82.447L7.061,-82.447L11.007,-99.892ZM116.087,-59.603L122.525,-59.603L141.008,-23.883L141.008,-99.892L178.804,-99.892L178.804,49.633L144.123,49.633L118.994,-2.7L94.074,49.633L59.392,49.633L59.392,-99.892L97.189,-99.892L97.189,-23.675L116.087,-59.603ZM236.537,16.738L195.833,16.738L195.833,-99.891L236.537,-99.891L236.537,16.738ZM298.215,-102.591C332.066,-102.591 348.472,-87.639 348.472,-59.188L348.472,-50.05C348.472,-23.052 328.743,-13.707 312.337,-7.269C300.292,-2.285 289.908,1.038 289.908,8.722L289.908,11.629C289.908,17.444 292.192,20.559 298.423,20.559C304.861,20.559 307.56,17.652 307.56,10.175L307.56,1.661L346.811,1.661L346.811,11.629C346.811,38.834 329.574,52.541 299.253,52.541C266.856,52.541 249.619,37.796 249.619,10.591L249.619,6.022C249.619,-20.145 268.518,-29.075 284.924,-35.721C297.177,-40.912 308.183,-44.858 308.183,-53.788L308.183,-59.395C308.183,-65.002 306.107,-68.118 299.461,-68.118C291.777,-68.118 289.493,-64.172 289.493,-57.526L289.493,-44.65L248.166,-44.65L248.166,-57.526C248.166,-87.016 260.834,-102.591 298.215,-102.591" style="fill:rgb(0,32,76);fill-rule:nonzero;"/>
            </g>
        </g>
        <g transform="matrix(4.69651,0,0,3.01522,9358.42,19.3292)">
            <g transform="matrix(1.74741,-0.479921,-0.308115,2.89102,-311.752,-663.952)">
                <g transform="matrix(93.4398,0,16.4759,93.4398,821.02,510.093)">
                    <path d="M0.542,-0.057L0.556,-0L0.952,-0L0.721,-0.72L0.201,-0.72L-0.035,-0L0.36,-0L0.374,-0.057L0.542,-0.057ZM0.434,-0.294L0.45,-0.36L0.46,-0.491L0.47,-0.36L0.486,-0.294L0.434,-0.294Z" style="fill:rgb(0,32,76);fill-rule:nonzero;"/>
                </g>
                <g transform="matrix(93.4398,0,16.4759,93.4398,913.369,510.093)">
                    <path d="M0.403,-0L0.403,-0.199L0.323,-0.468L0.5,-0L0.936,-0L0.936,-0.72L0.555,-0.72L0.555,-0.534L0.632,-0.277L0.462,-0.72L0.018,-0.72L0.018,-0L0.403,-0Z" style="fill:rgb(0,32,76);fill-rule:nonzero;"/>
                </g>
                <g transform="matrix(93.4398,0,16.4759,93.4398,1009.17,510.093)">
                    <path d="M0.604,-0.398L0.761,-0.398L0.761,-0.72L0.012,-0.72L0.012,-0.398L0.169,-0.398L0.169,-0L0.604,-0L0.604,-0.398Z" style="fill:rgb(0,32,76);fill-rule:nonzero;"/>
                </g>
                <g transform="matrix(93.4398,0,16.4759,93.4398,1080.03,510.093)">
                    <path d="M0.542,-0.057L0.556,-0L0.952,-0L0.721,-0.72L0.201,-0.72L-0.035,-0L0.36,-0L0.374,-0.057L0.542,-0.057ZM0.434,-0.294L0.45,-0.36L0.46,-0.491L0.47,-0.36L0.486,-0.294L0.434,-0.294Z" style="fill:rgb(0,32,76);fill-rule:nonzero;"/>
                </g>
                <g transform="matrix(93.4398,0,16.4759,93.4398,1172.38,510.093)">
                    <path d="M0.542,-0.057L0.556,-0L0.952,-0L0.721,-0.72L0.201,-0.72L-0.035,-0L0.36,-0L0.374,-0.057L0.542,-0.057ZM0.434,-0.294L0.45,-0.36L0.46,-0.491L0.47,-0.36L0.486,-0.294L0.434,-0.294Z" style="fill:rgb(0,32,76);fill-rule:nonzero;"/>
                </g>
                <g transform="matrix(93.4398,0,16.4759,93.4398,835.243,590.756)">
                    <path d="M0.347,-0L0.347,-0.193L0.204,-0.193L0.204,-0.27L0.347,-0.27L0.347,-0.459L0.204,-0.459L0.204,-0.532L0.347,-0.532L0.347,-0.72L0.01,-0.72L0.01,-0L0.347,-0Z" style="fill:rgb(0,32,76);fill-rule:nonzero;"/>
                </g>
                <g transform="matrix(93.4398,0,16.4759,93.4398,878.148,590.756)">
                    <path d="M0.283,-0.533L0.358,-0.533L0.358,-0.72L0.006,-0.72L0.006,-0.533L0.081,-0.533L0.081,-0L0.283,-0L0.283,-0.533Z" style="fill:rgb(0,32,76);fill-rule:nonzero;"/>
                </g>
                <g transform="matrix(93.4398,0,16.4759,93.4398,921.801,590.756)">
                    <path d="M0.217,0.011C0.362,0.011 0.426,-0.057 0.426,-0.203L0.426,-0.72L0.227,-0.72L0.227,-0.215C0.227,-0.179 0.226,-0.178 0.217,-0.178C0.208,-0.178 0.207,-0.18 0.207,-0.215L0.207,-0.72L0.009,-0.72L0.009,-0.203C0.009,-0.06 0.063,0.011 0.217,0.011Z" style="fill:rgb(0,32,76);fill-rule:nonzero;"/>
                </g>
                <g transform="matrix(93.4398,0,16.4759,93.4398,972.088,590.756)">
                    <path d="M0.212,-0L0.212,-0.126L0.179,-0.571L0.244,-0L0.414,-0L0.479,-0.561L0.447,-0.127L0.447,-0L0.646,-0L0.646,-0.72L0.354,-0.72L0.335,-0.473L0.33,-0.187L0.325,-0.473L0.305,-0.72L0.01,-0.72L0.01,-0L0.212,-0Z" style="fill:rgb(0,32,76);fill-rule:nonzero;"/>
                </g>
                <g transform="matrix(93.4398,0,16.4759,93.4398,1043.02,590.756)">
                    <path d="M0.249,-0.055L0.254,-0L0.445,-0L0.339,-0.72L0.09,-0.72L-0.01,-0L0.181,-0L0.186,-0.055L0.249,-0.055ZM0.202,-0.213L0.211,-0.31L0.216,-0.457L0.223,-0.31L0.233,-0.213L0.202,-0.213Z" style="fill:rgb(0,32,76);fill-rule:nonzero;"/>
                </g>
                <g transform="matrix(93.4398,0,16.4759,93.4398,1087.89,590.756)">
                    <path d="M0.283,-0.533L0.358,-0.533L0.358,-0.72L0.006,-0.72L0.006,-0.533L0.081,-0.533L0.081,-0L0.283,-0L0.283,-0.533Z" style="fill:rgb(0,32,76);fill-rule:nonzero;"/>
                </g>
                <g transform="matrix(93.4398,0,16.4759,93.4398,1131.54,590.756)">
                    <path d="M0.208,-0.282L0.216,-0.2L0.26,-0L0.477,-0L0.37,-0.413L0.473,-0.72L0.263,-0.72L0.219,-0.574L0.188,-0.439L0.206,-0.587L0.206,-0.72L0.011,-0.72L0.011,-0L0.206,-0L0.206,-0.265L0.208,-0.282Z" style="fill:rgb(0,32,76);fill-rule:nonzero;"/>
                </g>
                <g transform="matrix(93.4398,0,16.4759,93.4398,1184.07,590.756)">
                    <path d="M0.249,-0.055L0.254,-0L0.445,-0L0.339,-0.72L0.09,-0.72L-0.01,-0L0.181,-0L0.186,-0.055L0.249,-0.055ZM0.202,-0.213L0.211,-0.31L0.216,-0.457L0.223,-0.31L0.233,-0.213L0.202,-0.213Z" style="fill:rgb(0,32,76);fill-rule:nonzero;"/>
                </g>
                <g transform="matrix(93.4398,0,16.4759,93.4398,1234.36,590.756)">
                    <path d="M0.249,-0.055L0.254,-0L0.445,-0L0.339,-0.72L0.09,-0.72L-0.01,-0L0.181,-0L0.186,-0.055L0.249,-0.055ZM0.202,-0.213L0.211,-0.31L0.216,-0.457L0.223,-0.31L0.233,-0.213L0.202,-0.213Z" style="fill:rgb(0,32,76);fill-rule:nonzero;"/>
                </g>
            </g>
        </g>
        <g transform="matrix(4.69651,0,0,3.01522,9358.42,19.3292)">
            <g transform="matrix(1.74741,-0.479922,0,-2.8064,965.792,870.383)">
                <path d="M446.775,-40.789L194.486,-40.789L194.486,30.116L446.775,30.116L446.775,-40.789ZM258.607,-17.138L258.607,-6.707C258.607,-4.826 258.746,-3.664 260.214,-3.664C261.612,-3.664 261.752,-4.758 261.752,-6.502L261.752,-17.138L269.896,-17.138L269.896,-6.707C269.896,-4.826 270.036,-3.664 271.504,-3.664C272.902,-3.664 273.042,-4.758 273.042,-6.502L273.042,-17.138L281.185,-17.138L281.185,-4.04C281.185,0.714 279.053,3.211 274.754,3.211C272.028,3.211 270.21,2.014 269.127,0.03C268.148,2.185 266.296,3.211 263.5,3.211C260.878,3.211 259.026,2.048 257.942,0.167L257.278,2.869L250.393,2.869L250.393,-17.138L258.607,-17.138ZM399.03,-6.399L402.944,-6.399L402.944,0.509L399.03,0.509L399.03,0.885C399.03,2.39 399.379,2.766 400.707,2.766L402.979,2.766L402.979,9.196L399.449,9.196C393.612,9.196 391.166,7.144 391.166,1.98L391.166,0.509L388.23,0.509L388.23,-6.399L391.166,-6.399L391.131,-17.138L398.995,-17.138L399.03,-6.399ZM366.082,-17.685C370.591,-17.685 373.492,-16.352 374.995,-14.197C375.729,-13.103 376.113,-11.837 376.113,-10.469C376.113,-8.041 375.03,-6.605 373.492,-5.75C371.884,-4.895 369.997,-4.518 368.319,-4.347C365.243,-3.971 364.405,-3.834 364.405,-3.185C364.405,-2.637 364.929,-2.159 365.942,-2.159C367.166,-2.159 367.935,-2.843 368.179,-3.663L375.974,-3.663C375.519,-0.927 374.121,1.227 371.36,2.356C369.962,2.937 368.249,3.245 366.082,3.245C360.141,3.245 356.645,0.509 356.645,-3.629C356.645,-6.16 357.659,-7.631 359.197,-8.451C360.735,-9.306 362.587,-9.614 364.265,-9.785C366.467,-10.025 368.249,-10.093 368.249,-11.016C368.249,-11.666 367.725,-11.974 366.642,-11.974C365.383,-11.974 364.509,-11.427 364.055,-10.367L355.911,-10.367C356.61,-15.052 360.141,-17.685 366.082,-17.685ZM408.881,2.971C412.061,2.971 413.459,3.792 413.459,6.186C413.459,8.649 411.956,9.435 408.881,9.435C405.735,9.435 404.302,8.649 404.302,6.186C404.302,3.724 405.525,2.971 408.881,2.971ZM303.025,-17.686C307.534,-17.686 310.435,-16.352 311.938,-14.197C312.672,-13.103 313.057,-11.837 313.057,-10.469C313.057,-8.041 311.973,-6.605 310.435,-5.75C308.827,-4.895 306.94,-4.518 305.262,-4.347C302.187,-3.971 301.348,-3.835 301.348,-3.185C301.348,-2.638 301.872,-2.159 302.886,-2.159C304.109,-2.159 304.878,-2.843 305.123,-3.663L312.917,-3.663C312.462,-0.927 311.064,1.227 308.303,2.356C306.905,2.937 305.192,3.245 303.025,3.245C297.084,3.245 293.589,0.509 293.589,-3.629C293.589,-6.16 294.602,-7.631 296.14,-8.452C297.678,-9.307 299.53,-9.614 301.208,-9.785C303.41,-10.025 305.192,-10.093 305.192,-11.017C305.192,-11.666 304.668,-11.974 303.585,-11.974C302.326,-11.974 301.453,-11.427 300.998,-10.367L292.855,-10.367C293.554,-15.052 297.084,-17.686 303.025,-17.686ZM287.544,2.971C290.725,2.971 292.123,3.792 292.123,6.186C292.123,8.648 290.62,9.435 287.544,9.435C284.399,9.435 282.966,8.648 282.966,6.186C282.966,3.724 284.189,2.971 287.544,2.971ZM330.096,2.561L330.096,-17.138L338.66,-17.138L338.66,2.629C337.926,2.185 336.562,1.843 334.361,1.843C332.194,1.843 330.795,2.116 330.096,2.561ZM324.509,-6.399L328.424,-6.399L328.424,0.509L324.509,0.509L324.509,0.885C324.509,2.39 324.859,2.766 326.187,2.766L328.459,2.766L328.459,9.196L324.929,9.196C319.092,9.196 316.645,7.144 316.645,1.98L316.645,0.509L313.709,0.509L313.709,-6.399L316.645,-6.399L316.61,-17.138L324.474,-17.138L324.509,-6.399ZM404.617,2.561L404.617,-17.138L413.18,-17.138L413.18,2.629C412.446,2.185 411.083,1.843 408.881,1.843C406.714,1.843 405.316,2.116 404.617,2.561ZM283.28,2.561L283.28,-17.138L291.843,-17.138L291.843,2.629C291.109,2.185 289.746,1.843 287.544,1.843C285.377,1.843 283.979,2.116 283.28,2.561ZM355.151,-17.138L355.151,-9.751L353.997,-9.751C352.215,-9.751 351.341,-9.614 351.061,-8.759C350.887,-8.315 350.817,-7.596 350.817,-6.639L350.817,-4.211L355.151,-4.211L355.151,2.869L350.817,2.869L350.817,7.486L344.211,7.486C344.176,6.391 344.106,5.468 343.861,4.681C343.582,3.724 343.023,3.142 342.323,2.766C341.729,2.493 341.03,2.322 340.087,2.322L340.087,-4.211L343.057,-4.211L343.057,-8.349C343.057,-12.624 343.861,-15.086 346.238,-16.283C347.426,-16.83 349.104,-17.138 351.306,-17.138L355.151,-17.138ZM334.361,2.971C337.541,2.971 338.939,3.792 338.939,6.186C338.939,8.649 337.436,9.435 334.361,9.435C331.215,9.435 329.782,8.649 329.782,6.186C329.782,3.724 331.005,2.971 334.361,2.971ZM240.609,-14.608L241.518,-17.138L248.298,-17.138L248.298,-5.134C248.298,-1.783 247.215,0.782 244.453,2.15C243.09,2.869 241.308,3.211 238.966,3.211C234.317,3.211 231.451,1.843 229.949,-0.551C229.215,-1.748 228.795,-3.116 228.69,-4.724L236.904,-4.724C236.904,-3.493 237.498,-2.911 238.721,-2.911C239.945,-2.911 240.224,-3.39 240.224,-4.04C240.224,-4.963 239.176,-5.203 236.589,-5.579C233.793,-5.989 232.29,-6.297 230.787,-7.22C229.145,-8.212 228.096,-9.683 228.096,-12.282C228.096,-15.634 230.088,-17.651 234.597,-17.651C237.918,-17.651 239.665,-16.386 240.609,-14.608ZM238.162,-12.043C237.288,-12.043 236.659,-11.701 236.659,-10.982C236.659,-10.538 236.834,-10.162 237.149,-9.922C237.463,-9.683 237.813,-9.58 238.826,-9.341C239.42,-9.204 239.91,-9.067 240.224,-8.828L240.224,-10.127C240.224,-11.119 239.385,-12.043 238.162,-12.043ZM382.255,-17.514C384.597,-17.514 385.855,-17.172 386.414,-15.941C386.694,-15.36 386.834,-14.471 386.834,-13.274C386.834,-10.845 386.309,-9.751 384.946,-9.306C384.282,-9.135 383.374,-8.999 382.255,-8.999C379.948,-8.999 378.69,-9.341 378.096,-10.572C377.816,-11.153 377.676,-12.077 377.676,-13.274C377.676,-15.668 378.096,-16.796 379.424,-17.207C380.088,-17.378 381.032,-17.514 382.255,-17.514Z" style="fill:rgb(0,32,76);"/>
            </g>
        </g>
    </g>
</svg>
