<?xml version="1.0" encoding="UTF-8"?>
<svg xmlns="http://www.w3.org/2000/svg" xmlns:amisfits="https://amisfits.fi/metadata" viewBox="0 0 820 350" width="820" height="350" role="img" aria-labelledby="teema2-title teema2-desc">
  <title id="teema2-title">Amis antaa suunnan - teema 2</title>
  <desc id="teema2-desc">AMIS ANTAA SUUNNAN. Animated SVG, tight 820 x 350 crop. The star rotates once every 3 seconds around its own center.</desc>
  <metadata>
    <amisfits:text>AMIS ANTAA SUUNNAN</amisfits:text>
    <amisfits:animation>Star rotation, 360 degrees, 3 seconds, indefinite repeat.</amisfits:animation>
    <amisfits:source-crop>820x350</amisfits:source-crop>
  </metadata>
  <g id="logo-base">
    <path d="M770 273.365 L770 235.033 L643.333 257.333 L643.333 295.666 L770 273.365 Z M748.843 253.372 C749.022 253.467 749.988 253.369 750.543 253.271 C751.097 253.173 752.027 252.919 752.224 252.758 L752.224 263.17 L748.843 263.766 L748.843 253.372 Z M711.696 259.922 C711.874 260.017 712.84 259.919 713.395 259.821 C713.949 259.723 714.879 259.469 715.076 259.308 L715.076 269.721 L711.696 270.317 L711.696 259.922 Z M688.445 264.022 C688.623 264.117 689.589 264.019 690.144 263.921 C690.698 263.823 691.628 263.569 691.825 263.408 L691.825 273.82 L688.445 274.416 L688.445 264.022 Z M669.414 277.772 L666.731 278.245 L666.373 276.558 C665.783 277.835 664.656 278.882 662.725 279.222 C660.471 279.62 659.38 278.729 659.38 276.997 C659.38 275.734 659.899 274.83 660.739 274.159 C661.562 273.49 662.313 273.213 663.994 272.646 C665.569 272.152 666.212 271.858 666.212 271.191 C666.212 270.595 665.855 270.243 664.746 270.439 C663.601 270.64 663.047 271.28 663.011 272.26 L659.702 272.844 C659.863 270.379 661.508 268.483 664.746 267.912 C668.18 267.307 669.414 268.677 669.414 271.095 L669.414 277.772 Z M686.799 274.707 L683.544 275.281 L683.544 269.542 C683.544 268.279 683.222 267.488 682.077 267.689 C680.95 267.888 680.593 268.817 680.593 270.098 L680.593 275.801 L677.338 276.375 L677.338 270.6 C677.338 269.409 677.051 268.576 675.907 268.777 C674.78 268.976 674.368 269.969 674.368 271.358 L674.368 276.898 L671.095 277.476 L671.095 267.009 L673.832 266.527 L674.118 268.118 C674.655 266.887 675.692 265.982 677.159 265.723 C678.751 265.443 679.752 265.952 680.235 267.094 C680.772 265.826 681.809 264.903 683.329 264.635 C685.619 264.232 686.799 265.467 686.799 267.994 L686.799 274.707 Z M692.093 261.087 C692.093 262.278 691.467 262.821 690.144 263.055 C688.713 263.307 688.194 263.002 688.194 261.775 C688.194 260.547 688.838 260.019 690.144 259.789 C691.432 259.562 692.093 259.86 692.093 261.087 Z M696.439 265.572 C696.439 266.222 697.316 266.175 698.854 266.103 C700.643 266.022 702.789 266.094 702.789 268.531 C702.789 270.624 701.215 272.453 697.996 273.021 C694.901 273.567 693.22 272.492 692.88 270.133 L696.243 269.541 C696.457 270.387 697.101 270.67 698.157 270.484 C699.176 270.305 699.623 269.883 699.623 269.305 C699.623 268.584 698.496 268.692 697.209 268.757 C695.42 268.837 693.309 268.813 693.309 266.322 C693.309 264.283 694.901 262.577 697.835 262.06 C700.947 261.511 702.342 262.672 702.664 264.709 L699.462 265.274 C699.319 264.577 698.783 264.275 697.799 264.448 C696.797 264.625 696.439 265.067 696.439 265.572 Z M710.355 259.058 L709.335 259.238 C708.333 259.414 708.137 259.702 708.137 260.929 L708.137 261.091 L710.337 260.703 L710.337 263.555 L708.137 263.942 L708.119 270.947 L704.989 271.499 L704.989 264.498 L703.343 264.788 L703.343 261.937 L704.989 261.646 L704.989 261.051 C704.989 258.38 706.133 257.132 708.852 256.652 L710.355 256.387 L710.355 259.058 Z M715.344 256.987 C715.344 258.178 714.718 258.722 713.395 258.955 C711.964 259.207 711.445 258.902 711.445 257.675 C711.445 256.448 712.089 255.919 713.395 255.689 C714.683 255.462 715.344 255.76 715.344 256.987 Z M723.589 268.219 L721.944 268.51 C718.814 269.061 718.045 268.06 718.045 264.794 L718.045 261.636 L716.292 261.945 L716.292 259.22 C716.685 259.151 716.954 259.067 717.311 258.932 C717.973 258.725 718.224 258.392 718.331 257.489 C718.385 257.047 718.42 256.481 718.438 256.045 L721.121 255.572 L721.121 258.188 L723.589 257.753 L723.589 260.658 L721.121 261.094 L721.121 263.602 C721.121 265.406 721.389 265.558 722.928 265.286 L723.589 265.17 L723.589 268.219 Z M727.828 260.037 C727.828 260.687 728.704 260.641 730.243 260.568 C732.031 260.487 734.178 260.56 734.178 262.996 C734.178 265.089 732.604 266.919 729.384 267.486 C726.29 268.032 724.609 266.957 724.269 264.599 L727.631 264.006 C727.846 264.852 728.49 265.136 729.545 264.95 C730.565 264.77 731.012 264.348 731.012 263.771 C731.012 263.049 729.885 263.157 728.597 263.222 C726.809 263.303 724.698 263.278 724.698 260.788 C724.698 258.749 726.29 257.042 729.223 256.525 C732.335 255.976 733.731 257.138 734.052 259.174 L730.851 259.739 C730.708 259.042 730.171 258.74 729.187 258.913 C728.186 259.09 727.828 259.532 727.828 260.037 Z M739.436 263.711 C739.436 265.209 738.881 265.74 737.468 265.989 C735.966 266.254 735.519 265.954 735.519 264.402 C735.519 262.868 736.073 262.391 737.468 262.145 C738.863 261.899 739.436 262.177 739.436 263.711 Z M747.502 252.508 L746.483 252.688 C745.481 252.864 745.284 253.152 745.284 254.379 L745.284 254.541 L747.484 254.153 L747.484 257.004 L745.284 257.392 L745.267 264.397 L742.136 264.949 L742.136 257.947 L740.491 258.238 L740.491 255.386 L742.136 255.096 L742.136 254.501 C742.136 251.83 743.281 250.581 746 250.102 L747.502 249.837 L747.502 252.508 Z M752.492 250.437 C752.492 251.628 751.866 252.172 750.543 252.405 C749.112 252.657 748.593 252.352 748.593 251.125 C748.593 249.898 749.237 249.369 750.543 249.139 C751.83 248.912 752.492 249.21 752.492 250.437 Z M666.23 274.129 L666.23 273.497 C665.926 273.785 665.461 273.994 664.835 274.23 C663.941 274.55 663.601 274.701 663.279 274.974 C662.993 275.241 662.85 275.519 662.85 275.88 C662.85 276.493 663.261 276.728 664.048 276.589 C665.354 276.359 666.23 275.157 666.23 274.129 Z" fill="#002a53" fill-rule="nonzero"/>
    <path d="M731.542 294.845 C731.996 294.765 732.374 294.625 732.675 294.426 C732.977 294.227 733.203 293.977 733.356 293.677 C733.508 293.377 733.584 293.04 733.584 292.666 C733.584 292.255 733.471 291.93 733.246 291.692 C733.021 291.454 732.716 291.333 732.332 291.328 C732.6 291.202 732.815 290.995 732.977 290.706 C733.138 290.417 733.219 290.106 733.219 289.773 C733.219 289.252 733.05 288.89 732.714 288.689 C732.377 288.488 731.93 288.436 731.373 288.534 L729.555 288.855 L729.555 295.195 L731.542 294.845 Z M730.345 292.079 L731.506 291.874 C731.901 291.804 732.214 291.842 732.442 291.987 C732.671 292.132 732.785 292.39 732.785 292.76 C732.785 293.068 732.727 293.318 732.611 293.512 C732.495 293.705 732.341 293.853 732.147 293.956 C731.954 294.059 731.742 294.131 731.51 294.172 L730.345 294.377 L730.345 292.079 Z M730.345 289.385 L731.346 289.208 C731.69 289.147 731.956 289.183 732.145 289.314 C732.334 289.446 732.428 289.674 732.428 289.997 C732.428 290.32 732.335 290.594 732.147 290.819 C731.96 291.044 731.693 291.186 731.346 291.248 L730.345 291.424 L730.345 289.385 Z M737.274 293.834 L737.274 291.295 L739.179 287.158 L738.316 287.31 L736.877 290.635 L735.433 287.818 L734.57 287.971 L736.47 291.437 L736.47 293.976 L737.274 293.834 Z M747.108 292.1 L747.108 291.426 L744.335 291.915 L744.335 289.654 L746.889 289.204 L746.889 288.545 L744.335 288.995 L744.335 286.922 L747.108 286.434 L747.108 285.76 L743.545 286.388 L743.545 292.728 L747.108 292.1 Z M750.908 291.43 L750.908 285.768 L752.47 285.493 L752.47 284.814 L748.541 285.507 L748.541 286.185 L750.113 285.908 L750.113 291.57 L750.908 291.43 Z M757.791 290.216 L757.791 289.543 L755.018 290.032 L755.018 287.771 L757.572 287.32 L757.572 286.661 L755.018 287.111 L755.018 285.039 L757.791 284.55 L757.791 283.876 L754.228 284.505 L754.228 290.844 L757.791 290.216 Z M760.718 289.7 L760.718 286.445 L763.108 289.279 L764.053 289.112 L761.582 286.199 L763.87 282.804 L762.975 282.962 L760.718 286.412 L760.718 283.36 L759.928 283.499 L759.928 289.839 L760.718 289.7 Z M765.838 288.797 L766.391 286.891 L768.63 286.496 L769.159 288.212 L769.982 288.067 L767.931 282.088 L767.095 282.236 L765.021 288.941 L765.838 288.797 Z M767.51 282.958 L768.429 285.844 L766.592 286.168 L767.51 282.958 Z" fill="#002a53" fill-rule="nonzero"/>
    <path d="M814.214 134.906 C733.518 149.05 45.6442 271.834 37.008 273.322 C17.7819 276.452 -.992371 268.458 5.35001 258.132 C7.27261 255.002 18.1654 250.656 27.6593 256.326 C39.6665 263.498 33.748 281.49 19.7867 290.167 C15.2126 293.009 9.60822 295.34 4.07001 297.208" fill="none" stroke="#002a53" stroke-width="8" stroke-linecap="round" stroke-linejoin="miter"/>
    <path d="M801.001 126.335 L814.214 134.906 L804.704 147.46" fill="none" stroke="#002a53" stroke-width="8" stroke-linecap="round" stroke-linejoin="miter"/>
    <path d="M59.5907 329.922 L59.5907 329.859 L59.6213 329.948 L61.1477 334.684 L58.0643 335.228 L59.5907 329.922 Z M63.8953 343.328 L73.2372 341.681 L64.9333 320.481 L54.4008 322.338 L45.9137 346.499 L55.2556 344.851 L56.1104 341.868 L63.0405 340.646 L63.8953 343.328 Z M87.0976 339.237 L95.4321 315.103 L85.8154 316.799 L81.9077 330.11 L78 318.177 L68.4139 319.867 L76.5346 341.099 L87.0976 339.237 Z M106.789 336.331 C114.513 334.969 119.397 330.425 119.397 322.556 L119.397 321.958 C119.397 314.56 114.329 311.204 106.941 312.507 C99.2786 313.858 94.2413 318.996 94.2413 326.393 L94.2413 326.991 C94.2413 334.861 98.8512 337.731 106.789 336.331 Z M106.819 328.173 C104.835 328.523 103.675 327.531 103.675 325.234 L103.675 324.824 C103.675 322.621 104.835 321.063 106.819 320.713 C108.773 320.368 109.933 321.486 109.933 323.721 L109.933 324.13 C109.933 326.428 108.773 327.829 106.819 328.173 Z M130.571 331.571 L130.571 308.907 L121.29 310.544 L121.29 333.208 L130.571 331.571 Z M149.407 328.25 L157.803 326.77 L157.803 304.105 L149.132 305.634 L149.132 315.707 L141.775 306.931 L133.135 308.455 L133.135 331.119 L141.836 329.585 L141.836 319.103 L149.407 328.25 Z M179.234 308.826 L179.234 308.763 L179.264 308.852 L180.791 313.588 L177.707 314.131 L179.234 308.826 Z M183.538 322.232 L192.88 320.585 L184.576 299.384 L174.044 301.242 L165.557 325.402 L174.899 323.755 L175.753 320.771 L182.684 319.549 L183.538 322.232 Z M205.947 313.087 L206.618 312.968 L210.557 307.426 L210.557 317.468 L219.502 315.89 L219.502 293.226 L211.442 294.647 L206.466 302.167 L201.337 296.429 L193.186 297.866 L193.186 320.531 L202.161 318.948 L202.161 308.969 L205.947 313.087 Z M237.177 312.774 L247.435 310.965 L239.772 298.56 L247.527 288.285 L236.781 290.179 L231.041 298.085 L231.041 291.191 L222.004 292.785 L222.004 315.449 L231.041 313.856 L231.041 307.938 L232.903 305.406 L237.177 312.774 Z M273.72 287.884 L273.72 283.886 L255.464 287.105 L255.464 291.103 L262.18 289.919 L262.18 308.365 L266.698 307.568 L266.698 289.122 L273.72 287.884 Z M285.993 304.701 C292.251 303.598 295.792 299.605 295.792 291.641 L295.792 279.994 L291.121 280.818 L291.121 292.308 C291.121 297.47 289.595 299.628 286.054 300.252 C282.512 300.877 280.833 299.221 280.833 294.122 L280.833 282.632 L276.193 283.45 L276.193 295.097 C276.193 303.061 279.49 305.848 285.993 304.701 Z M309.408 300.573 C315.941 299.421 320.307 295.062 320.307 287.602 L320.307 286.406 C320.307 279.103 315.819 275.991 309.439 277.116 C303.027 278.246 298.601 283.025 298.601 290.233 L298.601 291.429 C298.601 299.047 302.692 301.757 309.408 300.573 Z M309.439 296.381 C305.378 297.097 303.211 295.149 303.211 290.522 L303.211 289.546 C303.211 284.762 305.378 281.956 309.439 281.24 C313.468 280.529 315.697 282.434 315.697 287.376 L315.697 288.32 C315.697 293.105 313.468 295.67 309.439 296.381 Z M333.434 295.801 L342.288 271.796 L337.525 272.636 L331.267 290.265 L325.192 274.811 L320.398 275.656 L328.916 296.598 L333.434 295.801 Z M353.308 283.514 L346.317 284.747 L349.767 275.199 L353.308 283.514 Z M356.819 291.678 L361.429 290.865 L352.087 270.068 L347.447 270.886 L338.288 294.945 L342.959 294.122 L344.852 288.814 L354.835 287.054 L356.819 291.678 Z M376.083 269.835 L376.083 265.837 L357.827 269.056 L357.827 273.054 L364.543 271.869 L364.543 290.316 L369.062 289.519 L369.062 271.073 L376.083 269.835 Z M398.094 284.4 L406.948 260.395 L402.185 261.234 L395.927 278.864 L389.851 263.409 L385.058 264.254 L393.576 285.196 L398.094 284.4 Z M417.968 272.113 L410.977 273.346 L414.427 263.798 L417.968 272.113 Z M421.479 280.276 L426.089 279.464 L416.747 258.667 L412.107 259.485 L402.948 283.544 L407.619 282.72 L409.512 277.413 L419.495 275.653 L421.479 280.276 Z M437.476 258.915 C440.804 258.328 442.269 259.014 442.269 261.344 L442.269 261.532 C442.269 264.019 440.346 265.24 437.354 265.767 L432.286 266.661 L432.286 259.83 L437.476 258.915 Z M437.263 269.718 C440.651 269.121 441.812 269.892 441.812 272.819 L441.812 275.338 C441.812 275.873 441.934 276.449 442.3 276.605 L447.001 275.776 C446.605 275.594 446.482 275.081 446.482 274.577 L446.482 271.933 C446.482 268.439 445.292 266.98 442.727 266.709 C445.444 265.411 446.849 263.401 446.849 260.253 C446.849 255.814 444.132 253.838 437.537 255.001 L427.86 256.707 L427.86 279.151 L432.286 278.371 L432.286 270.596 L437.263 269.718 Z M461.106 266.364 L461.594 266.278 L468.585 256.263 L468.585 271.97 L472.859 271.217 L472.859 248.804 L468.86 249.509 L461.441 260.324 L454.206 252.062 L450.054 252.794 L450.054 275.238 L454.328 274.484 L454.328 258.871 L461.106 266.364 Z M486.322 269.378 C492.581 268.274 496.122 264.282 496.122 256.318 L496.122 244.671 L491.451 245.494 L491.451 256.984 C491.451 262.146 489.925 264.304 486.383 264.929 C482.842 265.553 481.163 263.898 481.163 258.798 L481.163 247.309 L476.523 248.127 L476.523 259.774 C476.523 267.738 479.82 270.524 486.322 269.378 Z M509.433 265.303 C515.691 264.199 519.232 260.207 519.232 252.243 L519.232 240.596 L514.561 241.419 L514.561 252.909 C514.561 258.071 513.035 260.229 509.494 260.854 C505.952 261.478 504.273 259.823 504.273 254.723 L504.273 243.234 L499.633 244.052 L499.633 255.699 C499.633 263.663 502.93 266.45 509.433 265.303 Z M539.992 240.933 L539.992 236.935 L521.735 240.155 L521.735 244.152 L528.452 242.968 L528.452 261.414 L532.97 260.618 L532.97 242.171 L539.992 240.933 Z M560.202 237.37 L560.202 233.372 L541.945 236.591 L541.945 240.589 L548.662 239.404 L548.662 257.851 L553.18 257.054 L553.18 238.608 L560.202 237.37 Z M571.467 245.047 L564.476 246.28 L567.925 236.732 L571.467 245.047 Z M574.978 253.21 L579.587 252.398 L570.246 231.601 L565.605 232.419 L556.447 256.478 L561.117 255.654 L563.01 250.347 L572.993 248.587 L574.978 253.21 Z M600.835 248.651 L609.689 224.646 L604.926 225.486 L598.668 243.115 L592.592 227.66 L587.799 228.506 L596.317 249.448 L600.835 248.651 Z M620.709 236.364 L613.718 237.597 L617.168 228.049 L620.709 236.364 Z M624.22 244.528 L628.83 243.715 L619.488 222.918 L614.848 223.736 L605.689 247.795 L610.36 246.972 L612.253 241.664 L622.236 239.904 L624.22 244.528 Z M647.178 240.48 L647.178 236.167 L635.119 238.293 L635.119 220.162 L630.601 220.959 L630.601 243.403 L647.178 240.48 Z M654.413 239.204 L654.413 216.76 L649.926 217.551 L649.926 239.995 L654.413 239.204 Z M662.748 222.058 L662.687 221.597 L663.083 222.314 L674.104 235.732 L678.287 234.994 L678.287 212.55 L674.043 213.299 L674.043 228.66 L674.104 229.31 L673.708 228.562 L662.839 215.274 L658.474 216.044 L658.474 238.488 L662.748 237.734 L662.748 222.058 Z M699.23 212.855 L699.23 208.857 L680.973 212.077 L680.973 216.074 L687.69 214.89 L687.69 233.336 L692.208 232.54 L692.208 214.093 L699.23 212.855 Z M710.495 220.533 L703.504 221.765 L706.954 212.217 L710.495 220.533 Z M714.006 228.696 L718.616 227.883 L709.274 207.086 L704.633 207.905 L695.475 231.964 L700.146 231.14 L702.038 225.833 L712.021 224.072 L714.006 228.696 Z M733.3 216.511 L726.309 217.744 L729.759 208.196 L733.3 216.511 Z M736.811 224.675 L741.421 223.862 L732.079 203.065 L727.439 203.883 L718.28 227.942 L722.951 227.119 L724.844 221.811 L734.827 220.051 L736.811 224.675 Z M747.466 207.12 L747.405 206.659 L747.802 207.376 L758.823 220.794 L763.005 220.056 L763.005 197.612 L758.762 198.36 L758.762 213.722 L758.823 214.372 L758.426 213.624 L747.557 200.336 L743.192 201.106 L743.192 223.55 L747.466 222.796 L747.466 207.12 Z M769.752 219.276 C771.767 218.92 772.744 217.898 772.744 215.789 C772.744 213.586 771.706 213.013 769.752 213.358 C767.798 213.702 766.76 214.641 766.76 216.844 C766.76 219.048 767.584 219.658 769.752 219.276 Z" fill="#002a53" fill-rule="nonzero"/>
    <path d="M63.2542 307.901 L73.512 306.092 L65.8492 293.688 L73.6036 283.412 L62.8573 285.307 L57.1179 293.213 L57.1179 286.319 L48.0813 287.912 L48.0813 310.577 L57.1179 308.983 L57.1179 303.065 L58.9802 300.533 L63.2542 307.901 Z M84.6853 304.689 C92.226 303.359 96.3474 299.138 96.3474 290.828 L96.3474 279.402 L86.9139 281.065 L86.9139 292.429 C86.9139 294.915 86.2117 295.858 84.7158 296.121 C83.2199 296.385 82.4872 295.664 82.4872 293.209 L82.4872 281.846 L73.0537 283.509 L73.0537 294.936 C73.0537 303.088 76.1677 306.191 84.6853 304.689 Z M110.91 284.011 C112.192 283.785 112.741 284.255 112.741 285.136 C112.741 286.017 112.07 286.734 110.91 286.938 L107.49 287.541 L107.49 284.614 L110.91 284.011 Z M109.872 293.826 C111.551 293.53 112.07 293.879 112.07 295.548 L112.07 297.783 C112.07 298.381 112.283 298.973 112.833 299.159 L122.358 297.48 C121.778 297.267 121.411 296.702 121.411 295.947 L121.411 294.026 C121.411 290.753 120.74 289.203 118.236 288.857 C120.648 287.362 121.839 285.295 121.839 282.524 C121.839 277.488 119.122 275.386 110.726 276.866 L98.6674 278.993 L98.6674 301.657 L107.49 300.101 L107.49 294.246 L109.872 293.826 Z M138.813 294.578 L149.071 292.769 L141.408 280.365 L149.162 270.089 L138.416 271.984 L132.677 279.89 L132.677 272.996 L123.64 274.589 L123.64 297.254 L132.677 295.66 L132.677 289.742 L134.539 287.21 L138.813 294.578 Z M159.572 290.918 L159.572 268.253 L150.291 269.89 L150.291 292.554 L159.572 290.918 Z M173.585 289.076 C181.919 287.607 185.491 283.672 185.491 278.887 C185.491 273.945 181.919 272.907 176.149 273.389 C171.601 273.782 170.654 273.76 170.654 273.099 C170.654 272.595 171.112 272.042 172.7 271.762 C174.44 271.455 175.508 271.771 175.783 272.698 L185.247 271.029 C183.965 265.463 179.996 263.928 172.974 265.166 C165.739 266.442 161.465 270.281 161.465 275.38 C161.465 279.976 164.762 281.22 170.593 280.696 C175.264 280.313 176.363 280.308 176.363 281.095 C176.363 281.661 175.783 282.078 174.348 282.331 C172.791 282.606 171.295 282.461 171.051 281.402 L171.051 281.37 L160.977 283.147 C161.587 288.233 164.609 290.659 173.585 289.076 Z M207.472 268.149 L207.472 259.807 L185.98 263.597 L185.98 271.939 L192.055 270.868 L192.055 285.19 L201.275 283.564 L201.275 269.242 L207.472 268.149 Z M220.844 280.68 C228.384 279.351 232.506 275.13 232.506 266.82 L232.506 255.393 L223.072 257.057 L223.072 268.42 C223.072 270.907 222.37 271.849 220.874 272.113 C219.378 272.377 218.646 271.656 218.646 269.201 L218.646 257.837 L209.212 259.501 L209.212 270.927 C209.212 279.08 212.326 282.182 220.844 280.68 Z M246.304 276.254 C254.639 274.784 258.211 270.849 258.211 266.065 C258.211 261.123 254.639 260.084 248.869 260.566 C244.32 260.959 243.374 260.937 243.374 260.276 C243.374 259.773 243.832 259.22 245.419 258.94 C247.159 258.633 248.228 258.948 248.502 259.876 L257.966 258.207 C256.684 252.641 252.715 251.106 245.694 252.344 C238.458 253.62 234.184 257.458 234.184 262.558 C234.184 267.153 237.481 268.398 243.313 267.873 C247.983 267.49 249.082 267.485 249.082 268.272 C249.082 268.839 248.502 269.256 247.068 269.509 C245.511 269.784 244.015 269.638 243.77 268.579 L243.77 268.548 L233.696 270.324 C234.306 275.411 237.329 277.837 246.304 276.254 Z M275.001 270.564 L285.259 268.756 L277.596 256.351 L285.351 246.075 L274.605 247.97 L268.865 255.876 L268.865 248.982 L259.828 250.575 L259.828 273.24 L268.865 271.646 L268.865 265.729 L270.727 263.197 L275.001 270.564 Z M296.433 267.352 C303.973 266.023 308.095 261.802 308.095 253.491 L308.095 242.065 L298.661 243.728 L298.661 255.092 C298.661 257.579 297.959 258.521 296.463 258.785 C294.967 259.048 294.234 258.328 294.234 255.872 L294.234 244.509 L284.801 246.172 L284.801 257.599 C284.801 265.752 287.915 268.854 296.433 267.352 Z M322.657 246.674 C323.939 246.448 324.489 246.918 324.489 247.799 C324.489 248.681 323.817 249.397 322.657 249.602 L319.238 250.205 L319.238 247.277 L322.657 246.674 Z M321.619 256.49 C323.298 256.193 323.817 256.543 323.817 258.211 L323.817 260.446 C323.817 261.044 324.031 261.636 324.58 261.822 L334.105 260.143 C333.525 259.93 333.159 259.365 333.159 258.61 L333.159 256.69 C333.159 253.416 332.487 251.866 329.984 251.521 C332.396 250.025 333.586 247.958 333.586 245.188 C333.586 240.151 330.869 238.049 322.474 239.529 L310.415 241.656 L310.415 264.32 L319.238 262.764 L319.238 256.909 L321.619 256.49 Z M347.171 258.469 C355.505 256.999 359.077 253.064 359.077 248.279 C359.077 243.337 355.505 242.299 349.735 242.781 C345.187 243.174 344.24 243.152 344.24 242.491 C344.24 241.987 344.698 241.434 346.286 241.154 C348.026 240.847 349.094 241.163 349.369 242.09 L358.833 240.421 C357.551 234.855 353.582 233.32 346.56 234.558 C339.325 235.834 335.051 239.673 335.051 244.772 C335.051 249.368 338.348 250.612 344.179 250.088 C348.85 249.705 349.949 249.7 349.949 250.487 C349.949 251.053 349.369 251.471 347.934 251.724 C346.377 251.998 344.881 251.853 344.637 250.794 L344.637 250.762 L334.562 252.539 C335.173 257.625 338.195 260.051 347.171 258.469 Z M372.479 254.006 C380.813 252.536 384.385 248.601 384.385 243.817 C384.385 238.875 380.813 237.836 375.043 238.318 C370.495 238.711 369.548 238.689 369.548 238.028 C369.548 237.525 370.006 236.972 371.594 236.692 C373.334 236.385 374.402 236.7 374.677 237.628 L384.141 235.959 C382.859 230.393 378.89 228.858 371.868 230.096 C364.633 231.372 360.359 235.21 360.359 240.31 C360.359 244.905 363.656 246.15 369.487 245.625 C374.158 245.242 375.257 245.237 375.257 246.024 C375.257 246.591 374.677 247.008 373.242 247.261 C371.685 247.536 370.189 247.39 369.945 246.331 L369.945 246.3 L359.87 248.076 C360.481 253.163 363.503 255.589 372.479 254.006 Z M395.345 249.345 L395.345 226.68 L386.064 228.317 L386.064 250.981 L395.345 249.345 Z M418.852 230.877 L418.852 222.535 L397.36 226.325 L397.36 234.667 L403.435 233.595 L403.435 247.918 L412.655 246.292 L412.655 231.97 L418.852 230.877 Z M418.791 251.884 C424.806 250.823 427.614 247.149 427.614 241.168 C427.614 236.729 426.485 235.512 422.76 236.169 C419.097 236.815 417.723 237.938 417.723 241.433 C417.723 245.115 418.73 245.504 421.875 244.95 C422.119 244.907 422.363 244.864 422.577 244.795 C422.272 246.737 421.173 247.498 418.791 248.012 L418.791 251.884 Z M454.204 238.966 L462.539 214.832 L452.922 216.528 L449.015 229.84 L445.107 217.906 L435.521 219.596 L443.641 240.829 L454.204 238.966 Z M471.3 221.786 L471.3 221.723 L471.331 221.812 L472.857 226.548 L469.774 227.092 L471.3 221.786 Z M475.605 235.193 L484.947 233.545 L476.643 212.345 L466.111 214.202 L457.623 238.363 L466.965 236.716 L467.82 233.732 L474.75 232.51 L475.605 235.193 Z M475.056 211.397 C477.62 210.945 478.414 210.081 478.414 207.595 C478.414 204.982 477.528 204.445 475.056 204.882 C472.583 205.318 471.789 206.15 471.789 208.763 C471.789 211.312 472.43 211.86 475.056 211.397 Z M467.423 212.743 C469.957 212.296 470.751 211.433 470.751 208.946 C470.751 206.333 469.866 205.797 467.423 206.227 C465.011 206.653 464.157 207.496 464.157 210.108 C464.157 212.658 464.767 213.212 467.423 212.743 Z M497.006 231.419 L497.006 222.605 L505.066 207.334 L495.48 209.024 L492.457 215.128 L489.466 210.084 L479.818 211.785 L487.695 224.31 L487.695 233.061 L497.006 231.419 Z M524.177 226.628 L524.177 217.814 L514.438 219.531 L514.438 205.681 L504.913 207.36 L504.913 230.025 L524.177 226.628 Z M538.067 210.014 L538.067 209.951 L538.098 210.04 L539.624 214.776 L536.54 215.319 L538.067 210.014 Z M542.372 223.42 L551.713 221.773 L543.41 200.572 L532.877 202.43 L524.39 226.59 L533.732 224.943 L534.587 221.959 L541.517 220.738 L542.372 223.42 Z M541.822 199.625 C544.387 199.173 545.18 198.309 545.18 195.822 C545.18 193.209 544.295 192.673 541.822 193.109 C539.349 193.545 538.555 194.377 538.555 196.99 C538.555 199.54 539.197 200.088 541.822 199.625 Z M534.19 200.971 C536.724 200.524 537.517 199.66 537.517 197.173 C537.517 194.56 536.632 194.024 534.19 194.455 C531.778 194.88 530.923 195.723 530.923 198.336 C530.923 200.885 531.534 201.439 534.19 200.971 Z M563.132 220.326 C570.856 218.964 575.74 214.42 575.74 206.55 L575.74 205.952 C575.74 198.555 570.672 195.199 563.284 196.501 C555.622 197.853 550.584 202.99 550.584 210.388 L550.584 210.986 C550.584 218.855 555.194 221.725 563.132 220.326 Z M563.162 212.168 C561.178 212.518 560.018 211.526 560.018 209.228 L560.018 208.819 C560.018 206.615 561.178 205.057 563.162 204.707 C565.116 204.363 566.276 205.48 566.276 207.715 L566.276 208.124 C566.276 210.422 565.116 211.823 563.162 212.168 Z M589.112 200.1 C590.882 199.788 591.554 200.236 591.554 201.495 C591.554 202.754 590.882 203.408 589.112 203.72 L586.272 204.221 L586.272 200.601 L589.112 200.1 Z M589.295 210.802 C596.988 209.445 600.499 205.836 600.499 199.855 C600.499 193.843 597.08 191.109 589.234 192.492 L577.572 194.549 L577.572 217.213 L586.272 215.679 L586.272 211.335 L589.295 210.802 Z M611.55 211.222 L611.55 188.557 L602.269 190.194 L602.269 212.858 L611.55 211.222 Z M630.387 207.9 L638.782 206.42 L638.782 183.756 L630.112 185.285 L630.112 195.358 L622.754 186.582 L614.115 188.105 L614.115 210.77 L622.816 209.235 L622.816 198.753 L630.387 207.9 Z M657.558 203.109 L665.953 201.629 L665.953 178.965 L657.283 180.494 L657.283 190.567 L649.925 181.791 L641.285 183.314 L641.285 205.979 L649.986 204.444 L649.986 193.962 L657.558 203.109 Z M680.363 199.655 C688.086 198.293 692.971 193.749 692.971 185.879 L692.971 185.281 C692.971 177.884 687.903 174.528 680.515 175.83 C672.853 177.182 667.815 182.319 667.815 189.717 L667.815 190.315 C667.815 198.184 672.425 201.054 680.363 199.655 Z M680.393 191.497 C678.409 191.847 677.249 190.855 677.249 188.557 L677.249 188.148 C677.249 185.944 678.409 184.386 680.393 184.036 C682.347 183.692 683.507 184.809 683.507 187.044 L683.507 187.453 C683.507 189.751 682.347 191.152 680.393 191.497 Z M715.44 178.581 L715.44 170.239 L693.948 174.029 L693.948 182.37 L700.023 181.299 L700.023 195.622 L709.243 193.996 L709.243 179.673 L715.44 178.581 Z M734.887 190.041 C742.153 188.76 745.969 184.75 745.969 176.786 L745.969 164.856 L736.658 166.498 L736.658 178.522 C736.658 180.946 736.108 181.673 734.887 181.888 C733.605 182.114 733.086 181.576 733.086 179.435 L733.086 178.176 L723.836 179.807 L723.836 181.192 C723.836 189.282 727.499 191.343 734.887 190.041 Z M758.944 171.067 L758.944 171.004 L758.974 171.093 L760.501 175.829 L757.417 176.373 L758.944 171.067 Z M763.248 184.473 L772.59 182.826 L764.286 161.626 L753.754 163.483 L745.267 187.644 L754.608 185.997 L755.463 183.013 L762.393 181.791 L763.248 184.473 Z" fill="#002a53" fill-rule="nonzero"/>
    <path d="M432.912 186.861 C446.675 184.434 455.069 175.313 455.069 157.769 L455.069 125.644 L436.542 128.911 L436.542 160.334 C436.542 166.883 435.861 168.641 432.912 169.161 C430.416 169.601 429.206 167.943 429.206 161.627 L429.206 130.204 L410.679 133.471 L410.679 165.596 C410.679 183.14 417.787 189.528 432.912 186.861 Z M492.048 175.264 L508.155 172.424 L508.155 116.283 L491.745 119.177 L491.745 145.454 L476.318 121.897 L459.757 124.817 L459.757 180.958 L476.167 178.064 L476.167 151.241 L492.048 175.264 Z M552.544 148.378 L530.538 152.259 L530.538 147.814 L551.636 144.094 L551.636 128.577 L530.538 132.298 L530.538 127.775 L552.317 123.935 L552.317 108.497 L513.145 115.404 L513.145 171.544 L552.544 164.597 L552.544 148.378 Z M594.589 157.183 L594.589 138.937 L575.079 142.378 L575.079 104.483 L556.703 107.723 L556.703 163.863 L594.589 157.183 Z M623.552 137.339 L625.669 136.966 L633.987 123.024 L633.987 150.236 L651.002 147.236 L651.002 91.0957 L635.273 93.8692 L624.762 112.019 L614.175 97.5894 L598.37 100.376 L598.37 156.516 L615.385 153.516 L615.385 126.304 L623.552 137.339 Z M682.309 120.195 L675.73 121.355 L678.981 108.618 L682.309 120.195 Z M688.283 140.662 L706.129 137.515 L687.98 84.5754 L670.134 87.7223 L652.211 147.023 L669.982 143.889 L671.873 136.46 L686.317 133.914 L688.283 140.662 Z M727.454 134.925 C742.502 132.272 750.065 124.077 750.065 111.679 C750.065 99.3592 740.536 97.7645 732.899 97.1619 C727.756 96.7431 723.521 96.7881 723.521 94.2929 C723.521 92.5775 724.505 91.0786 727.378 90.572 C730.327 90.0519 731.84 91.1108 731.84 94.2297 L731.84 94.3856 L749.308 91.3055 L749.308 91.0715 C749.308 78.518 741.368 73.7582 727.908 76.1317 C713.313 78.7052 705.524 87.252 705.524 98.4021 C705.524 110.488 714.674 111.915 722.236 112.453 C727.529 112.845 732.067 112.903 732.067 115.788 C732.067 117.659 730.932 118.951 728.059 119.458 C724.505 120.084 723.219 118.518 723.219 115.633 L723.219 115.087 L704.919 118.314 L704.919 118.47 C704.919 131.647 710.288 137.952 727.454 134.925 Z M771.011 126.075 L771.011 69.9349 L752.862 73.135 L752.862 129.275 L771.011 126.075 Z" fill="#002a53" fill-rule="nonzero"/>
    <path d="M439.417 88.2046 L440.118 78.1005 L440.742 87.9711 L442.066 93.5856 L438.015 94.2997 L439.417 88.2046 Z M446.817 114.19 L474.156 109.37 L457.722 56.1272 L422.437 62.3488 L405.769 121.428 L433.03 116.621 L434.043 112.154 L445.882 110.067 L446.817 114.19 Z M502.586 89.7758 L508.038 103.395 L539.428 97.8605 L525.018 69.2123 L523.928 68.079 L524.784 67.3041 L539.116 41.7752 L508.272 47.2139 L502.274 60.0453 L497.601 74.8264 L500.561 60.0355 L500.561 48.5736 L472.988 53.4354 L472.988 109.576 L500.561 104.714 L500.561 90.9906 L504.922 79.3053 L502.586 89.7758 Z M589.589 55.7214 L589.589 32.8754 L536.858 42.1734 L536.858 65.0194 L548.541 62.9592 L548.541 96.2535 L578.139 91.0345 L578.139 57.7403 L589.589 55.7214 Z M591.614 88.6587 L620.121 83.632 L620.121 27.4918 L591.614 32.5184 L591.614 88.6587 Z M667.945 75.1993 L683.913 16.2436 L656.028 21.1604 L652.29 38.7397 L651.511 56.031 L650.81 39.0006 L647.227 22.7124 L618.797 27.7253 L634.141 81.1599 L667.945 75.1993 Z M710.63 68.9985 C731.894 65.2491 742.175 55.327 742.175 36.5356 L742.175 31.9353 C742.175 13.9236 731.348 6.47593 711.253 10.0193 C690.768 13.6314 679.552 24.8878 679.552 42.9775 L679.552 47.4999 C679.552 66.4472 689.21 72.7754 710.63 68.9985 Z M710.863 45.7994 C708.916 46.1428 708.059 45.5141 708.059 43.3309 L708.059 36.7032 C708.059 34.598 708.916 33.5892 710.863 33.2459 C712.888 32.8888 713.745 33.5954 713.745 35.7006 L713.745 42.3283 C713.745 44.5115 712.811 45.4561 710.863 45.7994 Z M743.966 61.7948 L772.474 56.7682 L772.474 .62793 L743.966 5.65461 L743.966 61.7948 Z" fill="#002a53" fill-rule="nonzero"/>
    <path d="M336.308 111.648 L336.308 109.201 C336.308 104.309 338.209 101.352 343.395 100.438 C348.754 99.4931 351.001 101.543 351.001 107.834 L351.001 114.998 L383.671 109.237 L383.671 100.85 C383.671 77.9593 369.324 68.9564 344.087 73.4064 C317.121 78.1612 302.773 93.0974 302.773 115.988 L302.773 119.832 C302.773 141.849 318.503 146.589 332.159 149.773 C342.358 152.343 351.519 154.048 351.519 161.562 L351.519 166.28 C351.519 170.997 349.791 173.923 344.259 174.899 C337.864 176.026 335.962 173.042 335.962 167.45 L335.962 156.616 L301.563 162.682 L301.563 173.515 C301.563 198.328 312.108 209.574 343.222 204.088 C371.398 199.12 385.054 184.131 385.054 160.192 L385.054 152.503 C385.054 129.787 368.632 124.82 354.977 121.811 C344.951 119.385 336.308 118.113 336.308 111.648 Z M258.004 216.843 L291.884 210.869 L291.884 112.736 L258.004 118.71 L258.004 216.843 Z M212.37 224.889 L243.83 219.342 L243.83 93.5306 L214.963 98.6207 L194.047 146.343 L173.304 105.966 L144.437 111.056 L144.437 221.945 L141.612 222.443 L112.805 116.591 L79.7895 122.413 L47.6378 253.893 L80.8266 248.041 L83.9381 232.814 L108.83 228.425 L112.114 242.524 L175.897 231.32 L175.897 167.192 L191.627 194.647 L196.986 193.703 L212.37 160.935 L212.37 224.889 Z M102.953 202.202 L89.8153 204.519 L96.211 172.812 L102.953 202.202 Z" fill="#002a53" fill-rule="nonzero"/>
  </g>
  <g id="star-position" transform="translate(274.3303 76.7089)">
    <g id="rotating-star">
      <animateTransform attributeName="transform" type="rotate" from="0" to="360" dur="3s" repeatCount="indefinite"/>
      <path d="M55.2356 24.1214 L57.5514 7.03798 L42.5178 13.2697 L33.0709 .0182495 L25.982 15.733 L10.3063 14.0762 L15.3146 30.0685 L2.59264 40.9768 L16.7644 47.8786 L14.4486 64.962 L29.4821 58.7303 L38.929 71.9818 L46.018 56.267 L61.6937 57.9238 L56.6854 41.9315 L69.4074 31.0232 L55.2356 24.1214 Z" fill="#002a53" fill-rule="nonzero" transform="translate(-36 -36)"/>
    </g>
    <g id="rotating-star-static" display="none">
      <path d="M55.2356 24.1214 L57.5514 7.03798 L42.5178 13.2697 L33.0709 .0182495 L25.982 15.733 L10.3063 14.0762 L15.3146 30.0685 L2.59264 40.9768 L16.7644 47.8786 L14.4486 64.962 L29.4821 58.7303 L38.929 71.9818 L46.018 56.267 L61.6937 57.9238 L56.6854 41.9315 L69.4074 31.0232 L55.2356 24.1214 Z" fill="#002a53" fill-rule="nonzero" transform="translate(-36 -36)"/>
    </g>
  </g>
  <style>
    @media (prefers-reduced-motion: reduce) {
      #rotating-star { display: none; }
      #rotating-star-static { display: inline; }
    }
  </style>
</svg>
