<?xml version="1.0" encoding="UTF-8"?>
<svg xmlns="http://www.w3.org/2000/svg" xmlns:amisfits="https://amisfits.fi/metadata" viewBox="0 0 440 520" width="440" height="520" role="img" aria-labelledby="mobile-teema1-title mobile-teema1-desc">
  <title id="mobile-teema1-title">Amis antaa suunnan - mobiili teema 1</title>
  <desc id="mobile-teema1-desc">AMIS ANTAA SUUNNAN. Animated SVG. The star rotates once every 3 seconds around its own center.</desc>
  <metadata>
    <amisfits:text>AMIS ANTAA SUUNNAN</amisfits:text>
    <amisfits:animation>Star rotation, 360 degrees, 3 seconds, indefinite repeat.</amisfits:animation>
    <amisfits:source-crop>440x520</amisfits:source-crop>
  </metadata>
  <g id="logo-base">
    <path d="M54.8907 463.965 L54.8907 461.075 L40.0178 463.698 L40.0178 466.588 L45.4861 465.624 L45.4861 478.344 L49.1867 477.692 L49.1867 464.971 L54.8907 463.965 Z M64.8375 475.326 C70.1408 474.391 73.7707 471.211 73.7707 465.957 L73.7707 465.322 C73.7707 460.198 70.0465 458.052 64.8139 458.975 C59.6048 459.894 55.9279 463.41 55.9279 468.49 L55.9279 469.081 C55.9279 474.467 59.3691 476.291 64.8375 475.326 Z M64.8139 472.287 C61.4905 472.873 59.652 471.599 59.652 468.359 L59.652 467.921 C59.652 464.505 61.4905 462.583 64.8375 461.992 C68.1373 461.411 70.0465 462.585 70.0465 466.11 L70.0465 466.548 C70.0465 469.941 68.1373 471.701 64.8139 472.287 Z M76.858 472.813 L84.0941 471.537 C89.7511 470.539 93.1452 467.642 93.1452 462.497 L93.1452 461.905 C93.1452 456.651 89.6568 454.945 83.9056 455.959 L76.858 457.202 L76.858 472.813 Z M83.7406 458.878 C87.6769 458.184 89.4682 459.27 89.4682 462.619 L89.4682 462.992 C89.4682 466.32 87.724 467.963 83.9056 468.636 L80.4172 469.251 L80.4172 459.464 L83.7406 458.878 Z M110.893 463.877 L99.674 465.856 L99.674 462.374 L108.796 460.766 L108.796 457.898 L99.674 459.506 L99.674 456.025 L110.446 454.126 L110.446 451.279 L96.2091 453.79 L96.2091 469.401 L110.893 466.811 L110.893 463.877 Z M127.251 463.927 L127.251 460.774 L117.304 462.528 L117.304 450.07 L113.674 450.71 L113.674 466.321 L127.251 463.927 Z M143.632 461.039 L143.632 457.886 L133.685 459.64 L133.685 447.182 L130.056 447.822 L130.056 463.433 L143.632 461.039 Z M150.09 459.9 L150.09 444.289 L146.46 444.929 L146.46 460.54 L150.09 459.9 Z M157.35 447.475 L157.609 447.868 L166.707 456.97 L170.125 456.367 L170.125 440.756 L166.684 441.363 L166.684 452.179 L166.707 452.35 L166.448 451.98 L157.444 442.992 L153.909 443.616 L153.909 459.227 L157.35 458.62 L157.35 447.475 Z M188.604 450.175 L177.385 452.153 L177.385 448.672 L186.507 447.064 L186.507 444.195 L177.385 445.804 L177.385 442.322 L188.156 440.423 L188.156 437.577 L173.92 440.087 L173.92 455.698 L188.604 453.109 L188.604 450.175 Z M194.827 440.867 L195.086 441.259 L204.184 450.362 L207.602 449.759 L207.602 434.148 L204.16 434.755 L204.16 445.571 L204.184 445.742 L203.925 445.372 L194.921 436.384 L191.385 437.007 L191.385 452.618 L194.827 452.012 L194.827 440.867 Z M228.39 446.093 L235.862 444.776 L230.229 436.179 L235.909 429.003 L228.084 430.383 L223.888 435.874 L223.888 431.123 L217.312 432.283 L217.312 448.047 L223.888 446.887 L223.888 442.793 L225.279 440.993 L228.39 446.093 Z M244.041 443.334 L244.041 427.57 L237.276 428.762 L237.276 444.527 L244.041 443.334 Z M260.54 440.425 L260.54 434.557 L253.398 435.816 L253.398 425.92 L246.445 427.146 L246.445 442.91 L260.54 440.425 Z M270.84 427.88 C272.137 427.651 272.679 427.95 272.679 428.848 C272.679 429.767 272.113 430.239 270.864 430.459 L268.837 430.817 L268.837 428.233 L270.84 427.88 Z M271.005 435.229 C276.662 434.232 279.255 431.673 279.255 427.666 C279.255 423.637 276.709 421.809 270.958 422.823 L262.449 424.324 L262.449 440.088 L268.837 438.962 L268.837 435.612 L271.005 435.229 Z M289.225 429.083 L286.916 429.49 L288.07 425.783 L289.225 429.083 Z M291.276 435.005 L298.088 433.804 L291.865 419.137 L284.37 420.459 L278.053 437.337 L284.865 436.135 L285.501 434.053 L290.64 433.147 L291.276 435.005 Z M305.678 432.466 L305.678 416.701 L298.913 417.894 L298.913 433.658 L305.678 432.466 Z M322.176 429.556 L322.176 423.689 L315.035 424.948 L315.035 415.051 L308.081 416.278 L308.081 432.042 L322.176 429.556 Z M332.194 428.162 C337.615 427.206 340.679 424.301 340.679 418.74 L340.679 410.53 L333.773 411.747 L333.773 419.892 C333.773 421.644 333.302 422.274 332.218 422.466 C331.133 422.657 330.615 422.157 330.615 420.449 L330.615 412.304 L323.709 413.522 L323.709 421.733 C323.709 427.228 326.066 429.243 332.194 428.162 Z M357.886 418.268 L349.282 419.785 L349.282 418.581 L357.391 417.151 L357.391 413.516 L349.282 414.946 L349.282 413.786 L357.721 412.298 L357.721 407.525 L342.895 410.139 L342.895 425.903 L357.886 423.26 L357.886 418.268 Z M375.257 409.994 L375.257 404.433 L359.512 407.209 L359.512 412.77 L364.014 411.976 L364.014 422.179 L370.731 420.995 L370.731 410.792 L375.257 409.994 Z M385.533 418.757 C390.954 417.801 394.019 414.896 394.019 409.335 L394.019 401.124 L387.112 402.342 L387.112 410.487 C387.112 412.239 386.641 412.869 385.557 413.06 C384.473 413.252 383.954 412.752 383.954 411.044 L383.954 402.899 L377.048 404.117 L377.048 412.327 C377.048 417.823 379.405 419.838 385.533 418.757 Z M399.581 416.193 C402.316 415.71 403.211 415.027 403.211 412.531 C403.211 409.969 402.245 409.658 399.581 410.128 C396.871 410.606 395.928 411.254 395.928 413.815 C395.928 416.377 396.659 416.708 399.581 416.193 Z" fill="#002a53" fill-rule="nonzero"/>
    <path d="M46.7118 453.642 C51.308 452.831 53.8536 450.127 53.8536 445.42 L53.8536 436.378 L50.0824 437.042 L50.0824 445.997 C50.0824 448.953 49.0688 450.117 46.7118 450.533 C44.2605 450.965 43.5062 449.938 43.4591 447.888 L43.4591 447.625 L39.6878 448.29 L39.6878 448.575 C39.7349 452.661 41.9741 454.477 46.7118 453.642 Z M67.0297 443.469 L61.3728 444.466 L64.1541 437.889 L67.0297 443.469 Z M69.9524 449.15 L73.7472 448.481 L66.0633 434.225 L62.2684 434.894 L54.7259 451.835 L58.5443 451.161 L60.1235 447.445 L68.326 445.999 L69.9524 449.15 Z M96.7281 434.226 L96.7281 428.664 L80.9831 431.441 L80.9831 437.002 L85.485 436.208 L85.485 446.411 L92.2026 445.227 L92.2026 435.024 L96.7281 434.226 Z M109.951 442.097 L109.951 435.988 L115.843 425.294 L108.866 426.524 L106.58 430.89 L104.364 427.318 L97.3639 428.552 L103.115 437.259 L103.115 443.302 L109.951 442.097 Z M124.069 439.98 C129.608 439.003 133.191 435.897 133.191 430.555 L133.191 429.745 C133.191 424.643 129.491 422.515 124.164 423.454 C118.625 424.431 114.948 427.86 114.948 432.962 L114.948 433.772 C114.948 439.114 118.318 440.994 124.069 439.98 Z M124.069 434.594 C122.632 434.847 121.854 434.13 121.854 432.445 L121.854 431.853 C121.854 430.211 122.632 429.133 124.069 428.879 C125.507 428.626 126.285 429.386 126.285 431.072 L126.285 431.663 C126.285 433.371 125.507 434.34 124.069 434.594 Z M126.921 422.202 C128.783 421.874 129.373 421.266 129.373 419.602 C129.373 417.85 128.736 417.503 126.921 417.823 C125.083 418.147 124.494 418.711 124.494 420.462 C124.494 422.17 124.965 422.547 126.921 422.202 Z M121.264 423.199 C123.127 422.871 123.739 422.259 123.739 420.595 C123.739 418.844 123.079 418.5 121.264 418.82 C119.497 419.132 118.86 419.704 118.86 421.456 C118.86 423.163 119.308 423.544 121.264 423.199 Z M150.303 429.99 L141.7 431.507 L141.7 430.303 L149.808 428.873 L149.808 425.238 L141.7 426.668 L141.7 425.508 L150.138 424.02 L150.138 419.247 L135.312 421.861 L135.312 437.625 L150.303 434.982 L150.303 429.99 Z M166.614 432.106 L166.614 426.238 L159.472 427.497 L159.472 417.601 L152.519 418.827 L152.519 434.591 L166.614 432.106 Z M178.705 423.69 L176.395 424.097 L177.55 420.39 L178.705 423.69 Z M180.756 429.612 L187.568 428.411 L181.345 413.744 L173.85 415.066 L167.533 431.944 L174.345 430.743 L174.981 428.66 L180.119 427.754 L180.756 429.612 Z M180.331 413.025 C182.194 412.697 182.783 412.089 182.783 410.425 C182.783 408.674 182.146 408.326 180.331 408.646 C178.493 408.97 177.904 409.534 177.904 411.286 C177.904 412.993 178.375 413.37 180.331 413.025 Z M174.675 414.023 C176.537 413.694 177.149 413.083 177.149 411.419 C177.149 409.667 176.489 409.324 174.675 409.644 C172.907 409.955 172.27 410.527 172.27 412.279 C172.27 413.987 172.718 414.368 174.675 414.023 Z M197.938 422.838 L198.481 422.743 L201.427 418.83 L201.427 425.967 L207.932 424.82 L207.932 409.056 L202.016 410.099 L198.316 415.35 L194.544 411.417 L188.581 412.468 L188.581 428.232 L195.11 427.081 L195.11 419.987 L197.938 422.838 Z M220.142 416.384 L217.832 416.791 L218.987 413.084 L220.142 416.384 Z M222.192 422.306 L229.004 421.105 L222.781 406.438 L215.286 407.759 L208.969 424.637 L215.781 423.436 L216.417 421.354 L221.556 420.448 L222.192 422.306 Z M221.768 405.719 C223.63 405.39 224.219 404.783 224.219 403.119 C224.219 401.367 223.583 401.02 221.768 401.34 C219.929 401.664 219.34 402.228 219.34 403.979 C219.34 405.687 219.812 406.064 221.768 405.719 Z M216.111 406.716 C217.973 406.388 218.586 405.776 218.586 404.112 C218.586 402.361 217.926 402.017 216.111 402.337 C214.343 402.649 213.707 403.221 213.707 404.973 C213.707 406.68 214.155 407.061 216.111 406.716 Z M242.84 408.462 L242.84 402.901 L227.095 405.677 L227.095 411.238 L231.597 410.445 L231.597 420.648 L238.315 419.463 L238.315 409.26 L242.84 408.462 Z M252.009 410.765 L249.699 411.172 L250.854 407.465 L252.009 410.765 Z M254.06 416.687 L260.871 415.486 L254.649 400.819 L247.153 402.14 L240.837 419.018 L247.648 417.817 L248.285 415.735 L253.423 414.829 L254.06 416.687 Z M268.697 414.106 L268.697 398.342 L261.932 399.534 L261.932 415.299 L268.697 414.106 Z M271.336 413.64 L279.633 412.178 C284.866 411.255 288.543 408.198 288.543 403.118 L288.543 402.33 C288.543 397.251 284.936 395.478 279.61 396.417 L271.336 397.876 L271.336 413.64 Z M279.209 401.611 C280.929 401.308 281.66 401.902 281.66 403.719 L281.66 404.091 C281.66 405.799 280.906 406.742 279.209 407.041 L277.96 407.262 L277.96 401.832 L279.209 401.611 Z M299.526 409.042 C305.065 408.065 308.648 404.96 308.648 399.617 L308.648 398.807 C308.648 393.706 304.947 391.577 299.62 392.517 C294.081 393.493 290.404 396.922 290.404 402.024 L290.404 402.834 C290.404 408.176 293.775 410.056 299.526 409.042 Z M299.526 403.656 C298.088 403.909 297.31 403.193 297.31 401.507 L297.31 400.916 C297.31 399.274 298.088 398.195 299.526 397.941 C300.964 397.688 301.742 398.448 301.742 400.134 L301.742 400.725 C301.742 402.433 300.964 403.402 299.526 403.656 Z M325.807 393.833 L325.807 388.272 L310.062 391.048 L310.062 396.609 L314.564 395.815 L314.564 406.018 L321.282 404.834 L321.282 394.631 L325.807 393.833 Z M343.744 401.267 C349.047 400.332 352.677 397.152 352.677 391.897 L352.677 391.263 C352.677 386.139 348.953 383.993 343.72 384.916 C338.511 385.834 334.834 389.351 334.834 394.431 L334.834 395.022 C334.834 400.408 338.275 402.231 343.744 401.267 Z M343.72 398.228 C340.397 398.814 338.558 397.54 338.558 394.299 L338.558 393.862 C338.558 390.446 340.397 388.523 343.744 387.933 C347.043 387.351 348.953 388.525 348.953 392.051 L348.953 392.488 C348.953 395.882 347.043 397.642 343.72 398.228 Z M363.849 397.328 L371.132 380.433 L367.267 381.114 L362.105 393.541 L357.202 382.889 L353.313 383.575 L360.172 397.976 L363.849 397.328 Z M380.631 388.173 L374.974 389.17 L377.756 382.593 L380.631 388.173 Z M383.554 393.853 L387.349 393.184 L379.665 378.928 L375.87 379.597 L368.328 396.538 L372.146 395.865 L373.725 392.149 L381.928 390.703 L383.554 393.853 Z M399.841 378.261 L399.841 375.371 L384.968 377.993 L384.968 380.883 L390.437 379.919 L390.437 392.64 L394.137 391.987 L394.137 379.266 L399.841 378.261 Z" fill="#002a53" fill-rule="nonzero"/>
    <path d="M53.1087 427.239 L61.7778 425.711 L55.4042 417.267 L61.8754 409.929 L52.7668 411.535 L47.9317 417.249 L47.9317 412.388 L40.3127 413.731 L40.3127 429.496 L47.9317 428.152 L47.9317 424.036 L49.4946 422.206 L53.1087 427.239 Z M72.3272 414.392 L72.4981 413.639 L72.6691 414.354 L73.7435 417.164 L71.2283 417.607 L72.3272 414.392 Z M76.039 423.196 L83.9266 421.805 L77.0891 407.247 L68.0049 408.848 L60.972 425.853 L68.884 424.458 L69.5922 422.362 L75.3308 421.35 L76.039 423.196 Z M69.2503 407.841 C71.3504 407.47 72.0342 406.824 72.0342 405.029 C72.0342 403.146 71.2771 402.776 69.2503 403.133 C67.2235 403.491 66.5153 404.119 66.5153 406.002 C66.5153 407.841 67.0281 408.233 69.2503 407.841 Z M75.6239 406.717 C77.7484 406.342 78.4077 405.701 78.4077 403.905 C78.4077 402.022 77.6751 401.648 75.6239 402.009 C73.5482 402.375 72.8889 402.995 72.8889 404.878 C72.8889 406.717 73.4261 407.104 75.6239 406.717 Z M95.0131 419.851 L95.0131 413.698 L101.802 402.889 L93.6945 404.319 L91.2037 408.568 L88.7373 405.193 L80.581 406.631 L87.1988 415.098 L87.1988 421.228 L95.0131 419.851 Z M120.531 405.652 L120.531 399.587 L102.461 402.773 L102.461 408.838 L107.54 407.942 L107.54 417.642 L115.354 416.264 L115.354 406.564 L120.531 405.652 Z M129.835 404.252 L130.006 403.499 L130.177 404.213 L131.252 407.024 L128.737 407.467 L129.835 404.252 Z M133.547 413.056 L141.435 411.665 L134.597 397.106 L125.513 398.708 L118.48 415.713 L126.392 414.318 L127.1 412.222 L132.839 411.21 L133.547 413.056 Z M126.759 397.7 C128.859 397.33 129.542 396.684 129.542 394.889 C129.542 393.006 128.785 392.636 126.759 392.993 C124.732 393.35 124.024 393.979 124.024 395.862 C124.024 397.701 124.536 398.092 126.759 397.7 Z M133.132 396.577 C135.257 396.202 135.916 395.56 135.916 393.765 C135.916 391.882 135.183 391.508 133.132 391.869 C131.056 392.235 130.397 392.855 130.397 394.738 C130.397 396.577 130.934 396.964 133.132 396.577 Z M156.257 409.051 L163.339 407.803 L163.339 392.038 L155.989 393.335 L155.989 400.341 L149.884 394.411 L142.582 395.699 L142.582 411.463 L149.957 410.162 L149.957 402.828 L156.257 409.051 Z M180.042 404.858 L187.124 403.609 L187.124 387.845 L179.773 389.141 L179.773 396.147 L173.668 390.217 L166.367 391.505 L166.367 407.269 L173.742 405.969 L173.742 398.634 L180.042 404.858 Z M200.261 401.708 C206.879 400.541 210.933 397.177 210.933 391.572 C210.933 386.361 206.708 383.975 200.408 385.086 C193.888 386.236 189.59 390.125 189.59 395.336 C189.59 400.941 193.522 402.897 200.261 401.708 Z M200.261 395.775 C198.601 396.068 197.526 395.425 197.526 393.936 C197.526 392.513 198.601 391.382 200.261 391.089 C201.922 390.797 202.996 391.549 202.996 392.972 C202.996 394.461 201.922 395.482 200.261 395.775 Z M197.136 385.116 C199.236 384.746 199.92 384.1 199.92 382.304 C199.92 380.421 199.163 380.051 197.136 380.408 C195.109 380.766 194.401 381.394 194.401 383.277 C194.401 385.116 194.913 385.508 197.136 385.116 Z M203.509 383.992 C205.634 383.617 206.293 382.976 206.293 381.18 C206.293 379.297 205.561 378.923 203.509 379.285 C201.434 379.651 200.774 380.271 200.774 382.153 C200.774 383.993 201.311 384.38 203.509 383.992 Z M227.074 396.565 L234.156 395.316 L234.156 379.552 L226.805 380.848 L226.805 387.854 L220.7 381.924 L213.399 383.212 L213.399 398.976 L220.774 397.676 L220.774 390.341 L227.074 396.565 Z M256.793 391.324 L265.462 389.796 L259.088 381.352 L265.559 374.014 L256.451 375.62 L251.616 381.334 L251.616 376.473 L243.997 377.816 L243.997 393.581 L251.616 392.237 L251.616 388.121 L253.179 386.291 L256.793 391.324 Z M275.449 388.451 C282.067 387.284 286.121 383.92 286.121 378.315 C286.121 373.104 281.896 370.718 275.596 371.829 C269.076 372.978 264.778 376.867 264.778 382.078 C264.778 387.683 268.71 389.639 275.449 388.451 Z M275.449 382.517 C273.789 382.81 272.714 382.167 272.714 380.679 C272.714 379.255 273.789 378.125 275.449 377.832 C277.11 377.539 278.184 378.291 278.184 379.714 C278.184 381.203 277.11 382.224 275.449 382.517 Z M301.383 383.462 L310.052 381.933 L303.678 373.489 L310.15 366.152 L301.041 367.758 L296.206 373.471 L296.206 368.611 L288.587 369.954 L288.587 385.718 L296.206 384.375 L296.206 380.259 L297.769 378.428 L301.383 383.462 Z M329.343 373.233 L319.234 375.016 L319.234 373.855 L328.684 372.189 L328.684 369.036 L319.234 370.703 L319.234 369.63 L329.124 367.886 L329.124 362.806 L311.956 365.833 L311.956 381.598 L329.343 378.532 L329.343 373.233 Z M342.652 372.704 L343.165 372.613 L346.437 368.665 L346.437 375.518 L354.007 374.183 L354.007 358.419 L347.194 359.62 L343.067 364.989 L338.818 361.097 L331.932 362.311 L331.932 378.075 L339.526 376.736 L339.526 369.927 L342.652 372.704 Z M366.705 372.36 C373.128 371.227 376.596 368.098 376.596 362.121 L376.596 354.436 L368.659 355.835 L368.659 363.52 C368.659 365.206 368 365.935 366.754 366.155 C365.436 366.387 364.801 365.886 364.801 364.2 L364.801 356.515 L356.864 357.915 L356.864 365.6 C356.864 371.446 359.404 373.647 366.705 372.36 Z M389.293 368.421 C396.424 367.163 399.379 364.256 399.379 360.972 C399.379 357.534 396.57 356.803 391.418 357.383 C387.291 357.848 386.68 357.846 386.68 357.452 C386.68 357.124 387.071 356.749 388.414 356.512 C389.928 356.245 390.856 356.41 391.125 356.997 L399.183 355.576 C397.914 351.662 394.592 350.737 388.658 351.783 C382.602 352.851 378.939 355.664 378.939 359.321 C378.939 362.474 381.503 363.379 386.729 362.786 C390.954 362.326 391.687 362.306 391.687 362.788 C391.687 363.138 391.223 363.417 390.002 363.632 C388.732 363.856 387.34 363.861 387.096 363.159 L378.5 364.675 C379.11 368.158 381.699 369.76 389.293 368.421 Z" fill="#002a53" fill-rule="nonzero"/>
    <path d="M400 465.461 L400 429.146 L280 450.273 L280 486.588 L400 465.461 Z M379.957 446.521 C380.126 446.611 381.041 446.518 381.567 446.425 C382.092 446.332 382.973 446.091 383.159 445.939 L383.159 455.803 L379.957 456.368 L379.957 446.521 Z M344.764 452.726 C344.934 452.816 345.849 452.723 346.374 452.63 C346.899 452.538 347.78 452.297 347.967 452.144 L347.967 462.009 L344.764 462.573 L344.764 452.726 Z M322.737 456.61 C322.906 456.7 323.821 456.607 324.347 456.514 C324.872 456.422 325.753 456.181 325.94 456.028 L325.94 465.893 L322.737 466.457 L322.737 456.61 Z M304.708 469.636 L302.166 470.084 L301.827 468.486 C301.268 469.696 300.201 470.687 298.371 471.01 C296.236 471.387 295.202 470.543 295.202 468.902 C295.202 467.705 295.693 466.849 296.49 466.213 C297.269 465.58 297.981 465.318 299.574 464.78 C301.065 464.312 301.675 464.034 301.675 463.401 C301.675 462.837 301.336 462.504 300.285 462.689 C299.201 462.88 298.676 463.486 298.642 464.415 L295.507 464.967 C295.66 462.633 297.218 460.836 300.285 460.295 C303.539 459.722 304.708 461.02 304.708 463.311 L304.708 469.636 Z M321.178 466.732 L318.094 467.276 L318.094 461.839 C318.094 460.643 317.789 459.893 316.705 460.084 C315.637 460.272 315.298 461.153 315.298 462.367 L315.298 467.769 L312.215 468.313 L312.215 462.842 C312.215 461.714 311.943 460.924 310.859 461.115 C309.791 461.303 309.402 462.244 309.402 463.56 L309.402 468.809 L306.301 469.355 L306.301 459.44 L308.893 458.983 L309.164 460.491 C309.673 459.324 310.656 458.467 312.045 458.222 C313.553 457.956 314.502 458.438 314.96 459.52 C315.468 458.319 316.451 457.445 317.891 457.191 C320.06 456.809 321.178 457.979 321.178 460.373 L321.178 466.732 Z M326.194 453.829 C326.194 454.958 325.601 455.473 324.347 455.694 C322.991 455.933 322.5 455.643 322.5 454.481 C322.5 453.318 323.11 452.818 324.347 452.599 C325.567 452.384 326.194 452.667 326.194 453.829 Z M330.311 458.078 C330.311 458.694 331.141 458.65 332.599 458.581 C334.293 458.504 336.326 458.573 336.326 460.881 C336.326 462.864 334.835 464.598 331.785 465.135 C328.854 465.652 327.261 464.634 326.939 462.4 L330.125 461.838 C330.328 462.64 330.938 462.908 331.938 462.732 C332.904 462.562 333.327 462.162 333.327 461.615 C333.327 460.931 332.26 461.034 331.04 461.095 C329.345 461.172 327.346 461.148 327.346 458.789 C327.346 456.857 328.854 455.241 331.633 454.751 C334.581 454.231 335.903 455.331 336.208 457.261 L333.175 457.796 C333.039 457.136 332.531 456.849 331.599 457.014 C330.65 457.181 330.311 457.6 330.311 458.078 Z M343.494 451.907 L342.528 452.078 C341.579 452.245 341.393 452.517 341.393 453.68 L341.393 453.834 L343.477 453.466 L343.477 456.167 L341.393 456.535 L341.376 463.171 L338.41 463.694 L338.41 457.06 L336.851 457.335 L336.851 454.634 L338.41 454.359 L338.41 453.795 C338.41 451.265 339.495 450.082 342.07 449.628 L343.494 449.377 L343.494 451.907 Z M348.221 449.945 C348.221 451.074 347.628 451.589 346.374 451.81 C345.018 452.049 344.527 451.759 344.527 450.597 C344.527 449.434 345.137 448.933 346.374 448.715 C347.594 448.5 348.221 448.783 348.221 449.945 Z M356.032 460.586 L354.473 460.861 C351.508 461.384 350.779 460.436 350.779 457.341 L350.779 454.35 L349.119 454.642 L349.119 452.061 C349.491 451.995 349.746 451.916 350.084 451.788 C350.711 451.592 350.949 451.277 351.05 450.421 C351.101 450.002 351.135 449.466 351.152 449.053 L353.694 448.604 L353.694 451.083 L356.032 450.671 L356.032 453.423 L353.694 453.836 L353.694 456.212 C353.694 457.922 353.948 458.065 355.405 457.808 L356.032 457.697 L356.032 460.586 Z M360.048 452.835 C360.048 453.45 360.878 453.407 362.335 453.338 C364.03 453.261 366.063 453.33 366.063 455.638 C366.063 457.621 364.572 459.354 361.522 459.892 C358.59 460.409 356.998 459.391 356.676 457.156 L359.861 456.595 C360.065 457.397 360.675 457.665 361.674 457.489 C362.64 457.318 363.064 456.919 363.064 456.372 C363.064 455.688 361.996 455.791 360.776 455.852 C359.082 455.929 357.082 455.905 357.082 453.546 C357.082 451.614 358.59 449.998 361.369 449.508 C364.318 448.988 365.639 450.088 365.944 452.017 L362.911 452.552 C362.776 451.892 362.267 451.606 361.335 451.77 C360.387 451.938 360.048 452.356 360.048 452.835 Z M371.044 456.315 C371.044 457.734 370.519 458.237 369.18 458.473 C367.757 458.724 367.333 458.44 367.333 456.97 C367.333 455.516 367.859 455.065 369.18 454.832 C370.502 454.599 371.044 454.862 371.044 456.315 Z M378.686 445.702 L377.72 445.872 C376.772 446.04 376.585 446.312 376.585 447.474 L376.585 447.628 L378.669 447.261 L378.669 449.962 L376.585 450.329 L376.568 456.965 L373.603 457.488 L373.603 450.855 L372.044 451.13 L372.044 448.429 L373.603 448.154 L373.603 447.59 C373.603 445.06 374.687 443.877 377.263 443.423 L378.686 443.172 L378.686 445.702 Z M383.414 443.74 C383.414 444.868 382.82 445.383 381.567 445.604 C380.211 445.843 379.72 445.554 379.72 444.391 C379.72 443.229 380.33 442.728 381.567 442.51 C382.787 442.295 383.414 442.577 383.414 443.74 Z M301.692 466.185 L301.692 465.586 C301.404 465.86 300.963 466.057 300.37 466.281 C299.523 466.584 299.201 466.727 298.896 466.986 C298.625 467.238 298.489 467.502 298.489 467.844 C298.489 468.425 298.879 468.647 299.625 468.515 C300.862 468.297 301.692 467.159 301.692 466.185 Z" fill="#002a53" fill-rule="nonzero"/>
    <path d="M363.566 485.81 C363.996 485.734 364.354 485.602 364.64 485.414 C364.925 485.225 365.14 484.988 365.284 484.704 C365.429 484.42 365.501 484.101 365.501 483.747 C365.501 483.357 365.394 483.049 365.181 482.824 C364.967 482.598 364.679 482.483 364.315 482.479 C364.569 482.36 364.772 482.163 364.925 481.889 C365.078 481.615 365.155 481.321 365.155 481.005 C365.155 480.512 364.995 480.169 364.676 479.979 C364.357 479.788 363.934 479.739 363.406 479.832 L361.684 480.136 L361.684 486.142 L363.566 485.81 Z M362.432 483.19 L363.532 482.996 C363.907 482.93 364.202 482.966 364.419 483.103 C364.635 483.24 364.743 483.485 364.743 483.836 C364.743 484.127 364.689 484.364 364.579 484.547 C364.469 484.73 364.323 484.871 364.14 484.968 C363.956 485.066 363.755 485.134 363.536 485.173 L362.432 485.368 L362.432 483.19 Z M362.432 480.638 L363.38 480.47 C363.706 480.413 363.959 480.447 364.138 480.571 C364.316 480.696 364.406 480.911 364.406 481.218 C364.406 481.524 364.317 481.784 364.14 481.997 C363.962 482.209 363.709 482.345 363.38 482.403 L362.432 482.57 L362.432 480.638 Z M368.997 484.853 L368.997 482.448 L370.801 478.528 L369.983 478.672 L368.62 481.822 L367.253 479.154 L366.435 479.298 L368.235 482.582 L368.235 484.987 L368.997 484.853 Z M378.313 483.21 L378.313 482.572 L375.686 483.035 L375.686 480.893 L378.105 480.467 L378.105 479.842 L375.686 480.269 L375.686 478.305 L378.313 477.842 L378.313 477.204 L374.937 477.799 L374.937 483.805 L378.313 483.21 Z M381.913 482.575 L381.913 477.212 L383.393 476.951 L383.393 476.308 L379.671 476.964 L379.671 477.607 L381.16 477.344 L381.16 482.708 L381.913 482.575 Z M388.434 481.425 L388.434 480.787 L385.807 481.251 L385.807 479.109 L388.226 478.682 L388.226 478.057 L385.807 478.484 L385.807 476.521 L388.434 476.057 L388.434 475.419 L385.058 476.014 L385.058 482.021 L388.434 481.425 Z M391.207 480.936 L391.207 477.853 L393.47 480.537 L394.366 480.379 L392.025 477.62 L394.193 474.404 L393.345 474.553 L391.207 477.822 L391.207 474.93 L390.458 475.062 L390.458 481.068 L391.207 480.936 Z M396.057 480.081 L396.581 478.275 L398.702 477.901 L399.204 479.526 L399.983 479.389 L398.04 473.725 L397.248 473.865 L395.283 480.218 L396.057 480.081 Z M397.641 474.55 L398.511 477.283 L396.772 477.59 L397.641 474.55 Z" fill="#002a53" fill-rule="nonzero"/>
    <path d="M96.194 186.557 L82.3756 188.994 L89.103 155 L96.194 186.557 Z M105.831 229.852 L140.922 223.664 L106.558 94.7425 L71.83 100.866 L38.0114 241.81 L72.921 235.655 L76.1937 219.33 L102.376 214.713 L105.831 229.852 Z M197.83 177.26 L203.466 176.266 L219.648 141.167 L219.648 209.783 L252.74 203.948 L252.74 68.9667 L222.375 74.3207 L200.375 125.443 L178.557 82.0472 L148.193 87.4012 L148.193 222.382 L181.284 216.547 L181.284 147.745 L197.83 177.26 Z M303.285 195.035 L303.285 89.75 L267.649 96.0337 L267.649 201.319 L303.285 195.035 Z M357.285 187.951 C386.922 182.725 401.286 166.694 401.286 141.01 L401.286 132.761 C401.286 108.39 384.013 102.999 369.649 99.7203 C359.103 97.0804 350.012 95.6838 350.012 88.7473 L350.012 86.1227 C350.012 80.8734 352.012 77.7086 357.467 76.7468 C363.103 75.753 365.467 77.9608 365.467 84.7099 L365.467 92.3963 L399.831 86.337 L399.831 77.3382 C399.831 52.7792 384.74 43.0669 358.194 47.7476 C329.83 52.749 314.739 68.7206 314.739 93.2797 L314.739 97.4041 C314.739 121.026 331.285 126.17 345.648 129.636 C356.376 132.431 366.012 134.294 366.012 142.356 L366.012 147.417 C366.012 152.479 364.194 155.612 358.376 156.638 C351.649 157.824 349.649 154.615 349.649 148.616 L349.649 136.992 L313.466 143.372 L313.466 154.995 C313.466 181.617 324.557 193.722 357.285 187.951 Z" fill="#002a53" fill-rule="nonzero"/>
    <path d="M431.027 324.827 C390.676 331.899 279.021 351.544 176.372 369.607 C125.047 378.638 75.9748 387.274 39.1936 393.745 C2.41818 400.216 -22.0888 404.525 -24.2228 404.893 C-26.3999 405.268 -27.8604 407.337 -27.4851 409.514 C-27.1098 411.691 -25.0407 413.152 -22.8637 412.777 C-20.6797 412.4 3.79309 408.097 40.5799 401.625 C150.923 382.211 371.89 343.313 432.408 332.707 C434.584 332.325 436.039 330.252 435.658 328.076 C435.276 325.9 433.203 324.445 431.027 324.827 Z" fill="#002a53" fill-rule="nonzero"/>
    <path d="M416.328 323.551 L425.931 329.781 L419.02 338.905 C417.686 340.666 418.032 343.175 419.793 344.509 C421.554 345.843 424.063 345.497 425.397 343.736 L437.504 327.752 L420.682 316.839 C418.829 315.637 416.352 316.165 415.15 318.018 C413.947 319.871 414.475 322.348 416.328 323.551 Z" fill="#002a53" fill-rule="nonzero"/>
    <path d="M62.9065 377.106 C77.8047 374.479 85.2912 366.366 85.2912 354.092 C85.2912 341.896 75.8582 340.317 68.2968 339.721 C63.206 339.306 59.0135 339.351 59.0135 336.88 C59.0135 335.182 59.9868 333.698 62.8317 333.197 C65.7514 332.682 67.2487 333.73 67.2487 336.818 L67.2487 336.972 L84.5426 333.923 L84.5426 333.691 C84.5426 321.263 76.6817 316.551 63.3557 318.901 C48.9068 321.449 41.1956 329.91 41.1956 340.949 C41.1956 352.913 50.2543 354.327 57.7408 354.859 C62.9814 355.247 67.4733 355.304 67.4733 358.161 C67.4733 360.013 66.3503 361.292 63.5055 361.794 C59.9868 362.414 58.7141 360.863 58.7141 358.007 L58.7141 357.466 L40.5967 360.661 L40.5967 360.815 C40.5967 373.861 45.9121 380.103 62.9065 377.106 Z M111.867 368.473 C125.492 366.071 133.802 357.04 133.802 339.672 L133.802 307.869 L115.461 311.103 L115.461 342.211 C115.461 348.696 114.787 350.436 111.867 350.95 C109.396 351.386 108.199 349.745 108.199 343.492 L108.199 312.383 L89.8566 315.617 L89.8566 347.421 C89.8566 364.789 96.894 371.113 111.867 368.473 Z M161.877 359.655 C175.502 357.252 183.812 348.222 183.812 330.854 L183.812 299.05 L165.47 302.285 L165.47 333.393 C165.47 339.878 164.797 341.617 161.877 342.132 C159.406 342.568 158.209 340.926 158.209 334.674 L158.209 303.565 L139.867 306.799 L139.867 338.603 C139.867 355.971 146.904 362.295 161.877 359.655 Z M222.143 347.87 L238.09 345.059 L238.09 289.48 L221.844 292.344 L221.844 318.358 L206.571 295.037 L190.176 297.928 L190.176 353.507 L206.422 350.643 L206.422 324.088 L222.143 347.87 Z M276.719 338.247 L292.666 335.436 L292.666 279.857 L276.42 282.721 L276.42 308.735 L261.147 285.414 L244.752 288.305 L244.752 343.884 L260.998 341.019 L260.998 314.465 L276.719 338.247 Z M325.381 308.362 L318.868 309.51 L322.087 296.9 L325.381 308.362 Z M331.295 328.624 L348.963 325.509 L330.996 273.098 L313.327 276.213 L295.584 334.921 L313.178 331.819 L315.049 324.464 L329.349 321.943 L331.295 328.624 Z M383.775 319.37 L399.721 316.559 L399.721 260.98 L383.475 263.844 L383.475 289.858 L368.203 266.537 L351.807 269.428 L351.807 325.007 L368.053 322.143 L368.053 295.588 L383.775 319.37 Z" fill="#002a53" fill-rule="nonzero"/>
    <path d="M73.8368 277.873 L74.5855 267.629 L75.3342 277.609 L76.532 282.493 L72.639 283.179 L73.8368 277.873 Z M81.7726 304.263 L111.419 299.036 L94.1253 246.506 L55.1954 253.371 L37.5272 312.065 L67.099 306.85 L68.1471 302.266 L80.7244 300.048 L81.7726 304.263 Z M146.83 277.43 L140.841 257.722 L154.092 291.511 L186.733 285.756 L186.733 230.177 L158.209 235.206 L158.209 249.564 L163.974 268.386 L151.247 236.434 L118.007 242.295 L118.007 297.874 L146.83 292.792 L146.83 277.43 Z M252.913 243.364 L252.913 218.508 L196.839 228.395 L196.839 253.251 L208.593 251.178 L208.593 281.901 L241.16 276.159 L241.16 245.436 L252.913 243.364 Z M288.923 239.947 L289.672 229.703 L290.421 239.683 L291.618 244.567 L287.725 245.253 L288.923 239.947 Z M296.859 266.338 L326.506 261.11 L309.212 208.581 L270.282 215.445 L252.614 274.139 L282.185 268.925 L283.233 264.34 L295.811 262.122 L296.859 266.338 Z M365.435 226.456 L366.184 216.212 L366.932 226.192 L368.13 231.076 L364.237 231.762 L365.435 226.456 Z M373.371 252.847 L403.017 247.619 L385.723 195.09 L346.793 201.954 L329.125 260.648 L358.697 255.434 L359.745 250.849 L372.322 248.631 L373.371 252.847 Z" fill="#002a53" fill-rule="nonzero"/>
  </g>
  <g id="star-position" transform="translate(286.1544 52)">
    <g id="rotating-star">
      <animateTransform attributeName="transform" type="rotate" from="0" to="360" dur="3s" repeatCount="indefinite"/>
      <path d="M55.2356 24.1214 L57.5514 7.03798 L42.5178 13.2697 L33.0709 .0182495 L25.982 15.733 L10.3063 14.0762 L15.3146 30.0685 L2.59264 40.9768 L16.7644 47.8786 L14.4486 64.962 L29.4821 58.7303 L38.929 71.9818 L46.018 56.267 L61.6937 57.9238 L56.6854 41.9315 L69.4074 31.0232 L55.2356 24.1214 Z" fill="#002a53" fill-rule="nonzero" transform="translate(-36 -36)"/>
    </g>
  </g>
</svg>
