<?xml version="1.0" encoding="UTF-8"?>
<svg xmlns="http://www.w3.org/2000/svg" xmlns:amisfits="https://amisfits.fi/metadata" viewBox="0 0 440 520" width="440" height="520" role="img" aria-labelledby="mobile-teema2-title mobile-teema2-desc">
  <title id="mobile-teema2-title">Amis antaa suunnan - mobiili teema 2</title>
  <desc id="mobile-teema2-desc">AMIS ANTAA SUUNNAN. Animated SVG. The star rotates once every 3 seconds around its own center.</desc>
  <metadata>
    <amisfits:text>AMIS ANTAA SUUNNAN</amisfits:text>
    <amisfits:animation>Star rotation, 360 degrees, 3 seconds, indefinite repeat.</amisfits:animation>
    <amisfits:source-crop>440x520</amisfits:source-crop>
  </metadata>
  <g id="logo-base">
    <path d="M400 465.461 L400 429.146 L280 450.273 L280 486.588 L400 465.461 Z M379.957 446.521 C380.126 446.611 381.041 446.518 381.567 446.425 C382.092 446.332 382.973 446.091 383.159 445.939 L383.159 455.803 L379.957 456.368 L379.957 446.521 Z M344.764 452.726 C344.934 452.816 345.849 452.723 346.374 452.63 C346.899 452.538 347.78 452.297 347.967 452.144 L347.967 462.009 L344.764 462.573 L344.764 452.726 Z M322.737 456.61 C322.906 456.7 323.821 456.607 324.347 456.514 C324.872 456.422 325.753 456.181 325.94 456.028 L325.94 465.893 L322.737 466.457 L322.737 456.61 Z M304.708 469.636 L302.166 470.084 L301.827 468.486 C301.268 469.696 300.201 470.687 298.371 471.01 C296.236 471.387 295.202 470.543 295.202 468.902 C295.202 467.705 295.693 466.849 296.49 466.213 C297.269 465.58 297.981 465.318 299.574 464.78 C301.065 464.312 301.675 464.034 301.675 463.401 C301.675 462.837 301.336 462.504 300.285 462.689 C299.201 462.88 298.676 463.486 298.642 464.415 L295.507 464.967 C295.66 462.633 297.218 460.836 300.285 460.295 C303.539 459.722 304.708 461.02 304.708 463.311 L304.708 469.636 Z M321.178 466.732 L318.094 467.276 L318.094 461.839 C318.094 460.643 317.789 459.893 316.705 460.084 C315.637 460.272 315.298 461.153 315.298 462.367 L315.298 467.769 L312.215 468.313 L312.215 462.842 C312.215 461.714 311.943 460.924 310.859 461.115 C309.791 461.303 309.402 462.244 309.402 463.56 L309.402 468.809 L306.301 469.355 L306.301 459.44 L308.893 458.983 L309.164 460.491 C309.673 459.324 310.656 458.467 312.045 458.222 C313.553 457.956 314.502 458.438 314.96 459.52 C315.468 458.319 316.451 457.445 317.891 457.191 C320.06 456.809 321.178 457.979 321.178 460.373 L321.178 466.732 Z M326.194 453.829 C326.194 454.958 325.601 455.473 324.347 455.694 C322.991 455.933 322.5 455.643 322.5 454.481 C322.5 453.318 323.11 452.818 324.347 452.599 C325.567 452.384 326.194 452.667 326.194 453.829 Z M330.311 458.078 C330.311 458.694 331.141 458.65 332.599 458.581 C334.293 458.504 336.326 458.573 336.326 460.881 C336.326 462.864 334.835 464.598 331.785 465.135 C328.854 465.652 327.261 464.634 326.939 462.4 L330.125 461.838 C330.328 462.64 330.938 462.908 331.938 462.732 C332.904 462.562 333.327 462.162 333.327 461.615 C333.327 460.931 332.26 461.034 331.04 461.095 C329.345 461.172 327.346 461.148 327.346 458.789 C327.346 456.857 328.854 455.241 331.633 454.751 C334.581 454.231 335.903 455.331 336.208 457.261 L333.175 457.796 C333.039 457.136 332.531 456.849 331.599 457.014 C330.65 457.181 330.311 457.6 330.311 458.078 Z M343.494 451.907 L342.528 452.078 C341.579 452.245 341.393 452.517 341.393 453.68 L341.393 453.834 L343.477 453.466 L343.477 456.167 L341.393 456.535 L341.376 463.171 L338.41 463.694 L338.41 457.06 L336.851 457.335 L336.851 454.634 L338.41 454.359 L338.41 453.795 C338.41 451.265 339.495 450.082 342.07 449.628 L343.494 449.377 L343.494 451.907 Z M348.221 449.945 C348.221 451.074 347.628 451.589 346.374 451.81 C345.018 452.049 344.527 451.759 344.527 450.597 C344.527 449.434 345.137 448.933 346.374 448.715 C347.594 448.5 348.221 448.783 348.221 449.945 Z M356.032 460.586 L354.473 460.861 C351.508 461.384 350.779 460.436 350.779 457.341 L350.779 454.35 L349.119 454.642 L349.119 452.061 C349.491 451.995 349.746 451.916 350.084 451.788 C350.711 451.592 350.949 451.277 351.05 450.421 C351.101 450.002 351.135 449.466 351.152 449.053 L353.694 448.604 L353.694 451.083 L356.032 450.671 L356.032 453.423 L353.694 453.836 L353.694 456.212 C353.694 457.922 353.948 458.065 355.405 457.808 L356.032 457.697 L356.032 460.586 Z M360.048 452.835 C360.048 453.45 360.878 453.407 362.335 453.338 C364.03 453.261 366.063 453.33 366.063 455.638 C366.063 457.621 364.572 459.354 361.522 459.892 C358.59 460.409 356.998 459.391 356.676 457.156 L359.861 456.595 C360.065 457.397 360.675 457.665 361.674 457.489 C362.64 457.318 363.064 456.919 363.064 456.372 C363.064 455.688 361.996 455.791 360.776 455.852 C359.082 455.929 357.082 455.905 357.082 453.546 C357.082 451.614 358.59 449.998 361.369 449.508 C364.318 448.988 365.639 450.088 365.944 452.017 L362.911 452.552 C362.776 451.892 362.267 451.606 361.335 451.77 C360.387 451.938 360.048 452.356 360.048 452.835 Z M371.044 456.315 C371.044 457.734 370.519 458.237 369.18 458.473 C367.757 458.724 367.333 458.44 367.333 456.97 C367.333 455.516 367.859 455.065 369.18 454.832 C370.502 454.599 371.044 454.862 371.044 456.315 Z M378.686 445.702 L377.72 445.872 C376.772 446.04 376.585 446.312 376.585 447.474 L376.585 447.628 L378.669 447.261 L378.669 449.962 L376.585 450.329 L376.568 456.965 L373.603 457.488 L373.603 450.855 L372.044 451.13 L372.044 448.429 L373.603 448.154 L373.603 447.59 C373.603 445.06 374.687 443.877 377.263 443.423 L378.686 443.172 L378.686 445.702 Z M383.414 443.74 C383.414 444.868 382.82 445.383 381.567 445.604 C380.211 445.843 379.72 445.554 379.72 444.391 C379.72 443.229 380.33 442.728 381.567 442.51 C382.787 442.295 383.414 442.577 383.414 443.74 Z M301.692 466.185 L301.692 465.586 C301.404 465.86 300.963 466.057 300.37 466.281 C299.523 466.584 299.201 466.727 298.896 466.986 C298.625 467.238 298.489 467.502 298.489 467.844 C298.489 468.425 298.879 468.647 299.625 468.515 C300.862 468.297 301.692 467.159 301.692 466.185 Z" fill="#002a53" fill-rule="nonzero"/>
    <path d="M363.566 485.81 C363.996 485.734 364.354 485.602 364.64 485.414 C364.925 485.225 365.14 484.988 365.284 484.704 C365.429 484.42 365.501 484.101 365.501 483.747 C365.501 483.357 365.394 483.049 365.181 482.824 C364.967 482.598 364.679 482.483 364.315 482.479 C364.569 482.36 364.772 482.163 364.925 481.889 C365.078 481.615 365.155 481.321 365.155 481.005 C365.155 480.512 364.995 480.169 364.676 479.979 C364.357 479.788 363.934 479.739 363.406 479.832 L361.684 480.136 L361.684 486.142 L363.566 485.81 Z M362.432 483.19 L363.532 482.996 C363.907 482.93 364.202 482.966 364.419 483.103 C364.635 483.24 364.743 483.485 364.743 483.836 C364.743 484.127 364.689 484.364 364.579 484.547 C364.469 484.73 364.323 484.871 364.14 484.968 C363.956 485.066 363.755 485.134 363.536 485.173 L362.432 485.368 L362.432 483.19 Z M362.432 480.638 L363.38 480.47 C363.706 480.413 363.959 480.447 364.138 480.571 C364.316 480.696 364.406 480.911 364.406 481.218 C364.406 481.524 364.317 481.784 364.14 481.997 C363.962 482.209 363.709 482.345 363.38 482.403 L362.432 482.57 L362.432 480.638 Z M368.997 484.853 L368.997 482.448 L370.801 478.528 L369.983 478.672 L368.62 481.822 L367.253 479.154 L366.435 479.298 L368.235 482.582 L368.235 484.987 L368.997 484.853 Z M378.313 483.21 L378.313 482.572 L375.686 483.035 L375.686 480.893 L378.105 480.467 L378.105 479.842 L375.686 480.269 L375.686 478.305 L378.313 477.842 L378.313 477.204 L374.937 477.799 L374.937 483.805 L378.313 483.21 Z M381.913 482.575 L381.913 477.212 L383.393 476.951 L383.393 476.308 L379.671 476.964 L379.671 477.607 L381.16 477.344 L381.16 482.708 L381.913 482.575 Z M388.434 481.425 L388.434 480.787 L385.807 481.251 L385.807 479.109 L388.226 478.682 L388.226 478.057 L385.807 478.484 L385.807 476.521 L388.434 476.057 L388.434 475.419 L385.058 476.014 L385.058 482.021 L388.434 481.425 Z M391.207 480.936 L391.207 477.853 L393.47 480.537 L394.366 480.379 L392.025 477.62 L394.193 474.404 L393.345 474.553 L391.207 477.822 L391.207 474.93 L390.458 475.062 L390.458 481.068 L391.207 480.936 Z M396.057 480.081 L396.581 478.275 L398.702 477.901 L399.204 479.526 L399.983 479.389 L398.04 473.725 L397.248 473.865 L395.283 480.218 L396.057 480.081 Z M397.641 474.55 L398.511 477.283 L396.772 477.59 L397.641 474.55 Z" fill="#002a53" fill-rule="nonzero"/>
    <path d="M96.194 186.557 L82.3756 188.994 L89.103 155 L96.194 186.557 Z M105.831 229.852 L140.922 223.664 L106.558 94.7425 L71.83 100.866 L38.0114 241.81 L72.921 235.655 L76.1937 219.33 L102.376 214.713 L105.831 229.852 Z M197.83 177.26 L203.466 176.266 L219.648 141.167 L219.648 209.783 L252.74 203.948 L252.74 68.9667 L222.375 74.3207 L200.375 125.443 L178.557 82.0472 L148.193 87.4012 L148.193 222.382 L181.284 216.547 L181.284 147.745 L197.83 177.26 Z M303.285 195.035 L303.285 89.75 L267.649 96.0337 L267.649 201.319 L303.285 195.035 Z M357.285 187.951 C386.922 182.725 401.286 166.694 401.286 141.01 L401.286 132.761 C401.286 108.39 384.013 102.999 369.649 99.7203 C359.103 97.0804 350.012 95.6838 350.012 88.7473 L350.012 86.1227 C350.012 80.8734 352.012 77.7086 357.467 76.7468 C363.103 75.753 365.467 77.9608 365.467 84.7099 L365.467 92.3963 L399.831 86.337 L399.831 77.3382 C399.831 52.7792 384.74 43.0669 358.194 47.7476 C329.83 52.749 314.739 68.7206 314.739 93.2797 L314.739 97.4041 C314.739 121.026 331.285 126.17 345.648 129.636 C356.376 132.431 366.012 134.294 366.012 142.356 L366.012 147.417 C366.012 152.479 364.194 155.612 358.376 156.638 C351.649 157.824 349.649 154.615 349.649 148.616 L349.649 136.992 L313.466 143.372 L313.466 154.995 C313.466 181.617 324.557 193.722 357.285 187.951 Z" fill="#002a53" fill-rule="nonzero"/>
    <path d="M426.048 329.475 C345.353 343.619 -20.5764 408.054 -29.2126 409.543" fill="none" stroke="#002a53" stroke-width="8" stroke-linecap="round" stroke-linejoin="miter"/>
    <path d="M412.836 320.904 L426.048 329.475 L416.539 342.029" fill="none" stroke="#002a53" stroke-width="8" stroke-linecap="round" stroke-linejoin="miter"/>
    <path d="M63.5687 377.652 C77.3318 375.225 85.7258 366.103 85.7258 348.56 L85.7258 316.435 L67.1986 319.702 L67.1986 351.125 C67.1986 357.674 66.518 359.432 63.5687 359.952 C61.0732 360.392 59.8633 358.734 59.8633 352.418 L59.8633 320.995 L41.336 324.262 L41.336 356.387 C41.336 373.931 48.4445 380.318 63.5687 377.652 Z M122.705 366.055 L138.812 363.215 L138.812 307.074 L122.402 309.968 L122.402 336.245 L106.975 312.688 L90.4143 315.608 L90.4143 371.748 L106.824 368.855 L106.824 342.032 L122.705 366.055 Z M183.201 339.169 L161.195 343.05 L161.195 338.605 L182.293 334.885 L182.293 319.368 L161.195 323.089 L161.195 318.566 L182.974 314.726 L182.974 299.287 L143.802 306.194 L143.802 362.335 L183.201 355.388 L183.201 339.169 Z M225.246 347.974 L225.246 329.728 L205.736 333.169 L205.736 295.274 L187.36 298.514 L187.36 354.654 L225.246 347.974 Z M254.209 328.13 L256.326 327.757 L264.644 313.815 L264.644 341.027 L281.659 338.027 L281.659 281.887 L265.93 284.66 L255.419 302.81 L244.832 288.38 L229.027 291.167 L229.027 347.307 L246.042 344.307 L246.042 317.095 L254.209 328.13 Z M312.966 310.986 L306.387 312.146 L309.638 299.409 L312.966 310.986 Z M318.94 331.453 L336.786 328.306 L318.637 275.366 L300.791 278.513 L282.868 337.814 L300.639 334.68 L302.53 327.251 L316.974 324.704 L318.94 331.453 Z M358.111 325.716 C373.159 323.062 380.722 314.867 380.722 302.47 C380.722 290.15 371.193 288.555 363.556 287.953 C358.413 287.534 354.178 287.579 354.178 285.084 C354.178 283.368 355.162 281.87 358.035 281.363 C360.984 280.843 362.497 281.902 362.497 285.021 L362.497 285.177 L379.965 282.096 L379.965 281.862 C379.965 269.309 372.025 264.549 358.565 266.923 C343.97 269.496 336.181 278.043 336.181 289.193 C336.181 301.279 345.331 302.706 352.893 303.244 C358.186 303.636 362.724 303.694 362.724 306.579 C362.724 308.45 361.589 309.742 358.716 310.249 C355.162 310.875 353.876 309.309 353.876 306.424 L353.876 305.878 L335.576 309.105 L335.576 309.261 C335.576 322.438 340.945 328.743 358.111 325.716 Z M401.668 316.866 L401.668 260.726 L383.519 263.926 L383.519 320.066 L401.668 316.866 Z" fill="#002a53" fill-rule="nonzero"/>
    <path d="M70.0744 278.995 L70.7755 268.891 L71.3986 278.762 L72.7227 284.376 L68.6724 285.091 L70.0744 278.995 Z M77.474 304.981 L104.813 300.16 L88.3786 246.918 L53.0944 253.14 L36.426 312.219 L63.6875 307.412 L64.7 302.945 L76.5393 300.857 L77.474 304.981 Z M133.243 280.567 L138.695 294.186 L170.085 288.651 L155.675 260.003 L154.585 258.87 L155.441 258.095 L169.773 232.566 L138.929 238.005 L132.931 250.836 L128.258 265.617 L131.218 250.826 L131.218 239.364 L103.645 244.226 L103.645 300.367 L131.218 295.505 L131.218 281.782 L135.58 270.096 L133.243 280.567 Z M220.246 246.512 L220.246 223.666 L167.515 232.964 L167.515 255.81 L179.198 253.75 L179.198 287.044 L208.796 281.825 L208.796 248.531 L220.246 246.512 Z M222.271 279.45 L250.778 274.423 L250.778 218.283 L222.271 223.309 L222.271 279.45 Z M298.603 265.99 L314.57 207.034 L286.685 211.951 L282.947 229.531 L282.168 246.822 L281.467 229.792 L277.884 213.503 L249.454 218.516 L264.798 271.951 L298.603 265.99 Z M341.287 259.789 C362.551 256.04 372.832 246.118 372.832 227.327 L372.832 222.726 C372.832 204.715 362.005 197.267 341.91 200.81 C321.425 204.422 310.209 215.679 310.209 233.768 L310.209 238.291 C310.209 257.238 319.867 263.566 341.287 259.789 Z M341.52 236.59 C339.573 236.934 338.716 236.305 338.716 234.122 L338.716 227.494 C338.716 225.389 339.573 224.38 341.52 224.037 C343.546 223.68 344.402 224.386 344.402 226.492 L344.402 233.119 C344.402 235.302 343.468 236.247 341.52 236.59 Z M374.623 252.586 L403.131 247.559 L403.131 191.419 L374.623 196.446 L374.623 252.586 Z" fill="#002a53" fill-rule="nonzero"/>
    <path d="M52.577 465.061 L52.577 462.42 L40.5929 464.533 L40.5929 467.175 L44.9969 466.398 L44.9969 479.322 L47.9824 478.796 L47.9824 465.872 L52.577 465.061 Z M60.9488 476.859 C65.0353 476.138 67.2796 473.472 67.2796 468.276 L67.2796 459.827 L64.2307 460.365 L64.2307 468.705 C64.2307 472.067 63.2779 473.523 60.97 473.93 C58.6832 474.333 57.6458 473.162 57.6458 469.866 L57.6458 461.526 L54.5968 462.064 L54.5968 470.512 C54.5968 475.708 56.693 477.609 60.9488 476.859 Z M76.6339 474.093 C80.8897 473.343 83.6846 470.405 83.6846 465.318 L83.6846 464.248 C83.6846 459.271 80.8262 457.133 76.655 457.869 C72.4839 458.604 69.6466 461.811 69.6466 466.724 L69.6466 467.793 C69.6466 472.967 72.2298 474.87 76.6339 474.093 Z M76.655 471.339 C74.0084 471.805 72.6956 470.356 72.6956 467.168 L72.6956 466.295 C72.6956 463.02 74.0084 461.064 76.655 460.597 C79.2594 460.138 80.6356 461.555 80.6356 464.917 L80.6356 465.768 C80.6356 469.021 79.2594 470.879 76.655 471.339 Z M93.043 470.85 L98.7387 454.28 L95.6262 454.829 L91.5821 467.004 L87.5591 456.251 L84.4255 456.804 L90.0576 471.377 L93.043 470.85 Z M105.038 456.51 L105.08 456.284 L105.122 456.495 L107.409 462.314 L102.815 463.124 L105.038 456.51 Z M109.632 467.925 L112.66 467.391 L106.605 452.893 L103.556 453.431 L97.6482 470.038 L100.676 469.505 L101.904 465.817 L108.362 464.678 L109.632 467.925 Z M123.831 452.497 L123.831 449.856 L111.847 451.969 L111.847 454.61 L116.251 453.834 L116.251 466.758 L119.236 466.232 L119.236 453.308 L123.831 452.497 Z M140.007 462.569 L145.703 445.999 L142.59 446.548 L138.546 458.723 L134.523 447.97 L131.39 448.523 L137.022 463.096 L140.007 462.569 Z M152.002 448.229 L152.044 448.003 L152.086 448.214 L154.373 454.033 L149.779 454.843 L152.002 448.229 Z M156.596 459.644 L159.624 459.11 L153.569 444.612 L150.52 445.15 L144.612 461.757 L147.64 461.224 L148.868 457.536 L155.326 456.397 L156.596 459.644 Z M167.755 444.687 C169.935 444.302 170.909 444.895 170.909 446.489 L170.909 446.554 C170.909 448.257 169.681 449.216 167.691 449.567 L164.43 450.142 L164.43 445.273 L167.755 444.687 Z M167.606 452.18 C169.787 451.795 170.55 452.359 170.55 454.259 L170.55 456.267 C170.55 456.638 170.634 457.016 170.867 457.128 L173.958 456.583 C173.726 456.449 173.62 456.141 173.62 455.769 L173.62 453.695 C173.62 451.403 172.857 450.402 171.206 450.169 C172.984 449.266 173.916 447.901 173.916 445.762 C173.916 442.793 172.138 441.338 167.818 442.1 L161.508 443.212 L161.508 458.778 L164.43 458.263 L164.43 452.74 L167.606 452.18 Z M179.529 444.794 L183.785 449.742 L184.145 449.678 L188.485 443.215 L188.697 442.828 L188.697 453.984 L191.492 453.491 L191.492 437.947 L188.824 438.418 L184.039 445.702 L179.296 440.076 L176.565 440.557 L176.565 456.123 L179.381 455.627 L179.381 444.58 L179.529 444.794 Z M200.84 452.192 C204.926 451.472 207.17 448.806 207.17 443.61 L207.17 435.161 L204.121 435.698 L204.121 444.038 C204.121 447.4 203.169 448.856 200.861 449.263 C198.574 449.666 197.537 448.496 197.537 445.199 L197.537 436.859 L194.488 437.397 L194.488 445.846 C194.488 451.042 196.584 452.943 200.84 452.192 Z M216.357 449.456 C220.444 448.736 222.688 446.069 222.688 440.873 L222.688 432.425 L219.639 432.962 L219.639 441.302 C219.639 444.664 218.686 446.12 216.379 446.527 C214.092 446.93 213.054 445.76 213.054 442.463 L213.054 434.123 L210.005 434.661 L210.005 443.11 C210.005 448.306 212.101 450.207 216.357 449.456 Z M236.692 432.597 L236.692 429.955 L224.708 432.068 L224.708 434.71 L229.112 433.933 L229.112 446.858 L232.097 446.331 L232.097 433.407 L236.692 432.597 Z M250.342 430.19 L250.342 427.548 L238.358 429.662 L238.358 432.303 L242.762 431.527 L242.762 444.451 L245.748 443.925 L245.748 431 L250.342 430.19 Z M256.823 429.746 L256.866 429.52 L256.908 429.731 L259.195 435.55 L254.6 436.36 L256.823 429.746 Z M261.418 441.161 L264.446 440.628 L258.39 426.129 L255.341 426.667 L249.434 443.275 L252.462 442.741 L253.69 439.053 L260.148 437.914 L261.418 441.161 Z M280.135 437.861 L285.831 421.291 L282.718 421.84 L278.674 434.014 L274.651 423.262 L271.517 423.815 L277.149 438.388 L280.135 437.861 Z M292.13 423.52 L292.172 423.295 L292.214 423.505 L294.501 429.324 L289.906 430.134 L292.13 423.52 Z M296.724 434.936 L299.752 434.402 L293.696 419.904 L290.647 420.442 L284.74 437.049 L287.768 436.515 L288.996 432.827 L295.454 431.689 L296.724 434.936 Z M312.435 432.166 L312.435 429.328 L304.601 430.709 L304.601 417.981 L301.636 418.504 L301.636 434.07 L312.435 432.166 Z M317.48 431.276 L317.48 415.71 L314.516 416.233 L314.516 431.799 L317.48 431.276 Z M323.392 419.514 L323.307 418.831 L323.667 419.531 L330.76 428.935 L333.491 428.453 L333.491 412.887 L330.718 413.376 L330.718 423.921 L330.781 424.674 L330.421 423.951 L323.434 414.66 L320.597 415.161 L320.597 430.727 L323.392 430.234 L323.392 419.514 Z M347.588 413.043 L347.588 410.401 L335.604 412.514 L335.604 415.156 L340.008 414.38 L340.008 427.304 L342.994 426.777 L342.994 413.853 L347.588 413.043 Z M354.069 412.599 L354.112 412.373 L354.154 412.584 L356.441 418.403 L351.846 419.213 L354.069 412.599 Z M358.664 424.014 L361.692 423.48 L355.636 408.982 L352.587 409.52 L346.68 426.127 L349.708 425.594 L350.936 421.906 L357.394 420.767 L358.664 424.014 Z M370.299 409.737 L370.341 409.511 L370.383 409.722 L372.67 415.541 L368.075 416.351 L370.299 409.737 Z M374.893 421.153 L377.921 420.619 L371.865 406.121 L368.816 406.658 L362.909 423.266 L365.937 422.732 L367.165 419.044 L373.623 417.905 L374.893 421.153 Z M382.6 409.074 L382.515 408.391 L382.875 409.091 L389.968 418.495 L392.7 418.013 L392.7 402.447 L389.926 402.936 L389.926 413.481 L389.99 414.234 L389.63 413.511 L382.643 404.22 L379.805 404.721 L379.805 420.287 L382.6 419.794 L382.6 409.074 Z M397.656 417.423 C398.969 417.191 399.625 416.486 399.625 415.067 C399.625 413.604 398.948 413.222 397.656 413.449 C396.365 413.677 395.687 414.299 395.687 415.761 C395.687 417.268 396.238 417.673 397.656 417.423 Z" fill="#002a53" fill-rule="nonzero"/>
    <path d="M55.2744 452.124 L55.2744 445.624 L48.038 446.9 L48.038 437.316 L40.91 438.573 L40.91 454.657 L55.2744 452.124 Z M65.6955 440.636 L65.8472 439.872 L65.9988 440.605 L66.9521 443.498 L64.7206 443.891 L65.6955 440.636 Z M68.9887 449.706 L75.9868 448.472 L69.9204 433.458 L61.8607 434.879 L55.6209 452.063 L62.6407 450.826 L63.269 448.704 L68.3604 447.806 L68.9887 449.706 Z M62.9656 433.88 C64.8289 433.551 65.4355 432.908 65.4355 431.076 C65.4355 429.155 64.7639 428.76 62.9656 429.077 C61.1674 429.394 60.5391 430.018 60.5391 431.94 C60.5391 433.816 60.9941 434.227 62.9656 433.88 Z M68.6204 432.883 C70.5053 432.55 71.0903 431.911 71.0903 430.079 C71.0903 428.158 70.4403 427.759 68.6204 428.08 C66.7788 428.404 66.1938 429.021 66.1938 430.943 C66.1938 432.819 66.6705 433.226 68.6204 432.883 Z M84.8263 447.338 C90.6977 446.303 94.2942 442.966 94.2942 437.247 C94.2942 431.93 90.546 429.396 84.9562 430.382 C79.1715 431.402 75.3583 435.269 75.3583 440.586 C75.3583 446.304 78.8465 448.393 84.8263 447.338 Z M84.8263 441.284 C83.353 441.544 82.3997 440.863 82.3997 439.344 C82.3997 437.892 83.353 436.763 84.8263 436.503 C86.2995 436.244 87.2528 437.036 87.2528 438.488 C87.2528 440.007 86.2995 441.024 84.8263 441.284 Z M104.65 440.67 C110.348 439.666 112.97 437.104 112.97 432.725 C112.97 428.279 110.435 426.314 104.607 427.341 L95.8755 428.881 L95.8755 444.965 L102.354 443.823 L102.354 441.075 L104.65 440.67 Z M104.52 433.009 C105.885 432.768 106.318 433.071 106.318 433.943 C106.318 434.814 105.885 435.248 104.542 435.484 L102.354 435.87 L102.354 433.391 L104.52 433.009 Z M121.462 440.454 L121.462 424.369 L114.551 425.588 L114.551 441.672 L121.462 440.454 Z M135.74 437.936 L142.023 436.828 L142.023 420.744 L135.502 421.894 L135.502 429.042 L130.085 422.849 L123.607 423.991 L123.607 440.076 L130.15 438.922 L130.15 431.438 L135.74 437.936 Z M156.236 434.322 L162.519 433.214 L162.519 417.13 L155.997 418.28 L155.997 425.429 L150.581 419.235 L144.103 420.377 L144.103 436.462 L150.646 435.308 L150.646 427.824 L156.236 434.322 Z M173.568 431.691 C179.44 430.655 183.036 427.318 183.036 421.599 C183.036 416.282 179.288 413.749 173.698 414.734 C167.913 415.754 164.1 419.621 164.1 424.938 C164.1 430.657 167.588 432.745 173.568 431.691 Z M173.568 425.637 C172.095 425.896 171.142 425.216 171.142 423.696 C171.142 422.244 172.095 421.116 173.568 420.856 C175.041 420.596 175.995 421.389 175.995 422.841 C175.995 424.36 175.041 425.377 173.568 425.637 Z M200.065 416.698 L200.065 410.51 L184.033 413.337 L184.033 419.525 L188.539 418.73 L188.539 428.626 L195.472 427.404 L195.472 417.507 L200.065 416.698 Z M214.711 424.436 C220.084 423.488 222.987 420.475 222.987 414.689 L222.987 406.468 L216.054 407.69 L216.054 416 C216.054 417.676 215.599 418.225 214.711 418.382 C213.78 418.546 213.368 418.15 213.368 416.608 L213.368 415.625 L206.522 416.833 L206.522 417.86 C206.522 423.825 209.208 425.406 214.711 424.436 Z M232.781 411.175 L232.932 410.411 L233.084 411.144 L234.037 414.036 L231.806 414.429 L232.781 411.175 Z M236.074 420.245 L243.072 419.011 L237.005 403.996 L228.946 405.417 L222.706 422.602 L229.726 421.364 L230.354 419.243 L235.445 418.345 L236.074 420.245 Z M257.349 406.843 L257.501 406.079 L257.653 406.811 L258.606 409.704 L256.374 410.097 L257.349 406.843 Z M260.642 415.913 L267.64 414.679 L261.574 399.664 L253.514 401.085 L247.275 418.27 L254.294 417.032 L254.923 414.911 L260.014 414.013 L260.642 415.913 Z M278.386 412.784 L284.605 395.603 L277.39 396.875 L274.552 405.887 L274.4 406.807 L274.248 405.918 L271.475 397.918 L264.282 399.186 L270.305 414.209 L278.386 412.784 Z M293.357 410.568 C299.229 409.533 302.825 406.196 302.825 400.477 C302.825 395.16 299.077 392.627 293.487 393.612 C287.702 394.632 283.889 398.499 283.889 403.816 C283.889 409.535 287.377 411.623 293.357 410.568 Z M293.357 404.515 C291.884 404.774 290.931 404.093 290.931 402.574 C290.931 401.122 291.884 399.994 293.357 399.734 C294.83 399.474 295.784 400.267 295.784 401.719 C295.784 403.238 294.83 404.255 293.357 404.515 Z M311.383 406.966 L311.383 390.881 L304.471 392.1 L304.471 408.184 L311.383 406.966 Z M325.661 404.448 L331.944 403.34 L331.944 387.256 L325.422 388.406 L325.422 395.554 L320.006 389.361 L313.528 390.503 L313.528 406.587 L320.071 405.434 L320.071 397.95 L325.661 404.448 Z M347.889 390.878 L348.041 390.114 L348.193 390.847 L349.146 393.739 L346.914 394.133 L347.889 390.878 Z M351.183 399.948 L358.181 398.714 L352.114 383.699 L344.055 385.12 L337.815 402.305 L344.834 401.067 L345.463 398.946 L350.554 398.048 L351.183 399.948 Z M368.103 393.412 L368.558 393.332 L371.461 389.38 L371.461 396.372 L378.178 395.188 L378.178 379.104 L372.133 380.169 L368.472 385.551 L364.702 381.48 L358.592 382.557 L358.592 398.641 L365.33 397.453 L365.33 390.506 L368.103 393.412 Z M391.61 392.819 L399.302 391.463 L393.647 382.698 L399.388 375.364 L391.307 376.788 L387.017 382.504 L387.017 377.545 L380.258 378.737 L380.258 394.821 L387.017 393.629 L387.017 389.429 L388.404 387.599 L391.61 392.819 Z" fill="#002a53" fill-rule="nonzero"/>
    <path d="M52.2628 427.27 L59.9542 425.914 L54.2994 417.148 L60.0408 409.814 L51.9595 411.239 L47.6697 416.955 L47.6697 411.995 L40.91 413.187 L40.91 429.272 L47.6697 428.08 L47.6697 423.88 L49.0563 422.049 L52.2628 427.27 Z M68.5772 424.818 C74.2753 423.813 77.3519 420.701 77.3519 414.603 L77.3519 406.762 L70.3105 408.003 L70.3105 415.844 C70.3105 417.564 69.7255 418.293 68.6206 418.488 C67.4506 418.694 66.8873 418.168 66.8873 416.448 L66.8873 408.607 L59.8459 409.848 L59.8459 417.689 C59.8459 423.654 62.0992 425.96 68.5772 424.818 Z M88.5312 410.062 C89.4412 409.902 89.8311 410.235 89.8311 410.839 C89.8311 411.464 89.3328 411.954 88.5312 412.095 L85.8663 412.565 L85.8663 410.532 L88.5312 410.062 Z M87.7512 417.058 C88.9862 416.84 89.3328 417.092 89.3328 418.254 L89.3328 419.661 C89.3328 420.063 89.4845 420.483 89.9178 420.63 L97.0892 419.366 C96.6125 419.226 96.3525 418.781 96.3525 418.222 L96.3525 417.195 C96.3525 414.715 95.9409 413.559 93.8176 413.397 C95.7676 412.294 96.6342 410.801 96.6342 408.835 C96.6342 405.126 94.6626 403.709 88.3362 404.825 L79.2799 406.422 L79.2799 422.506 L85.8663 421.345 L85.8663 417.391 L87.7512 417.058 Z M109.547 417.169 L117.238 415.813 L111.583 407.048 L117.325 399.713 L109.244 401.138 L104.954 406.854 L104.954 401.895 L98.194 403.087 L98.194 419.171 L104.954 417.979 L104.954 413.779 L106.34 411.949 L109.547 417.169 Z M125.298 414.392 L125.298 398.307 L118.386 399.526 L118.386 415.61 L125.298 414.392 Z M136.152 412.947 C142.479 411.831 145.1 408.934 145.1 405.583 C145.1 402.076 142.609 401.264 138.037 401.735 C134.376 402.113 133.834 402.097 133.834 401.695 C133.834 401.36 134.181 400.986 135.372 400.775 C136.715 400.539 137.539 400.729 137.777 401.334 L144.927 400.074 C143.8 396.05 140.854 395.028 135.589 395.957 C130.216 396.904 126.966 399.689 126.966 403.419 C126.966 406.636 129.241 407.62 133.877 407.138 C137.625 406.767 138.275 406.764 138.275 407.256 C138.275 407.613 137.864 407.887 136.78 408.078 C135.654 408.277 134.419 408.249 134.202 407.527 L126.576 408.872 C127.118 412.44 129.414 414.135 136.152 412.947 Z M161.674 398.081 L161.674 391.893 L145.642 394.72 L145.642 400.908 L150.148 400.114 L150.148 410.01 L157.081 408.787 L157.081 398.891 L161.674 398.081 Z M171.922 406.595 C177.62 405.59 180.697 402.479 180.697 396.38 L180.697 388.539 L173.656 389.781 L173.656 397.622 C173.656 399.342 173.071 400.071 171.966 400.265 C170.796 400.472 170.232 399.946 170.232 398.225 L170.232 390.384 L163.191 391.626 L163.191 399.467 C163.191 405.432 165.444 407.737 171.922 406.595 Z M191.356 403.213 C197.682 402.098 200.304 399.2 200.304 395.849 C200.304 392.342 197.812 391.53 193.241 392.001 C189.579 392.379 189.038 392.363 189.038 391.961 C189.038 391.626 189.384 391.252 190.576 391.042 C191.919 390.805 192.743 390.995 192.981 391.6 L200.131 390.34 C199.004 386.316 196.058 385.294 190.793 386.223 C185.42 387.17 182.17 389.955 182.17 393.685 C182.17 396.902 184.445 397.886 189.081 397.404 C192.829 397.033 193.479 397.03 193.479 397.522 C193.479 397.879 193.068 398.153 191.984 398.344 C190.858 398.543 189.623 398.515 189.406 397.793 L181.78 399.138 C182.321 402.706 184.618 404.401 191.356 403.213 Z M213.108 398.908 L220.8 397.552 L215.145 388.787 L220.886 381.453 L212.805 382.878 L208.515 388.593 L208.515 383.634 L201.756 384.826 L201.756 400.91 L208.515 399.718 L208.515 395.518 L209.902 393.688 L213.108 398.908 Z M229.423 396.456 C235.121 395.451 238.197 392.34 238.197 386.241 L238.197 378.4 L231.156 379.642 L231.156 387.483 C231.156 389.203 230.571 389.932 229.466 390.126 C228.296 390.333 227.733 389.807 227.733 388.086 L227.733 380.245 L220.692 381.487 L220.692 389.328 C220.692 395.293 222.945 397.598 229.423 396.456 Z M249.377 381.701 C250.287 381.541 250.677 381.874 250.677 382.477 C250.677 383.103 250.178 383.593 249.377 383.734 L246.712 384.204 L246.712 382.171 L249.377 381.701 Z M248.597 388.697 C249.832 388.479 250.178 388.731 250.178 389.892 L250.178 391.3 C250.178 391.702 250.33 392.122 250.763 392.269 L257.935 391.004 C257.458 390.865 257.198 390.419 257.198 389.861 L257.198 388.833 C257.198 386.354 256.786 385.197 254.663 385.036 C256.613 383.932 257.48 382.439 257.48 380.473 C257.48 376.765 255.508 375.348 249.182 376.463 L240.125 378.06 L240.125 394.145 L246.712 392.983 L246.712 389.029 L248.597 388.697 Z M267.966 389.705 C274.292 388.589 276.914 385.692 276.914 382.341 C276.914 378.834 274.422 378.022 269.851 378.493 C266.189 378.871 265.647 378.854 265.647 378.452 C265.647 378.117 265.994 377.743 267.186 377.533 C268.529 377.296 269.352 377.486 269.591 378.092 L276.74 376.831 C275.614 372.808 272.667 371.786 267.402 372.714 C262.029 373.662 258.779 376.446 258.779 380.177 C258.779 383.394 261.054 384.378 265.691 383.895 C269.439 383.525 270.089 383.522 270.089 384.014 C270.089 384.371 269.677 384.645 268.594 384.836 C267.467 385.034 266.232 385.006 266.016 384.285 L258.389 385.63 C258.931 389.198 261.228 390.893 267.966 389.705 Z M287.291 386.297 C293.618 385.182 296.239 382.284 296.239 378.933 C296.239 375.426 293.748 374.614 289.176 375.085 C285.515 375.463 284.973 375.447 284.973 375.045 C284.973 374.71 285.32 374.336 286.511 374.126 C287.855 373.889 288.678 374.079 288.916 374.684 L296.066 373.424 C294.939 369.4 291.993 368.378 286.728 369.307 C281.355 370.254 278.105 373.039 278.105 376.769 C278.105 379.986 280.38 380.97 285.016 380.488 C288.765 380.117 289.415 380.114 289.415 380.606 C289.415 380.963 289.003 381.237 287.92 381.428 C286.793 381.627 285.558 381.599 285.341 380.877 L277.715 382.222 C278.257 385.79 280.553 387.485 287.291 386.297 Z M304.667 382.764 L304.667 366.68 L297.756 367.898 L297.756 383.983 L304.667 382.764 Z M322.433 369.735 L322.433 363.547 L306.4 366.374 L306.4 372.562 L310.907 371.768 L310.907 381.664 L317.84 380.441 L317.84 370.545 L322.433 369.735 Z M322.736 384.515 C327.2 383.728 329.28 381.016 329.28 376.615 C329.28 373.376 328.435 372.452 325.683 372.937 C322.953 373.419 321.935 374.269 321.935 376.815 C321.935 379.518 322.671 379.813 325.033 379.396 C325.206 379.366 325.38 379.335 325.553 379.282 C325.315 380.732 324.491 381.257 322.736 381.633 L322.736 384.515 Z M349.363 374.883 L355.581 357.702 L348.367 358.974 L345.529 367.986 L345.377 368.906 L345.225 368.017 L342.452 360.017 L335.259 361.286 L341.282 376.308 L349.363 374.883 Z M362.211 362.967 L362.363 362.203 L362.514 362.936 L363.468 365.828 L361.236 366.222 L362.211 362.967 Z M365.504 372.037 L372.502 370.803 L366.436 355.788 L358.376 357.209 L352.136 374.394 L359.156 373.156 L359.784 371.035 L364.876 370.137 L365.504 372.037 Z M359.481 356.21 C361.344 355.882 361.951 355.239 361.951 353.407 C361.951 351.486 361.279 351.09 359.481 351.407 C357.683 351.724 357.055 352.349 357.055 354.27 C357.055 356.147 357.51 356.558 359.481 356.21 Z M365.136 355.213 C367.021 354.881 367.606 354.242 367.606 352.41 C367.606 350.489 366.956 350.089 365.136 350.41 C363.294 350.735 362.709 351.352 362.709 353.273 C362.709 355.15 363.186 355.557 365.136 355.213 Z M381.732 369.176 L381.732 362.898 L387.755 352.029 L380.562 353.297 L378.352 357.574 L376.164 354.073 L368.927 355.349 L374.799 364.143 L374.799 370.398 L381.732 369.176 Z M399.822 354.928 L387.516 357.098 L387.516 363.397 L399.822 361.227 L399.822 354.928 Z" fill="#002a53" fill-rule="nonzero"/>
  </g>
  <g id="star-position" transform="translate(286.1544 52)">
    <g id="rotating-star">
      <animateTransform attributeName="transform" type="rotate" from="0" to="360" dur="3s" repeatCount="indefinite"/>
      <path d="M55.2356 24.1214 L57.5514 7.03798 L42.5178 13.2697 L33.0709 .0182495 L25.982 15.733 L10.3063 14.0762 L15.3146 30.0685 L2.59264 40.9768 L16.7644 47.8786 L14.4486 64.962 L29.4821 58.7303 L38.929 71.9818 L46.018 56.267 L61.6937 57.9238 L56.6854 41.9315 L69.4074 31.0232 L55.2356 24.1214 Z" fill="#002a53" fill-rule="nonzero" transform="translate(-36 -36)"/>
    </g>
  </g>
</svg>
