<?xml version="1.0" encoding="UTF-8"?>
<svg xmlns="http://www.w3.org/2000/svg" xmlns:amisfits="https://amisfits.fi/metadata" viewBox="0 0 440 520" width="440" height="520" role="img" aria-labelledby="mobile-teema3-title mobile-teema3-desc">
  <title id="mobile-teema3-title">Amis antaa suunnan - mobiili teema 3</title>
  <desc id="mobile-teema3-desc">AMIS ANTAA SUUNNAN. Animated SVG. The star rotates once every 3 seconds around its own center.</desc>
  <metadata>
    <amisfits:text>AMIS ANTAA SUUNNAN</amisfits:text>
    <amisfits:animation>Star rotation, 360 degrees, 3 seconds, indefinite repeat.</amisfits:animation>
    <amisfits:source-crop>440x520</amisfits:source-crop>
  </metadata>
  <g id="logo-base">
    <path d="M400 465.461 L400 429.146 L280 450.273 L280 486.588 L400 465.461 Z M379.957 446.521 C380.126 446.611 381.041 446.518 381.567 446.425 C382.092 446.332 382.973 446.091 383.159 445.939 L383.159 455.803 L379.957 456.368 L379.957 446.521 Z M344.764 452.726 C344.934 452.816 345.849 452.723 346.374 452.63 C346.899 452.538 347.78 452.297 347.967 452.144 L347.967 462.009 L344.764 462.573 L344.764 452.726 Z M322.737 456.61 C322.906 456.7 323.821 456.607 324.347 456.514 C324.872 456.422 325.753 456.181 325.94 456.028 L325.94 465.893 L322.737 466.457 L322.737 456.61 Z M304.708 469.636 L302.166 470.084 L301.827 468.486 C301.268 469.696 300.201 470.687 298.371 471.01 C296.236 471.387 295.202 470.543 295.202 468.902 C295.202 467.705 295.693 466.849 296.49 466.213 C297.269 465.58 297.981 465.318 299.574 464.78 C301.065 464.312 301.675 464.034 301.675 463.401 C301.675 462.837 301.336 462.504 300.285 462.689 C299.201 462.88 298.676 463.486 298.642 464.415 L295.507 464.967 C295.66 462.633 297.218 460.836 300.285 460.295 C303.539 459.722 304.708 461.02 304.708 463.311 L304.708 469.636 Z M321.178 466.732 L318.094 467.276 L318.094 461.839 C318.094 460.643 317.789 459.893 316.705 460.084 C315.637 460.272 315.298 461.153 315.298 462.367 L315.298 467.769 L312.215 468.313 L312.215 462.842 C312.215 461.714 311.943 460.924 310.859 461.115 C309.791 461.303 309.402 462.244 309.402 463.56 L309.402 468.809 L306.301 469.355 L306.301 459.44 L308.893 458.983 L309.164 460.491 C309.673 459.324 310.656 458.467 312.045 458.222 C313.553 457.956 314.502 458.438 314.96 459.52 C315.468 458.319 316.451 457.445 317.891 457.191 C320.06 456.809 321.178 457.979 321.178 460.373 L321.178 466.732 Z M326.194 453.829 C326.194 454.958 325.601 455.473 324.347 455.694 C322.991 455.933 322.5 455.643 322.5 454.481 C322.5 453.318 323.11 452.818 324.347 452.599 C325.567 452.384 326.194 452.667 326.194 453.829 Z M330.311 458.078 C330.311 458.694 331.141 458.65 332.599 458.581 C334.293 458.504 336.326 458.573 336.326 460.881 C336.326 462.864 334.835 464.598 331.785 465.135 C328.854 465.652 327.261 464.634 326.939 462.4 L330.125 461.838 C330.328 462.64 330.938 462.908 331.938 462.732 C332.904 462.562 333.327 462.162 333.327 461.615 C333.327 460.931 332.26 461.034 331.04 461.095 C329.345 461.172 327.346 461.148 327.346 458.789 C327.346 456.857 328.854 455.241 331.633 454.751 C334.581 454.231 335.903 455.331 336.208 457.261 L333.175 457.796 C333.039 457.136 332.531 456.849 331.599 457.014 C330.65 457.181 330.311 457.6 330.311 458.078 Z M343.494 451.907 L342.528 452.078 C341.579 452.245 341.393 452.517 341.393 453.68 L341.393 453.834 L343.477 453.466 L343.477 456.167 L341.393 456.535 L341.376 463.171 L338.41 463.694 L338.41 457.06 L336.851 457.335 L336.851 454.634 L338.41 454.359 L338.41 453.795 C338.41 451.265 339.495 450.082 342.07 449.628 L343.494 449.377 L343.494 451.907 Z M348.221 449.945 C348.221 451.074 347.628 451.589 346.374 451.81 C345.018 452.049 344.527 451.759 344.527 450.597 C344.527 449.434 345.137 448.933 346.374 448.715 C347.594 448.5 348.221 448.783 348.221 449.945 Z M356.032 460.586 L354.473 460.861 C351.508 461.384 350.779 460.436 350.779 457.341 L350.779 454.35 L349.119 454.642 L349.119 452.061 C349.491 451.995 349.746 451.916 350.084 451.788 C350.711 451.592 350.949 451.277 351.05 450.421 C351.101 450.002 351.135 449.466 351.152 449.053 L353.694 448.604 L353.694 451.083 L356.032 450.671 L356.032 453.423 L353.694 453.836 L353.694 456.212 C353.694 457.922 353.948 458.065 355.405 457.808 L356.032 457.697 L356.032 460.586 Z M360.048 452.835 C360.048 453.45 360.878 453.407 362.335 453.338 C364.03 453.261 366.063 453.33 366.063 455.638 C366.063 457.621 364.572 459.354 361.522 459.892 C358.59 460.409 356.998 459.391 356.676 457.156 L359.861 456.595 C360.065 457.397 360.675 457.665 361.674 457.489 C362.64 457.318 363.064 456.919 363.064 456.372 C363.064 455.688 361.996 455.791 360.776 455.852 C359.082 455.929 357.082 455.905 357.082 453.546 C357.082 451.614 358.59 449.998 361.369 449.508 C364.318 448.988 365.639 450.088 365.944 452.017 L362.911 452.552 C362.776 451.892 362.267 451.606 361.335 451.77 C360.387 451.938 360.048 452.356 360.048 452.835 Z M371.044 456.315 C371.044 457.734 370.519 458.237 369.18 458.473 C367.757 458.724 367.333 458.44 367.333 456.97 C367.333 455.516 367.859 455.065 369.18 454.832 C370.502 454.599 371.044 454.862 371.044 456.315 Z M378.686 445.702 L377.72 445.872 C376.772 446.04 376.585 446.312 376.585 447.474 L376.585 447.628 L378.669 447.261 L378.669 449.962 L376.585 450.329 L376.568 456.965 L373.603 457.488 L373.603 450.855 L372.044 451.13 L372.044 448.429 L373.603 448.154 L373.603 447.59 C373.603 445.06 374.687 443.877 377.263 443.423 L378.686 443.172 L378.686 445.702 Z M383.414 443.74 C383.414 444.868 382.82 445.383 381.567 445.604 C380.211 445.843 379.72 445.554 379.72 444.391 C379.72 443.229 380.33 442.728 381.567 442.51 C382.787 442.295 383.414 442.577 383.414 443.74 Z M301.692 466.185 L301.692 465.586 C301.404 465.86 300.963 466.057 300.37 466.281 C299.523 466.584 299.201 466.727 298.896 466.986 C298.625 467.238 298.489 467.502 298.489 467.844 C298.489 468.425 298.879 468.647 299.625 468.515 C300.862 468.297 301.692 467.159 301.692 466.185 Z" fill="#002a53" fill-rule="nonzero"/>
    <path d="M363.566 485.81 C363.996 485.734 364.354 485.602 364.64 485.414 C364.925 485.225 365.14 484.988 365.284 484.704 C365.429 484.42 365.501 484.101 365.501 483.747 C365.501 483.357 365.394 483.049 365.181 482.824 C364.967 482.598 364.679 482.483 364.315 482.479 C364.569 482.36 364.772 482.163 364.925 481.889 C365.078 481.615 365.155 481.321 365.155 481.005 C365.155 480.512 364.995 480.169 364.676 479.979 C364.357 479.788 363.934 479.739 363.406 479.832 L361.684 480.136 L361.684 486.142 L363.566 485.81 Z M362.432 483.19 L363.532 482.996 C363.907 482.93 364.202 482.966 364.419 483.103 C364.635 483.24 364.743 483.485 364.743 483.836 C364.743 484.127 364.689 484.364 364.579 484.547 C364.469 484.73 364.323 484.871 364.14 484.968 C363.956 485.066 363.755 485.134 363.536 485.173 L362.432 485.368 L362.432 483.19 Z M362.432 480.638 L363.38 480.47 C363.706 480.413 363.959 480.447 364.138 480.571 C364.316 480.696 364.406 480.911 364.406 481.218 C364.406 481.524 364.317 481.784 364.14 481.997 C363.962 482.209 363.709 482.345 363.38 482.403 L362.432 482.57 L362.432 480.638 Z M368.997 484.853 L368.997 482.448 L370.801 478.528 L369.983 478.672 L368.62 481.822 L367.253 479.154 L366.435 479.298 L368.235 482.582 L368.235 484.987 L368.997 484.853 Z M378.313 483.21 L378.313 482.572 L375.686 483.035 L375.686 480.893 L378.105 480.467 L378.105 479.842 L375.686 480.269 L375.686 478.305 L378.313 477.842 L378.313 477.204 L374.937 477.799 L374.937 483.805 L378.313 483.21 Z M381.913 482.575 L381.913 477.212 L383.393 476.951 L383.393 476.308 L379.671 476.964 L379.671 477.607 L381.16 477.344 L381.16 482.708 L381.913 482.575 Z M388.434 481.425 L388.434 480.787 L385.807 481.251 L385.807 479.109 L388.226 478.682 L388.226 478.057 L385.807 478.484 L385.807 476.521 L388.434 476.057 L388.434 475.419 L385.058 476.014 L385.058 482.021 L388.434 481.425 Z M391.207 480.936 L391.207 477.853 L393.47 480.537 L394.366 480.379 L392.025 477.62 L394.193 474.404 L393.345 474.553 L391.207 477.822 L391.207 474.93 L390.458 475.062 L390.458 481.068 L391.207 480.936 Z M396.057 480.081 L396.581 478.275 L398.702 477.901 L399.204 479.526 L399.983 479.389 L398.04 473.725 L397.248 473.865 L395.283 480.218 L396.057 480.081 Z M397.641 474.55 L398.511 477.283 L396.772 477.59 L397.641 474.55 Z" fill="#002a53" fill-rule="nonzero"/>
    <path d="M96.194 186.557 L82.3756 188.994 L89.103 155 L96.194 186.557 Z M105.831 229.852 L140.922 223.664 L106.558 94.7425 L71.83 100.866 L38.0114 241.81 L72.921 235.655 L76.1937 219.33 L102.376 214.713 L105.831 229.852 Z M197.83 177.26 L203.466 176.266 L219.648 141.167 L219.648 209.783 L252.74 203.948 L252.74 68.9667 L222.375 74.3207 L200.375 125.443 L178.557 82.0472 L148.193 87.4012 L148.193 222.382 L181.284 216.547 L181.284 147.745 L197.83 177.26 Z M303.285 195.035 L303.285 89.75 L267.649 96.0337 L267.649 201.319 L303.285 195.035 Z M357.285 187.951 C386.922 182.725 401.286 166.694 401.286 141.01 L401.286 132.761 C401.286 108.39 384.013 102.999 369.649 99.7203 C359.103 97.0804 350.012 95.6838 350.012 88.7473 L350.012 86.1227 C350.012 80.8734 352.012 77.7086 357.467 76.7468 C363.103 75.753 365.467 77.9608 365.467 84.7099 L365.467 92.3963 L399.831 86.337 L399.831 77.3382 C399.831 52.7792 384.74 43.0669 358.194 47.7476 C329.83 52.749 314.739 68.7206 314.739 93.2797 L314.739 97.4041 C314.739 121.026 331.285 126.17 345.648 129.636 C356.376 132.431 366.012 134.294 366.012 142.356 L366.012 147.417 C366.012 152.479 364.194 155.612 358.376 156.638 C351.649 157.824 349.649 154.615 349.649 148.616 L349.649 136.992 L313.466 143.372 L313.466 154.995 C313.466 181.617 324.557 193.722 357.285 187.951 Z" fill="#002a53" fill-rule="nonzero"/>
    <path d="M426.048 329.475 C345.353 343.619 -20.5764 408.054 -29.2126 409.543" fill="none" stroke="#002a53" stroke-width="8" stroke-linecap="round" stroke-linejoin="miter"/>
    <path d="M412.836 320.904 L426.048 329.475 L416.539 342.029" fill="none" stroke="#002a53" stroke-width="8" stroke-linecap="round" stroke-linejoin="miter"/>
    <path d="M61.7145 360.367 C59.1483 360.819 58.3586 359.011 58.3586 354.467 L58.3586 328.932 C58.3586 325.037 58.556 322.621 59.1483 321.002 C59.7405 319.599 60.7275 318.776 62.1093 317.883 C63.4912 316.99 64.2808 315.986 64.873 314.799 L64.873 353.102 C64.873 357.862 64.2808 359.914 61.7145 360.367 Z M69.4133 375.672 L82.2446 373.409 L82.2446 268.024 C82.2446 251.794 75.138 246.772 61.7145 249.138 C48.0936 251.54 41.3818 260.081 41.3818 275.229 L41.3818 303.794 L58.7534 300.73 L58.7534 274.546 C58.7534 268.271 59.5431 266.833 61.9119 266.416 C64.4782 265.963 65.0704 266.941 65.0704 273.216 L65.0704 292.475 C65.0704 301.348 63.4912 303.141 55.9898 306.628 C50.0676 309.403 46.1195 311.83 43.7507 315.278 C40.987 319.444 40 324.811 40 333.467 L40 356.405 C40 376.314 43.5533 381.53 54.4105 379.616 C60.9249 378.467 65.2678 374.455 66.847 364.872 L69.4133 375.672 Z M117.796 367.141 L129.246 238.529 L111.677 241.627 L107.729 310.705 L106.742 353.077 L106.149 310.983 L102.399 243.263 L84.2374 246.465 L95.4895 371.074 L117.796 367.141 Z M151.828 344.477 C149.262 344.93 148.472 343.122 148.472 338.577 L148.472 313.042 C148.472 309.147 148.669 306.732 149.262 305.113 C149.854 303.71 150.841 302.887 152.223 301.994 C153.605 301.101 154.394 300.096 154.986 298.91 L154.986 337.212 C154.986 341.973 154.394 344.025 151.828 344.477 Z M159.527 359.783 L172.358 357.52 L172.358 252.134 C172.358 235.905 165.251 230.882 151.828 233.249 C138.207 235.651 131.495 244.192 131.495 259.34 L131.495 287.904 L148.867 284.841 L148.867 258.657 C148.867 252.381 149.657 250.944 152.025 250.526 C154.592 250.074 155.184 251.051 155.184 257.327 L155.184 276.586 C155.184 285.458 153.605 287.252 146.103 290.738 C140.181 293.514 136.233 295.941 133.864 299.388 C131.1 303.554 130.113 308.922 130.113 317.578 L130.113 340.516 C130.113 360.425 133.667 365.641 144.524 363.726 C151.038 362.578 155.381 358.566 156.96 348.982 L159.527 359.783 Z M197.882 336.357 C195.315 336.809 194.526 335.001 194.526 330.457 L194.526 304.922 C194.526 301.027 194.723 298.611 195.315 296.992 C195.907 295.589 196.894 294.766 198.276 293.873 C199.658 292.981 200.448 291.976 201.04 290.789 L201.04 329.092 C201.04 333.852 200.448 335.904 197.882 336.357 Z M205.58 351.662 L218.412 349.4 L218.412 244.014 C218.412 227.784 211.305 222.762 197.882 225.129 C184.261 227.53 177.549 236.071 177.549 251.219 L177.549 279.784 L194.92 276.721 L194.92 250.536 C194.92 244.261 195.71 242.823 198.079 242.406 C200.645 241.953 201.237 242.931 201.237 249.206 L201.237 268.466 C201.237 277.338 199.658 279.131 192.157 282.618 C186.235 285.393 182.287 287.821 179.918 291.268 C177.154 295.434 176.167 300.801 176.167 309.457 L176.167 332.395 C176.167 352.304 179.72 357.52 190.578 355.606 C197.092 354.457 201.435 350.445 203.014 340.862 L205.58 351.662 Z M265.36 342.636 C278.784 340.269 286.68 332.601 286.68 315.289 L286.68 232.842 C286.68 216.396 278.981 210.829 265.558 213.195 C252.529 215.493 244.238 223.879 244.238 240.326 L244.238 322.773 C244.238 340.085 251.739 345.038 265.36 342.636 Z M265.558 324.207 C263.386 324.59 262.202 323.934 262.202 318.307 L262.202 238.24 C262.202 232.614 263.189 231.358 265.36 230.975 C267.729 230.557 268.716 231.465 268.716 237.091 L268.716 317.159 C268.716 322.569 267.532 323.859 265.558 324.207 Z M322.231 331.093 L333.681 202.482 L316.112 205.58 L312.163 274.658 L311.176 317.029 L310.584 274.936 L306.834 207.216 L288.672 210.418 L299.924 335.027 L322.231 331.093 Z M345.715 223.23 C353.216 221.907 355.387 219.603 355.387 209.825 C355.387 200.046 354.203 198.334 345.715 199.831 C337.424 201.293 336.239 203.422 336.239 213.201 C336.239 223.154 338.016 224.587 345.715 223.23 Z M336.634 328.554 L354.795 325.351 L354.795 223.025 C353.216 224.875 350.255 226.271 345.715 227.071 C340.977 227.907 338.411 227.661 336.634 226.228 L336.634 328.554 Z M379.943 304.255 C377.376 304.707 376.587 302.899 376.587 298.354 L376.587 272.82 C376.587 268.924 376.784 266.509 377.376 264.89 C377.969 263.487 378.956 262.664 380.338 261.771 C381.719 260.878 382.509 259.873 383.101 258.687 L383.101 296.989 C383.101 301.75 382.509 303.802 379.943 304.255 Z M387.641 319.56 L400.473 317.297 L400.473 211.912 C400.473 195.682 393.366 190.659 379.943 193.026 C366.322 195.428 359.61 203.969 359.61 219.117 L359.61 247.681 L376.982 244.618 L376.982 218.434 C376.982 212.159 377.771 210.721 380.14 210.303 C382.706 209.851 383.299 210.828 383.299 217.104 L383.299 236.363 C383.299 245.236 381.719 247.029 374.218 250.515 C368.296 253.291 364.348 255.718 361.979 259.166 C359.215 263.332 358.228 268.699 358.228 277.355 L358.228 300.293 C358.228 320.202 361.781 325.418 372.639 323.504 C379.153 322.355 383.496 318.343 385.075 308.76 L387.641 319.56 Z" fill="#002a53" fill-rule="nonzero"/>
    <path d="M51.2355 477.819 L54.897 477.173 L48.7873 468.242 L54.5503 461.306 L50.4988 462.021 L43.3275 470.747 L43.3275 463.285 L40.1643 463.843 L40.1643 479.771 L43.3275 479.213 L43.3275 474.366 L46.5123 470.565 L51.2355 477.819 Z M69.1745 471.774 L59.5549 473.47 L59.5549 469.717 L67.3546 468.342 L67.3546 465.572 L59.5549 466.947 L59.5549 463.194 L68.7628 461.57 L68.7628 458.8 L56.5 460.963 L56.5 476.891 L69.1745 474.656 L69.1745 471.774 Z M83.3437 472.157 L83.3437 469.097 L74.7857 470.606 L74.7857 457.738 L71.5792 458.304 L71.5792 474.232 L83.3437 472.157 Z M92.4649 457.391 C94.9781 456.948 96.1697 457.542 96.1697 459.441 C96.1697 461.295 95.0431 462.343 92.5515 462.782 L88.9117 463.424 L88.9117 458.018 L92.4649 457.391 Z M92.6599 465.533 C97.1447 464.764 99.3546 462.342 99.3546 458.902 C99.3546 455.417 97.2747 453.773 92.4432 454.625 L85.7918 455.798 L85.7918 471.726 L88.9117 471.176 L88.9117 466.194 L92.6599 465.533 Z M109.104 467.995 C113.74 467.177 116.838 464.084 116.838 458.79 L116.838 457.941 C116.838 452.758 113.654 450.55 109.125 451.348 C104.576 452.15 101.434 455.541 101.434 460.657 L101.434 461.506 C101.434 466.912 104.337 468.835 109.104 467.995 Z M109.125 465.02 C106.244 465.528 104.706 464.146 104.706 460.862 L104.706 460.17 C104.706 456.774 106.244 454.783 109.125 454.275 C111.985 453.77 113.567 455.122 113.567 458.63 L113.567 459.3 C113.567 462.695 111.985 464.516 109.125 465.02 Z M122.818 465.197 L122.818 449.269 L119.633 449.83 L119.633 465.758 L122.818 465.197 Z M132.611 463.85 C137.096 463.059 139.306 460.525 139.284 457.535 C139.284 454.117 136.771 453.689 133.023 453.903 C130.076 454.088 128.776 453.982 128.776 452.575 C128.776 451.458 129.578 450.467 131.853 450.066 C134.301 449.635 135.514 450.113 135.774 451.966 L139.089 451.382 C138.742 447.935 136.489 446.523 131.918 447.329 C127.65 448.082 125.57 450.526 125.57 453.207 C125.57 456.625 128.04 457.016 131.398 456.848 C134.496 456.659 136.143 456.592 136.121 458.227 C136.121 459.523 135.059 460.581 132.676 461.001 C129.989 461.475 128.603 460.826 128.365 458.656 L124.963 459.256 C125.353 463.119 127.368 464.774 132.611 463.85 Z M148.405 461.065 C152.847 460.282 155.36 457.448 155.36 451.796 L155.36 443.531 L152.045 444.115 L152.045 452.269 C152.045 455.933 150.962 457.464 148.449 457.907 C145.935 458.351 144.744 457.176 144.744 453.557 L144.744 445.403 L141.451 445.984 L141.451 454.249 C141.451 459.901 143.79 461.879 148.405 461.065 Z M165.348 458.078 C169.789 457.294 172.302 454.461 172.302 448.809 L172.302 440.544 L168.987 441.128 L168.987 449.282 C168.987 452.946 167.904 454.477 165.391 454.92 C162.878 455.363 161.686 454.188 161.686 450.569 L161.686 442.415 L158.393 442.996 L158.393 451.262 C158.393 456.914 160.733 458.891 165.348 458.078 Z M175.444 455.918 L181.727 454.81 C186.472 453.973 189.505 451.093 189.505 445.932 L189.505 445.083 C189.505 439.878 186.363 438.064 181.575 438.908 L175.444 439.99 L175.444 455.918 Z M181.445 441.746 C184.652 441.181 186.32 442.383 186.32 445.779 L186.32 446.315 C186.32 449.711 184.717 451.445 181.575 451.999 L178.585 452.527 L178.585 442.25 L181.445 441.746 Z M204.953 447.833 L195.333 449.529 L195.333 445.776 L203.133 444.4 L203.133 441.63 L195.333 443.006 L195.333 439.253 L204.541 437.629 L204.541 434.859 L192.278 437.021 L192.278 452.949 L204.953 450.714 L204.953 447.833 Z M210.39 438.631 L210.347 438.303 L210.629 438.812 L218.45 448.334 L221.418 447.811 L221.418 431.883 L218.407 432.414 L218.407 443.316 L218.45 443.777 L218.168 443.246 L210.455 433.816 L207.357 434.362 L207.357 450.29 L210.39 449.756 L210.39 438.631 Z M242.193 444.148 L250.059 442.761 L244.275 433.797 L250.147 426.295 L241.882 427.753 L237.495 433.598 L237.495 428.526 L230.582 429.745 L230.582 446.195 L237.495 444.976 L237.495 440.681 L238.913 438.809 L242.193 444.148 Z M259.055 441.609 C264.883 440.581 268.029 437.399 268.029 431.162 L268.029 423.142 L260.828 424.412 L260.828 432.432 C260.828 434.191 260.229 434.936 259.099 435.135 C257.903 435.346 257.327 434.808 257.327 433.049 L257.327 425.029 L250.125 426.299 L250.125 434.319 C250.125 440.419 252.43 442.777 259.055 441.609 Z M277.313 437.955 L277.313 421.505 L270.245 422.752 L270.245 439.202 L277.313 437.955 Z M292.093 435.349 L298.518 434.216 L298.518 417.766 L291.849 418.942 L291.849 426.253 L286.309 419.919 L279.684 421.087 L279.684 437.537 L286.376 436.357 L286.376 428.704 L292.093 435.349 Z M321.252 430.208 L321.252 423.559 L313.852 424.864 L313.852 415.063 L306.562 416.348 L306.562 432.798 L321.252 430.208 Z M331.667 428.805 C337.495 427.778 340.641 424.596 340.641 418.358 L340.641 410.339 L333.44 411.609 L333.44 419.628 C333.44 421.387 332.841 422.132 331.711 422.332 C330.515 422.543 329.939 422.005 329.939 420.245 L329.939 412.226 L322.737 413.496 L322.737 421.515 C322.737 427.615 325.042 429.973 331.667 428.805 Z M354.401 424.363 L362.267 422.976 L356.484 414.011 L362.356 406.51 L354.091 407.967 L349.704 413.813 L349.704 408.741 L342.79 409.96 L342.79 426.41 L349.704 425.191 L349.704 420.896 L351.122 419.023 L354.401 424.363 Z M370.687 421.491 L370.687 405.041 L363.619 406.287 L363.619 422.737 L370.687 421.491 Z M382.232 419.889 C388.236 418.831 391.915 415.418 391.915 409.569 C391.915 404.131 388.081 401.54 382.364 402.548 C376.448 403.591 372.548 407.546 372.548 412.983 C372.548 418.832 376.116 420.968 382.232 419.889 Z M382.232 413.698 C380.725 413.964 379.75 413.267 379.75 411.714 C379.75 410.229 380.725 409.074 382.232 408.809 C383.738 408.543 384.713 409.353 384.713 410.838 C384.713 412.392 383.738 413.432 382.232 413.698 Z M397.255 417.126 C400.091 416.626 401.022 415.891 401.022 413.103 C401.022 410.248 400.002 409.879 397.255 410.363 C394.463 410.856 393.488 411.576 393.488 414.432 C393.488 417.288 394.219 417.661 397.255 417.126 Z" fill="#002a53" fill-rule="nonzero"/>
    <path d="M49.2429 446.552 L44.331 447.418 L46.7548 440.646 L49.2429 446.552 Z M51.7095 452.35 L54.9483 451.778 L48.3849 437.008 L45.1247 437.583 L38.6899 454.645 L41.9716 454.067 L43.3015 450.303 L50.3153 449.066 L51.7095 452.35 Z M59.6243 439.829 L59.5814 439.501 L59.8602 440.011 L67.6033 449.547 L70.5419 449.029 L70.5419 433.101 L67.5604 433.627 L67.5604 444.528 L67.6033 444.99 L67.3245 444.458 L59.6886 435.015 L56.6214 435.556 L56.6214 451.484 L59.6243 450.954 L59.6243 439.829 Z M85.6849 433.268 L85.6849 430.431 L72.8583 432.693 L72.8583 435.53 L77.5771 434.698 L77.5771 447.788 L80.7516 447.229 L80.7516 434.138 L85.6849 433.268 Z M94.0286 438.655 L89.1167 439.521 L91.5405 432.749 L94.0286 438.655 Z M96.4952 444.453 L99.734 443.882 L93.1706 429.111 L89.9103 429.686 L83.4756 446.748 L86.7573 446.17 L88.0872 442.406 L95.101 441.169 L96.4952 444.453 Z M110.48 435.754 L105.568 436.62 L107.992 429.848 L110.48 435.754 Z M112.947 441.552 L116.186 440.981 L109.622 426.21 L106.362 426.785 L99.9273 443.847 L103.209 443.269 L104.539 439.505 L111.553 438.268 L112.947 441.552 Z M130.513 438.834 C134.953 438.051 137.141 435.521 137.12 432.531 C137.12 429.113 134.632 428.681 130.921 428.888 C128.004 429.068 126.717 428.959 126.717 427.552 C126.717 426.435 127.511 425.446 129.763 425.049 C132.186 424.622 133.388 425.102 133.645 426.956 L136.927 426.377 C136.583 422.93 134.353 421.514 129.827 422.312 C125.602 423.057 123.542 425.498 123.542 428.179 C123.542 431.597 125.988 431.992 129.312 431.83 C132.379 431.647 134.01 431.583 133.988 433.217 C133.988 434.513 132.937 435.57 130.578 435.986 C127.918 436.455 126.545 435.803 126.309 433.633 L122.942 434.227 C123.328 438.091 125.323 439.749 130.513 438.834 Z M148.38 429.071 L143.469 429.937 L145.892 423.166 L148.38 429.071 Z M150.847 434.869 L154.086 434.298 L147.522 419.527 L144.262 420.102 L137.827 437.165 L141.109 436.586 L142.439 432.822 L149.453 431.585 L150.847 434.869 Z M163.524 427.719 L163.867 427.659 L168.779 420.56 L168.779 431.707 L171.781 431.178 L171.781 415.272 L168.972 415.767 L163.759 423.433 L158.676 417.561 L155.759 418.075 L155.759 434.003 L158.762 433.473 L158.762 422.393 L163.524 427.719 Z M184.029 422.785 L179.117 423.652 L181.541 416.88 L184.029 422.785 Z M186.495 428.583 L189.734 428.012 L183.171 413.241 L179.91 413.816 L173.476 430.879 L176.757 430.3 L178.087 426.536 L185.101 425.299 L186.495 428.583 Z M194.41 416.063 L194.367 415.735 L194.646 416.244 L202.389 425.781 L205.328 425.263 L205.328 409.335 L202.346 409.86 L202.346 420.762 L202.389 421.223 L202.11 420.692 L194.474 411.248 L191.407 411.789 L191.407 427.717 L194.41 427.188 L194.41 416.063 Z M219.72 423.105 C223.645 422.413 225.854 419.834 225.854 415.187 L225.854 405.715 L222.615 406.286 L222.615 415.669 C222.615 418.573 221.736 419.689 219.741 420.04 C217.682 420.403 216.974 419.434 216.91 417.457 L216.91 417.256 L213.671 417.827 L213.671 418.028 C213.735 422.06 215.73 423.808 219.72 423.105 Z M237.115 413.425 L232.203 414.291 L234.627 407.519 L237.115 413.425 Z M239.582 419.223 L242.82 418.652 L236.257 403.881 L232.997 404.456 L226.562 421.518 L229.844 420.94 L231.174 417.176 L238.187 415.939 L239.582 419.223 Z M253.545 403.67 L253.545 400.833 L240.719 403.094 L240.719 405.931 L245.437 405.099 L245.437 418.19 L248.612 417.63 L248.612 404.54 L253.545 403.67 Z M266.801 414.423 L270.425 413.784 L264.377 404.843 L270.082 397.917 L266.071 398.624 L258.972 407.337 L258.972 399.876 L255.84 400.428 L255.84 416.356 L258.972 415.804 L258.972 410.956 L262.125 407.161 L266.801 414.423 Z M278.018 412.825 C282.608 412.016 285.676 408.928 285.676 403.634 L285.676 402.785 C285.676 397.602 282.523 395.388 278.04 396.178 C273.536 396.973 270.425 400.358 270.425 405.474 L270.425 406.323 C270.425 411.729 273.3 413.657 278.018 412.825 Z M278.04 409.85 C275.187 410.353 273.664 408.969 273.664 405.685 L273.664 404.992 C273.664 401.597 275.187 399.608 278.04 399.105 C280.871 398.606 282.437 399.96 282.437 403.468 L282.437 404.138 C282.437 407.533 280.871 409.351 278.04 409.85 Z M298.395 399.135 L287.928 400.98 L287.928 404.242 L298.395 402.396 L298.395 399.135 Z M308.24 407.496 C312.83 406.687 315.897 403.599 315.897 398.305 L315.897 397.456 C315.897 392.273 312.744 390.059 308.261 390.85 C303.757 391.644 300.647 395.029 300.647 400.145 L300.647 400.994 C300.647 406.4 303.521 408.328 308.24 407.496 Z M308.261 404.521 C305.409 405.024 303.886 403.64 303.886 400.356 L303.886 399.663 C303.886 396.268 305.409 394.279 308.261 393.776 C311.093 393.277 312.658 394.631 312.658 398.139 L312.658 398.809 C312.658 402.204 311.093 404.022 308.261 404.521 Z M325.12 390.982 C327.608 390.543 328.788 391.14 328.788 393.038 C328.788 394.893 327.673 395.938 325.206 396.373 L321.603 397.008 L321.603 391.602 L325.12 390.982 Z M325.313 399.124 C329.753 398.364 331.941 395.945 331.941 392.505 C331.941 389.02 329.882 387.372 325.099 388.216 L318.514 389.377 L318.514 405.305 L321.603 404.76 L321.603 399.778 L325.313 399.124 Z M337.475 401.961 L337.475 386.033 L334.322 386.589 L334.322 402.517 L337.475 401.961 Z M343.759 389.728 L343.716 389.401 L343.995 389.91 L351.738 399.446 L354.677 398.928 L354.677 383 L351.695 383.526 L351.695 394.428 L351.738 394.889 L351.46 394.358 L343.824 384.914 L340.756 385.455 L340.756 401.383 L343.759 400.853 L343.759 389.728 Z M369.82 383.167 L369.82 380.33 L356.993 382.592 L356.993 385.429 L361.712 384.597 L361.712 397.688 L364.887 397.128 L364.887 384.037 L369.82 383.167 Z M378.185 395.163 C382.775 394.354 385.843 391.266 385.843 385.972 L385.843 385.123 C385.843 379.94 382.69 377.726 378.207 378.516 C373.702 379.311 370.592 382.696 370.592 387.812 L370.592 388.661 C370.592 394.067 373.466 395.995 378.185 395.163 Z M378.207 392.188 C375.354 392.691 373.831 391.306 373.831 388.023 L373.831 387.33 C373.831 383.934 375.354 381.946 378.207 381.443 C381.038 380.943 382.604 382.298 382.604 385.805 L382.604 386.476 C382.604 389.871 381.038 391.689 378.207 392.188 Z M398.562 381.473 L388.095 383.318 L388.095 386.58 L398.562 384.734 L398.562 381.473 Z" fill="#002a53" fill-rule="nonzero"/>
    <path d="M48.1328 417.725 L48.288 416.943 L48.4431 417.693 L49.418 420.651 L47.1357 421.053 L48.1328 417.725 Z M51.5009 427.001 L58.658 425.739 L52.4537 410.383 L44.2109 411.836 L37.8293 429.411 L45.0085 428.145 L45.6511 425.976 L50.8583 425.058 L51.5009 427.001 Z M68.9834 420.285 L69.4487 420.203 L72.4179 416.161 L72.4179 423.312 L79.2869 422.101 L79.2869 405.651 L73.1048 406.741 L69.3601 412.245 L65.5046 408.082 L59.256 409.183 L59.256 425.633 L66.1472 424.418 L66.1472 417.313 L68.9834 420.285 Z M91.3186 416.347 L91.784 416.265 L94.7532 412.223 L94.7532 419.374 L101.622 418.163 L101.622 401.713 L95.4401 402.803 L91.6953 408.307 L87.8398 404.143 L81.5912 405.245 L81.5912 421.695 L88.4824 420.48 L88.4824 413.374 L91.3186 416.347 Z M112.546 406.367 L112.701 405.586 L112.856 406.335 L113.831 409.293 L111.549 409.696 L112.546 406.367 Z M115.914 415.643 L123.071 414.381 L116.867 399.025 L108.624 400.478 L102.242 418.054 L109.422 416.788 L110.064 414.618 L115.271 413.7 L115.914 415.643 Z M137.319 401.747 L137.319 395.419 L120.922 398.31 L120.922 404.639 L125.53 403.826 L125.53 413.947 L132.621 412.697 L132.621 402.576 L137.319 401.747 Z M146.337 410.279 L146.337 393.829 L139.268 395.075 L139.268 411.525 L146.337 410.279 Z M163.399 407.27 L163.399 400.622 L155.998 401.927 L155.998 392.125 L148.708 393.411 L148.708 409.861 L163.399 407.27 Z M179.929 404.355 L179.929 397.707 L172.528 399.012 L172.528 389.21 L165.238 390.496 L165.238 406.946 L179.929 404.355 Z M188.903 402.773 L188.903 386.323 L181.834 387.57 L181.834 404.019 L188.903 402.773 Z M203.682 400.167 L210.108 399.034 L210.108 382.584 L203.438 383.76 L203.438 391.071 L197.899 384.737 L191.273 385.905 L191.273 402.355 L197.965 401.175 L197.965 393.521 L203.682 400.167 Z M228.189 390.317 L219.015 391.934 L219.015 390.724 L227.59 389.211 L227.59 385.921 L219.015 387.434 L219.015 386.314 L227.989 384.732 L227.989 379.431 L212.412 382.178 L212.412 398.628 L228.189 395.846 L228.189 390.317 Z M242.503 393.322 L248.929 392.189 L248.929 375.739 L242.259 376.915 L242.259 384.226 L236.72 377.892 L230.094 379.06 L230.094 395.51 L236.786 394.33 L236.786 386.676 L242.503 393.322 Z M272.948 377.832 L272.948 371.504 L256.551 374.395 L256.551 380.724 L261.16 379.911 L261.16 390.032 L268.25 388.782 L268.25 378.661 L272.948 377.832 Z M283.606 386.508 C289.434 385.481 292.58 382.299 292.58 376.061 L292.58 368.042 L285.379 369.312 L285.379 377.331 C285.379 379.09 284.78 379.836 283.65 380.035 C282.454 380.246 281.878 379.708 281.878 377.949 L281.878 369.929 L274.676 371.199 L274.676 379.218 C274.676 385.318 276.981 387.677 283.606 386.508 Z M310.838 371.151 L310.838 364.823 L294.441 367.714 L294.441 374.043 L299.05 373.23 L299.05 383.351 L306.141 382.101 L306.141 371.98 L310.838 371.151 Z M324.332 378.893 L332.198 377.506 L326.415 368.542 L332.287 361.041 L324.022 362.498 L319.635 368.344 L319.635 363.272 L312.721 364.491 L312.721 380.941 L319.635 379.721 L319.635 375.426 L321.053 373.554 L324.332 378.893 Z M340.618 376.022 L340.618 359.572 L333.55 360.818 L333.55 377.268 L340.618 376.022 Z M355.398 373.415 L361.824 372.282 L361.824 355.833 L355.154 357.009 L355.154 364.32 L349.614 357.985 L342.989 359.154 L342.989 375.603 L349.681 374.424 L349.681 366.77 L355.398 373.415 Z M380.104 358.938 L380.104 352.609 L363.707 355.5 L363.707 361.829 L368.316 361.016 L368.316 371.138 L375.406 369.887 L375.406 359.766 L380.104 358.938 Z M391.006 367.571 C397.011 366.512 400.689 363.099 400.689 357.25 C400.689 351.813 396.856 349.221 391.139 350.229 C385.223 351.273 381.323 355.227 381.323 360.665 C381.323 366.514 384.89 368.649 391.006 367.571 Z M391.006 361.379 C389.499 361.645 388.524 360.949 388.524 359.395 C388.524 357.91 389.499 356.756 391.006 356.49 C392.513 356.224 393.488 357.035 393.488 358.52 C393.488 360.074 392.513 361.114 391.006 361.379 Z" fill="#002a53" fill-rule="nonzero"/>
  </g>
  <g id="star-position" transform="translate(286.1544 52)">
    <g id="rotating-star">
      <animateTransform attributeName="transform" type="rotate" from="0" to="360" dur="3s" repeatCount="indefinite"/>
      <path d="M55.2356 24.1214 L57.5514 7.03798 L42.5178 13.2697 L33.0709 .0182495 L25.982 15.733 L10.3063 14.0762 L15.3146 30.0685 L2.59264 40.9768 L16.7644 47.8786 L14.4486 64.962 L29.4821 58.7303 L38.929 71.9818 L46.018 56.267 L61.6937 57.9238 L56.6854 41.9315 L69.4074 31.0232 L55.2356 24.1214 Z" fill="#002a53" fill-rule="nonzero" transform="translate(-36 -36)"/>
    </g>
  </g>
</svg>
