<?xml version="1.0" encoding="UTF-8"?>
<svg xmlns="http://www.w3.org/2000/svg" viewBox="0 0 480 520" width="480" height="520" role="img" aria-labelledby="title">
  <title id="title">Amis antaa suunnan - animoitu tähti</title>
  <g id="logo-base">
    <path d="M74.8907 463.965 L74.8907 461.075 L60.0178 463.698 L60.0178 466.588 L65.4861 465.624 L65.4861 478.344 L69.1867 477.692 L69.1867 464.971 L74.8907 463.965 Z M84.8375 475.326 C90.1408 474.391 93.7707 471.211 93.7707 465.957 L93.7707 465.322 C93.7707 460.198 90.0465 458.052 84.8139 458.975 C79.6048 459.894 75.9279 463.41 75.9279 468.49 L75.9279 469.081 C75.9279 474.467 79.3691 476.291 84.8375 475.326 Z M84.8139 472.287 C81.4905 472.873 79.652 471.599 79.652 468.359 L79.652 467.921 C79.652 464.505 81.4905 462.583 84.8375 461.992 C88.1373 461.411 90.0465 462.585 90.0465 466.11 L90.0465 466.548 C90.0465 469.941 88.1373 471.701 84.8139 472.287 Z M96.858 472.813 L104.094 471.537 C109.751 470.539 113.145 467.642 113.145 462.497 L113.145 461.905 C113.145 456.651 109.657 454.945 103.906 455.959 L96.858 457.202 L96.858 472.813 Z M103.741 458.878 C107.677 458.184 109.468 459.27 109.468 462.619 L109.468 462.992 C109.468 466.32 107.724 467.963 103.906 468.636 L100.417 469.251 L100.417 459.464 L103.741 458.878 Z M130.893 463.877 L119.674 465.856 L119.674 462.374 L128.796 460.766 L128.796 457.898 L119.674 459.506 L119.674 456.025 L130.446 454.126 L130.446 451.279 L116.209 453.79 L116.209 469.401 L130.893 466.811 L130.893 463.877 Z M147.251 463.927 L147.251 460.774 L137.304 462.528 L137.304 450.07 L133.674 450.71 L133.674 466.321 L147.251 463.927 Z M163.632 461.039 L163.632 457.886 L153.685 459.64 L153.685 447.182 L150.056 447.822 L150.056 463.433 L163.632 461.039 Z M170.09 459.9 L170.09 444.289 L166.46 444.929 L166.46 460.54 L170.09 459.9 Z M177.35 447.475 L177.609 447.868 L186.707 456.97 L190.125 456.367 L190.125 440.756 L186.684 441.363 L186.684 452.179 L186.707 452.35 L186.448 451.98 L177.444 442.992 L173.909 443.616 L173.909 459.227 L177.35 458.62 L177.35 447.475 Z M208.604 450.175 L197.385 452.153 L197.385 448.672 L206.507 447.064 L206.507 444.195 L197.385 445.804 L197.385 442.322 L208.156 440.423 L208.156 437.577 L193.92 440.087 L193.92 455.698 L208.604 453.109 L208.604 450.175 Z M214.827 440.867 L215.086 441.259 L224.184 450.362 L227.602 449.759 L227.602 434.148 L224.16 434.755 L224.16 445.571 L224.184 445.742 L223.925 445.372 L214.921 436.384 L211.385 437.007 L211.385 452.618 L214.827 452.012 L214.827 440.867 Z M248.39 446.093 L255.862 444.776 L250.229 436.179 L255.909 429.003 L248.084 430.383 L243.888 435.874 L243.888 431.123 L237.312 432.283 L237.312 448.047 L243.888 446.887 L243.888 442.793 L245.279 440.993 L248.39 446.093 Z M264.041 443.334 L264.041 427.57 L257.276 428.762 L257.276 444.527 L264.041 443.334 Z M280.54 440.425 L280.54 434.557 L273.398 435.816 L273.398 425.92 L266.445 427.146 L266.445 442.91 L280.54 440.425 Z M290.84 427.88 C292.137 427.651 292.679 427.95 292.679 428.848 C292.679 429.767 292.113 430.239 290.864 430.459 L288.837 430.817 L288.837 428.233 L290.84 427.88 Z M291.005 435.229 C296.662 434.232 299.255 431.673 299.255 427.666 C299.255 423.637 296.709 421.809 290.958 422.823 L282.449 424.324 L282.449 440.088 L288.837 438.962 L288.837 435.612 L291.005 435.229 Z M309.225 429.083 L306.916 429.49 L308.07 425.783 L309.225 429.083 Z M311.276 435.005 L318.088 433.804 L311.865 419.137 L304.37 420.459 L298.053 437.337 L304.865 436.135 L305.501 434.053 L310.64 433.147 L311.276 435.005 Z M325.678 432.466 L325.678 416.701 L318.913 417.894 L318.913 433.658 L325.678 432.466 Z M342.176 429.556 L342.176 423.689 L335.035 424.948 L335.035 415.051 L328.081 416.278 L328.081 432.042 L342.176 429.556 Z M352.194 428.162 C357.615 427.206 360.679 424.301 360.679 418.74 L360.679 410.53 L353.773 411.747 L353.773 419.892 C353.773 421.644 353.302 422.274 352.218 422.466 C351.133 422.657 350.615 422.157 350.615 420.449 L350.615 412.304 L343.709 413.522 L343.709 421.733 C343.709 427.228 346.066 429.243 352.194 428.162 Z M377.886 418.268 L369.282 419.785 L369.282 418.581 L377.391 417.151 L377.391 413.516 L369.282 414.946 L369.282 413.786 L377.721 412.298 L377.721 407.525 L362.895 410.139 L362.895 425.903 L377.886 423.26 L377.886 418.268 Z M395.257 409.994 L395.257 404.433 L379.512 407.209 L379.512 412.77 L384.014 411.976 L384.014 422.179 L390.731 420.995 L390.731 410.792 L395.257 409.994 Z M405.533 418.757 C410.954 417.801 414.019 414.896 414.019 409.335 L414.019 401.124 L407.112 402.342 L407.112 410.487 C407.112 412.239 406.641 412.869 405.557 413.06 C404.473 413.252 403.954 412.752 403.954 411.044 L403.954 402.899 L397.048 404.117 L397.048 412.327 C397.048 417.823 399.405 419.838 405.533 418.757 Z M419.581 416.193 C422.316 415.71 423.211 415.027 423.211 412.531 C423.211 409.969 422.245 409.658 419.581 410.128 C416.871 410.606 415.928 411.254 415.928 413.815 C415.928 416.377 416.659 416.708 419.581 416.193 Z" fill="#002a53" fill-rule="nonzero"/>
    <path d="M66.7118 453.642 C71.308 452.831 73.8536 450.127 73.8536 445.42 L73.8536 436.378 L70.0824 437.042 L70.0824 445.997 C70.0824 448.953 69.0688 450.117 66.7118 450.533 C64.2605 450.965 63.5062 449.938 63.4591 447.888 L63.4591 447.625 L59.6878 448.29 L59.6878 448.575 C59.735 452.661 61.9741 454.477 66.7118 453.642 Z M87.0297 443.469 L81.3728 444.466 L84.1541 437.889 L87.0297 443.469 Z M89.9524 449.15 L93.7472 448.481 L86.0633 434.225 L82.2684 434.894 L74.7259 451.835 L78.5443 451.161 L80.1235 447.445 L88.326 445.999 L89.9524 449.15 Z M116.728 434.226 L116.728 428.664 L100.983 431.441 L100.983 437.002 L105.485 436.208 L105.485 446.411 L112.203 445.227 L112.203 435.024 L116.728 434.226 Z M129.951 442.097 L129.951 435.988 L135.843 425.294 L128.866 426.524 L126.58 430.89 L124.364 427.318 L117.364 428.552 L123.115 437.259 L123.115 443.302 L129.951 442.097 Z M144.069 439.98 C149.608 439.003 153.191 435.897 153.191 430.555 L153.191 429.745 C153.191 424.643 149.491 422.515 144.164 423.454 C138.625 424.431 134.948 427.86 134.948 432.962 L134.948 433.772 C134.948 439.114 138.318 440.994 144.069 439.98 Z M144.069 434.594 C142.632 434.847 141.854 434.13 141.854 432.445 L141.854 431.853 C141.854 430.211 142.632 429.133 144.069 428.879 C145.507 428.626 146.285 429.386 146.285 431.072 L146.285 431.663 C146.285 433.371 145.507 434.34 144.069 434.594 Z M146.921 422.202 C148.783 421.874 149.373 421.266 149.373 419.602 C149.373 417.85 148.736 417.503 146.921 417.823 C145.083 418.147 144.494 418.711 144.494 420.462 C144.494 422.17 144.965 422.547 146.921 422.202 Z M141.264 423.199 C143.127 422.871 143.739 422.259 143.739 420.595 C143.739 418.844 143.079 418.5 141.264 418.82 C139.497 419.132 138.86 419.704 138.86 421.456 C138.86 423.163 139.308 423.544 141.264 423.199 Z M170.303 429.99 L161.7 431.507 L161.7 430.303 L169.808 428.873 L169.808 425.238 L161.7 426.668 L161.7 425.508 L170.138 424.02 L170.138 419.247 L155.312 421.861 L155.312 437.625 L170.303 434.982 L170.303 429.99 Z M186.614 432.106 L186.614 426.238 L179.472 427.497 L179.472 417.601 L172.519 418.827 L172.519 434.591 L186.614 432.106 Z M198.705 423.69 L196.395 424.097 L197.55 420.39 L198.705 423.69 Z M200.756 429.612 L207.568 428.411 L201.345 413.744 L193.85 415.066 L187.533 431.944 L194.345 430.743 L194.981 428.66 L200.119 427.754 L200.756 429.612 Z M200.331 413.025 C202.194 412.697 202.783 412.089 202.783 410.425 C202.783 408.674 202.146 408.326 200.331 408.646 C198.493 408.97 197.904 409.534 197.904 411.286 C197.904 412.993 198.375 413.37 200.331 413.025 Z M194.675 414.023 C196.537 413.694 197.149 413.083 197.149 411.419 C197.149 409.667 196.489 409.324 194.675 409.644 C192.907 409.955 192.27 410.527 192.27 412.279 C192.27 413.987 192.718 414.368 194.675 414.023 Z M217.938 422.838 L218.481 422.743 L221.427 418.83 L221.427 425.967 L227.932 424.82 L227.932 409.056 L222.016 410.099 L218.316 415.35 L214.544 411.417 L208.581 412.468 L208.581 428.232 L215.11 427.081 L215.11 419.987 L217.938 422.838 Z M240.142 416.384 L237.832 416.791 L238.987 413.084 L240.142 416.384 Z M242.192 422.306 L249.004 421.105 L242.781 406.438 L235.286 407.759 L228.969 424.637 L235.781 423.436 L236.417 421.354 L241.556 420.448 L242.192 422.306 Z M241.768 405.719 C243.63 405.39 244.219 404.783 244.219 403.119 C244.219 401.367 243.583 401.02 241.768 401.34 C239.929 401.664 239.34 402.228 239.34 403.979 C239.34 405.687 239.812 406.064 241.768 405.719 Z M236.111 406.716 C237.973 406.388 238.586 405.776 238.586 404.112 C238.586 402.361 237.926 402.017 236.111 402.337 C234.343 402.649 233.707 403.221 233.707 404.973 C233.707 406.68 234.155 407.061 236.111 406.716 Z M262.84 408.462 L262.84 402.901 L247.095 405.677 L247.095 411.238 L251.597 410.445 L251.597 420.648 L258.315 419.463 L258.315 409.26 L262.84 408.462 Z M272.009 410.765 L269.699 411.172 L270.854 407.465 L272.009 410.765 Z M274.06 416.687 L280.871 415.486 L274.649 400.819 L267.153 402.14 L260.837 419.018 L267.648 417.817 L268.285 415.735 L273.423 414.829 L274.06 416.687 Z M288.697 414.106 L288.697 398.342 L281.932 399.534 L281.932 415.299 L288.697 414.106 Z M291.336 413.64 L299.633 412.178 C304.866 411.255 308.543 408.198 308.543 403.118 L308.543 402.33 C308.543 397.251 304.936 395.478 299.61 396.417 L291.336 397.876 L291.336 413.64 Z M299.209 401.611 C300.929 401.308 301.66 401.902 301.66 403.719 L301.66 404.091 C301.66 405.799 300.906 406.742 299.209 407.041 L297.96 407.262 L297.96 401.832 L299.209 401.611 Z M319.526 409.042 C325.065 408.065 328.648 404.96 328.648 399.617 L328.648 398.807 C328.648 393.706 324.947 391.577 319.62 392.517 C314.081 393.493 310.404 396.922 310.404 402.024 L310.404 402.834 C310.404 408.176 313.775 410.056 319.526 409.042 Z M319.526 403.656 C318.088 403.909 317.31 403.193 317.31 401.507 L317.31 400.916 C317.31 399.274 318.088 398.195 319.526 397.941 C320.964 397.688 321.742 398.448 321.742 400.134 L321.742 400.725 C321.742 402.433 320.964 403.402 319.526 403.656 Z M345.807 393.833 L345.807 388.272 L330.062 391.048 L330.062 396.609 L334.564 395.815 L334.564 406.018 L341.282 404.834 L341.282 394.631 L345.807 393.833 Z M363.744 401.267 C369.047 400.332 372.677 397.152 372.677 391.897 L372.677 391.263 C372.677 386.139 368.953 383.993 363.72 384.916 C358.511 385.834 354.834 389.351 354.834 394.431 L354.834 395.022 C354.834 400.408 358.275 402.231 363.744 401.267 Z M363.72 398.228 C360.397 398.814 358.558 397.54 358.558 394.299 L358.558 393.862 C358.558 390.446 360.397 388.523 363.744 387.933 C367.043 387.351 368.953 388.525 368.953 392.051 L368.953 392.488 C368.953 395.882 367.043 397.642 363.72 398.228 Z M383.849 397.328 L391.132 380.433 L387.267 381.114 L382.105 393.541 L377.202 382.889 L373.313 383.575 L380.172 397.976 L383.849 397.328 Z M400.631 388.173 L394.974 389.17 L397.756 382.593 L400.631 388.173 Z M403.554 393.853 L407.349 393.184 L399.665 378.928 L395.87 379.597 L388.328 396.538 L392.146 395.865 L393.725 392.149 L401.928 390.703 L403.554 393.853 Z M419.841 378.261 L419.841 375.371 L404.968 377.993 L404.968 380.883 L410.437 379.919 L410.437 392.64 L414.137 391.987 L414.137 379.266 L419.841 378.261 Z" fill="#002a53" fill-rule="nonzero"/>
    <path d="M73.1087 427.239 L81.7778 425.711 L75.4042 417.267 L81.8754 409.929 L72.7668 411.535 L67.9317 417.249 L67.9317 412.388 L60.3127 413.731 L60.3127 429.496 L67.9317 428.152 L67.9317 424.036 L69.4946 422.206 L73.1087 427.239 Z M92.3272 414.392 L92.4981 413.639 L92.6691 414.354 L93.7435 417.164 L91.2283 417.607 L92.3272 414.392 Z M96.039 423.196 L103.927 421.805 L97.0891 407.247 L88.0049 408.848 L80.972 425.853 L88.884 424.458 L89.5922 422.362 L95.3308 421.35 L96.039 423.196 Z M89.2503 407.841 C91.3504 407.47 92.0342 406.824 92.0342 405.029 C92.0342 403.146 91.2771 402.776 89.2503 403.133 C87.2235 403.491 86.5153 404.119 86.5153 406.002 C86.5153 407.841 87.0281 408.233 89.2503 407.841 Z M95.6239 406.717 C97.7484 406.342 98.4077 405.701 98.4077 403.905 C98.4077 402.022 97.6751 401.648 95.6239 402.009 C93.5482 402.375 92.8889 402.995 92.8889 404.878 C92.8889 406.717 93.4261 407.104 95.6239 406.717 Z M115.013 419.851 L115.013 413.698 L121.802 402.889 L113.694 404.319 L111.204 408.568 L108.737 405.193 L100.581 406.631 L107.199 415.098 L107.199 421.228 L115.013 419.851 Z M140.531 405.652 L140.531 399.587 L122.461 402.773 L122.461 408.838 L127.54 407.942 L127.54 417.642 L135.354 416.264 L135.354 406.564 L140.531 405.652 Z M149.835 404.252 L150.006 403.499 L150.177 404.213 L151.252 407.024 L148.737 407.467 L149.835 404.252 Z M153.547 413.056 L161.435 411.665 L154.597 397.106 L145.513 398.708 L138.48 415.713 L146.392 414.318 L147.1 412.222 L152.839 411.21 L153.547 413.056 Z M146.759 397.7 C148.859 397.33 149.542 396.684 149.542 394.889 C149.542 393.006 148.785 392.636 146.759 392.993 C144.732 393.35 144.024 393.979 144.024 395.862 C144.024 397.701 144.536 398.092 146.759 397.7 Z M153.132 396.577 C155.257 396.202 155.916 395.56 155.916 393.765 C155.916 391.882 155.183 391.508 153.132 391.869 C151.056 392.235 150.397 392.855 150.397 394.738 C150.397 396.577 150.934 396.964 153.132 396.577 Z M176.257 409.051 L183.339 407.803 L183.339 392.038 L175.989 393.335 L175.989 400.341 L169.884 394.411 L162.582 395.699 L162.582 411.463 L169.957 410.162 L169.957 402.828 L176.257 409.051 Z M200.042 404.858 L207.124 403.609 L207.124 387.845 L199.773 389.141 L199.773 396.147 L193.668 390.217 L186.367 391.505 L186.367 407.269 L193.742 405.969 L193.742 398.634 L200.042 404.858 Z M220.261 401.708 C226.879 400.541 230.933 397.177 230.933 391.572 C230.933 386.361 226.708 383.975 220.408 385.086 C213.888 386.236 209.59 390.125 209.59 395.336 C209.59 400.941 213.522 402.897 220.261 401.708 Z M220.261 395.775 C218.601 396.068 217.526 395.425 217.526 393.936 C217.526 392.513 218.601 391.382 220.261 391.089 C221.922 390.797 222.996 391.549 222.996 392.972 C222.996 394.461 221.922 395.482 220.261 395.775 Z M217.136 385.116 C219.236 384.746 219.92 384.1 219.92 382.304 C219.92 380.421 219.163 380.051 217.136 380.408 C215.109 380.766 214.401 381.394 214.401 383.277 C214.401 385.116 214.913 385.508 217.136 385.116 Z M223.509 383.992 C225.634 383.617 226.293 382.976 226.293 381.18 C226.293 379.297 225.561 378.923 223.509 379.285 C221.434 379.651 220.774 380.271 220.774 382.153 C220.774 383.993 221.311 384.38 223.509 383.992 Z M247.074 396.565 L254.156 395.316 L254.156 379.552 L246.805 380.848 L246.805 387.854 L240.7 381.924 L233.399 383.212 L233.399 398.976 L240.774 397.676 L240.774 390.341 L247.074 396.565 Z M276.793 391.324 L285.462 389.796 L279.088 381.352 L285.559 374.014 L276.451 375.62 L271.616 381.334 L271.616 376.473 L263.997 377.816 L263.997 393.581 L271.616 392.237 L271.616 388.121 L273.179 386.291 L276.793 391.324 Z M295.449 388.451 C302.067 387.284 306.121 383.92 306.121 378.315 C306.121 373.104 301.896 370.718 295.596 371.829 C289.076 372.978 284.778 376.867 284.778 382.078 C284.778 387.683 288.71 389.639 295.449 388.451 Z M295.449 382.517 C293.789 382.81 292.714 382.167 292.714 380.679 C292.714 379.255 293.789 378.125 295.449 377.832 C297.11 377.539 298.184 378.291 298.184 379.714 C298.184 381.203 297.11 382.224 295.449 382.517 Z M321.383 383.462 L330.052 381.933 L323.678 373.489 L330.15 366.152 L321.041 367.758 L316.206 373.471 L316.206 368.611 L308.587 369.954 L308.587 385.718 L316.206 384.375 L316.206 380.259 L317.769 378.428 L321.383 383.462 Z M349.343 373.233 L339.234 375.016 L339.234 373.855 L348.684 372.189 L348.684 369.036 L339.234 370.703 L339.234 369.63 L349.124 367.886 L349.124 362.806 L331.956 365.833 L331.956 381.598 L349.343 378.532 L349.343 373.233 Z M362.652 372.704 L363.165 372.613 L366.437 368.665 L366.437 375.518 L374.007 374.183 L374.007 358.419 L367.194 359.62 L363.067 364.989 L358.818 361.097 L351.932 362.311 L351.932 378.075 L359.526 376.736 L359.526 369.927 L362.652 372.704 Z M386.705 372.36 C393.128 371.227 396.596 368.098 396.596 362.121 L396.596 354.436 L388.659 355.835 L388.659 363.52 C388.659 365.206 388 365.935 386.754 366.155 C385.436 366.387 384.801 365.886 384.801 364.2 L384.801 356.515 L376.864 357.915 L376.864 365.6 C376.864 371.446 379.404 373.647 386.705 372.36 Z M409.293 368.421 C416.424 367.163 419.379 364.256 419.379 360.972 C419.379 357.534 416.57 356.803 411.418 357.383 C407.291 357.848 406.68 357.846 406.68 357.452 C406.68 357.124 407.071 356.749 408.414 356.512 C409.928 356.245 410.856 356.41 411.125 356.997 L419.183 355.576 C417.914 351.662 414.592 350.737 408.658 351.783 C402.602 352.851 398.939 355.664 398.939 359.321 C398.939 362.474 401.503 363.379 406.729 362.786 C410.954 362.326 411.687 362.306 411.687 362.788 C411.687 363.138 411.223 363.417 410.002 363.632 C408.732 363.856 407.34 363.861 407.096 363.159 L398.5 364.675 C399.11 368.158 401.699 369.76 409.293 368.421 Z" fill="#002a53" fill-rule="nonzero"/>
    <path d="M420 465.461 L420 429.146 L300 450.273 L300 486.588 L420 465.461 Z M399.957 446.521 C400.126 446.611 401.041 446.518 401.567 446.425 C402.092 446.332 402.973 446.091 403.159 445.939 L403.159 455.803 L399.957 456.368 L399.957 446.521 Z M364.764 452.726 C364.934 452.816 365.849 452.723 366.374 452.63 C366.899 452.538 367.78 452.297 367.967 452.144 L367.967 462.009 L364.764 462.573 L364.764 452.726 Z M342.737 456.61 C342.906 456.7 343.821 456.607 344.347 456.514 C344.872 456.422 345.753 456.181 345.94 456.028 L345.94 465.893 L342.737 466.457 L342.737 456.61 Z M324.708 469.636 L322.166 470.084 L321.827 468.486 C321.268 469.696 320.201 470.687 318.371 471.01 C316.236 471.387 315.202 470.543 315.202 468.902 C315.202 467.705 315.693 466.849 316.49 466.213 C317.269 465.58 317.981 465.318 319.574 464.78 C321.065 464.312 321.675 464.034 321.675 463.401 C321.675 462.837 321.336 462.504 320.285 462.689 C319.201 462.88 318.676 463.486 318.642 464.415 L315.507 464.967 C315.66 462.633 317.218 460.836 320.285 460.295 C323.539 459.722 324.708 461.02 324.708 463.311 L324.708 469.636 Z M341.178 466.732 L338.094 467.276 L338.094 461.839 C338.094 460.643 337.789 459.893 336.705 460.084 C335.637 460.272 335.298 461.153 335.298 462.367 L335.298 467.769 L332.215 468.313 L332.215 462.842 C332.215 461.714 331.943 460.924 330.859 461.115 C329.791 461.303 329.402 462.244 329.402 463.56 L329.402 468.809 L326.301 469.355 L326.301 459.44 L328.893 458.983 L329.164 460.491 C329.673 459.324 330.656 458.467 332.045 458.222 C333.553 457.956 334.502 458.438 334.96 459.52 C335.468 458.319 336.451 457.445 337.891 457.191 C340.06 456.809 341.178 457.979 341.178 460.373 L341.178 466.732 Z M346.194 453.829 C346.194 454.958 345.601 455.473 344.347 455.694 C342.991 455.933 342.5 455.643 342.5 454.481 C342.5 453.318 343.11 452.818 344.347 452.599 C345.567 452.384 346.194 452.667 346.194 453.829 Z M350.311 458.078 C350.311 458.694 351.141 458.65 352.599 458.581 C354.293 458.504 356.326 458.573 356.326 460.881 C356.326 462.864 354.835 464.598 351.785 465.135 C348.854 465.652 347.261 464.634 346.939 462.4 L350.125 461.838 C350.328 462.64 350.938 462.908 351.938 462.732 C352.904 462.562 353.327 462.162 353.327 461.615 C353.327 460.931 352.26 461.034 351.04 461.095 C349.345 461.172 347.346 461.148 347.346 458.789 C347.346 456.857 348.854 455.241 351.633 454.751 C354.581 454.231 355.903 455.331 356.208 457.261 L353.175 457.796 C353.039 457.136 352.531 456.849 351.599 457.014 C350.65 457.181 350.311 457.6 350.311 458.078 Z M363.494 451.907 L362.528 452.078 C361.579 452.245 361.393 452.517 361.393 453.68 L361.393 453.834 L363.477 453.466 L363.477 456.167 L361.393 456.535 L361.376 463.171 L358.41 463.694 L358.41 457.06 L356.851 457.335 L356.851 454.634 L358.41 454.359 L358.41 453.795 C358.41 451.265 359.495 450.082 362.07 449.628 L363.494 449.377 L363.494 451.907 Z M368.221 449.945 C368.221 451.074 367.628 451.589 366.374 451.81 C365.018 452.049 364.527 451.759 364.527 450.597 C364.527 449.434 365.137 448.933 366.374 448.715 C367.594 448.5 368.221 448.783 368.221 449.945 Z M376.032 460.586 L374.473 460.861 C371.508 461.384 370.779 460.436 370.779 457.341 L370.779 454.35 L369.119 454.642 L369.119 452.061 C369.491 451.995 369.746 451.916 370.084 451.788 C370.711 451.592 370.949 451.277 371.05 450.421 C371.101 450.002 371.135 449.466 371.152 449.053 L373.694 448.604 L373.694 451.083 L376.032 450.671 L376.032 453.423 L373.694 453.836 L373.694 456.212 C373.694 457.922 373.948 458.065 375.405 457.808 L376.032 457.697 L376.032 460.586 Z M380.048 452.835 C380.048 453.45 380.878 453.407 382.335 453.338 C384.03 453.261 386.063 453.33 386.063 455.638 C386.063 457.621 384.572 459.354 381.522 459.892 C378.59 460.409 376.998 459.391 376.676 457.156 L379.861 456.595 C380.065 457.397 380.675 457.665 381.674 457.489 C382.64 457.318 383.064 456.919 383.064 456.372 C383.064 455.688 381.996 455.791 380.776 455.852 C379.082 455.929 377.082 455.905 377.082 453.546 C377.082 451.614 378.59 449.998 381.369 449.508 C384.318 448.988 385.639 450.088 385.944 452.017 L382.911 452.552 C382.776 451.892 382.267 451.606 381.335 451.77 C380.387 451.938 380.048 452.356 380.048 452.835 Z M391.044 456.315 C391.044 457.734 390.519 458.237 389.18 458.473 C387.757 458.724 387.333 458.44 387.333 456.97 C387.333 455.516 387.859 455.065 389.18 454.832 C390.502 454.599 391.044 454.862 391.044 456.315 Z M398.686 445.702 L397.72 445.872 C396.772 446.04 396.585 446.312 396.585 447.474 L396.585 447.628 L398.669 447.261 L398.669 449.962 L396.585 450.329 L396.568 456.965 L393.603 457.488 L393.603 450.855 L392.044 451.13 L392.044 448.429 L393.603 448.154 L393.603 447.59 C393.603 445.06 394.687 443.877 397.263 443.423 L398.686 443.172 L398.686 445.702 Z M403.414 443.74 C403.414 444.868 402.82 445.383 401.567 445.604 C400.211 445.843 399.72 445.554 399.72 444.391 C399.72 443.229 400.33 442.728 401.567 442.51 C402.787 442.295 403.414 442.577 403.414 443.74 Z M321.692 466.185 L321.692 465.586 C321.404 465.86 320.963 466.057 320.37 466.281 C319.523 466.584 319.201 466.727 318.896 466.986 C318.625 467.238 318.489 467.502 318.489 467.844 C318.489 468.425 318.879 468.647 319.625 468.515 C320.862 468.297 321.692 467.159 321.692 466.185 Z" fill="#002a53" fill-rule="nonzero"/>
    <path d="M383.566 485.81 C383.996 485.734 384.354 485.602 384.64 485.414 C384.925 485.225 385.14 484.988 385.284 484.704 C385.429 484.42 385.501 484.101 385.501 483.747 C385.501 483.357 385.394 483.049 385.181 482.824 C384.967 482.598 384.679 482.483 384.315 482.479 C384.569 482.36 384.772 482.163 384.925 481.889 C385.078 481.615 385.155 481.321 385.155 481.005 C385.155 480.512 384.995 480.169 384.676 479.979 C384.357 479.788 383.934 479.739 383.406 479.832 L381.684 480.136 L381.684 486.142 L383.566 485.81 Z M382.432 483.19 L383.532 482.996 C383.907 482.93 384.202 482.966 384.419 483.103 C384.635 483.24 384.743 483.485 384.743 483.836 C384.743 484.127 384.689 484.364 384.579 484.547 C384.469 484.73 384.323 484.871 384.14 484.968 C383.956 485.066 383.755 485.134 383.536 485.173 L382.432 485.368 L382.432 483.19 Z M382.432 480.638 L383.38 480.47 C383.706 480.413 383.959 480.447 384.138 480.571 C384.316 480.696 384.406 480.911 384.406 481.218 C384.406 481.524 384.317 481.784 384.14 481.997 C383.962 482.209 383.709 482.345 383.38 482.403 L382.432 482.57 L382.432 480.638 Z M388.997 484.853 L388.997 482.448 L390.801 478.528 L389.983 478.672 L388.62 481.822 L387.253 479.154 L386.435 479.298 L388.235 482.582 L388.235 484.987 L388.997 484.853 Z M398.313 483.21 L398.313 482.572 L395.686 483.035 L395.686 480.893 L398.105 480.467 L398.105 479.842 L395.686 480.269 L395.686 478.305 L398.313 477.842 L398.313 477.204 L394.937 477.799 L394.937 483.805 L398.313 483.21 Z M401.913 482.575 L401.913 477.212 L403.393 476.951 L403.393 476.308 L399.671 476.964 L399.671 477.607 L401.16 477.344 L401.16 482.708 L401.913 482.575 Z M408.434 481.425 L408.434 480.787 L405.807 481.251 L405.807 479.109 L408.226 478.682 L408.226 478.057 L405.807 478.484 L405.807 476.521 L408.434 476.057 L408.434 475.419 L405.058 476.014 L405.058 482.021 L408.434 481.425 Z M411.207 480.936 L411.207 477.853 L413.47 480.537 L414.366 480.379 L412.025 477.62 L414.193 474.404 L413.345 474.553 L411.207 477.822 L411.207 474.93 L410.458 475.062 L410.458 481.068 L411.207 480.936 Z M416.057 480.081 L416.581 478.275 L418.702 477.901 L419.204 479.526 L419.983 479.389 L418.04 473.725 L417.248 473.865 L415.283 480.218 L416.057 480.081 Z M417.641 474.55 L418.511 477.283 L416.772 477.59 L417.641 474.55 Z" fill="#002a53" fill-rule="nonzero"/>
    <path d="M116.194 186.557 L102.376 188.994 L109.103 155 L116.194 186.557 Z M125.831 229.852 L160.922 223.664 L126.558 94.7425 L91.83 100.866 L58.0114 241.81 L92.921 235.655 L96.1937 219.33 L122.376 214.713 L125.831 229.852 Z M217.83 177.26 L223.466 176.266 L239.648 141.167 L239.648 209.783 L272.74 203.948 L272.74 68.9667 L242.375 74.3207 L220.375 125.443 L198.557 82.0472 L168.193 87.4012 L168.193 222.382 L201.284 216.547 L201.284 147.745 L217.83 177.26 Z M323.285 195.035 L323.285 89.75 L287.649 96.0337 L287.649 201.319 L323.285 195.035 Z M377.285 187.951 C406.922 182.725 421.286 166.694 421.286 141.01 L421.286 132.761 C421.286 108.39 404.013 102.999 389.649 99.7203 C379.103 97.0804 370.012 95.6838 370.012 88.7473 L370.012 86.1227 C370.012 80.8734 372.012 77.7086 377.467 76.7468 C383.103 75.753 385.467 77.9608 385.467 84.7099 L385.467 92.3963 L419.831 86.337 L419.831 77.3382 C419.831 52.7792 404.74 43.0669 378.194 47.7476 C349.83 52.749 334.739 68.7206 334.739 93.2797 L334.739 97.4041 C334.739 121.026 351.285 126.17 365.648 129.636 C376.376 132.431 386.012 134.294 386.012 142.356 L386.012 147.417 C386.012 152.479 384.194 155.612 378.376 156.638 C371.649 157.824 369.649 154.615 369.649 148.616 L369.649 136.992 L333.466 143.372 L333.466 154.995 C333.466 181.617 344.557 193.722 377.285 187.951 Z" fill="#002a53" fill-rule="nonzero"/>
    <path d="M81.3996 378.564 C97.1559 375.786 103.953 368.376 103.953 355.315 L103.953 354.041 C104.03 344.232 99.5502 341.04 88.1192 339.551 C82.0947 338.782 80.4728 338.431 80.4728 336.758 L80.4728 336.042 C80.4728 334.927 80.9362 334.447 81.6313 334.324 C82.5581 334.161 83.176 334.609 83.176 336.043 L83.176 338.432 L103.335 334.877 L103.335 332.409 C103.489 320.675 95.9201 315.957 81.6313 318.476 C66.3384 321.173 59.4644 329.393 59.4644 340.941 L59.4644 341.578 C59.4644 351.214 64.0213 354.074 74.7572 355.685 C81.6313 356.782 83.176 356.988 83.176 358.899 L83.176 359.536 C83.176 360.651 82.7126 361.131 81.7858 361.294 C81.0134 361.43 80.4728 361.128 80.4728 359.694 L80.4728 357.146 L58.8465 360.959 L58.8465 362.95 C58.7693 375.706 64.7165 381.506 81.3996 378.564 Z M131.75 369.606 C145.266 367.223 153.763 359.911 153.763 343.267 L153.763 307.271 L132.909 310.948 L132.909 346.546 C132.909 349.094 132.677 349.533 131.982 349.656 C131.209 349.792 130.978 349.435 130.978 346.886 L130.978 311.288 L110.047 314.979 L110.047 350.975 C110.047 367.062 116.689 372.262 131.75 369.606 Z M182.556 360.648 C196.072 358.265 204.568 350.953 204.568 334.309 L204.568 298.312 L183.714 301.989 L183.714 337.588 C183.714 340.136 183.482 340.575 182.787 340.698 C182.015 340.834 181.783 340.477 181.783 337.928 L181.783 302.33 L160.852 306.021 L160.852 342.017 C160.852 358.104 167.494 363.304 182.556 360.648 Z M231.237 336.137 L227.684 314.942 L236.257 350.064 L260.201 345.842 L260.201 288.503 L241.046 291.88 L241.046 304.622 L245.294 329.039 L236.257 292.725 L211.773 297.042 L211.773 354.381 L231.237 350.949 L231.237 336.137 Z M286.993 326.305 L283.44 305.111 L292.014 340.233 L315.957 336.011 L315.957 278.671 L296.802 282.049 L296.802 294.791 L301.05 319.208 L292.014 282.893 L267.529 287.211 L267.529 344.55 L286.993 341.118 L286.993 326.305 Z M343.885 304.726 L344.348 293.416 L344.889 304.549 L346.124 311.578 L342.572 312.205 L343.885 304.726 Z M349.368 330.12 L369.913 326.497 L357.015 271.432 L331.527 275.926 L318.783 335.513 L339.096 331.931 L339.868 327.574 L348.673 326.021 L349.368 330.12 Z M392.126 307.768 L388.573 286.573 L397.146 321.695 L421.089 317.473 L421.089 260.134 L401.935 263.511 L401.935 276.253 L406.183 300.67 L397.146 264.356 L372.662 268.673 L372.662 326.012 L392.126 322.58 L392.126 307.768 Z" fill="#002a53" fill-rule="nonzero"/>
    <path d="M93.6802 277.084 L94.4526 266.515 L95.225 276.811 L96.4607 281.849 L92.4444 282.558 L93.6802 277.084 Z M101.867 304.31 L132.453 298.917 L114.611 244.723 L74.4483 251.805 L56.2204 312.359 L86.7289 306.979 L87.8102 302.249 L100.786 299.961 L101.867 304.31 Z M166.56 277.055 L160.381 256.722 L174.052 291.582 L207.727 285.644 L207.727 228.304 L178.3 233.493 L178.3 248.306 L184.247 267.724 L171.117 234.76 L136.824 240.807 L136.824 298.146 L166.56 292.903 L166.56 277.055 Z M272.212 242.577 L272.212 216.934 L214.362 227.135 L214.362 252.778 L226.488 250.64 L226.488 282.336 L260.086 276.412 L260.086 244.716 L272.212 242.577 Z M308.397 239.223 L309.169 228.655 L309.942 238.951 L311.177 243.989 L307.161 244.697 L308.397 239.223 Z M316.584 266.449 L347.17 261.056 L329.328 206.863 L289.165 213.945 L270.937 274.498 L301.446 269.119 L302.527 264.389 L315.503 262.101 L316.584 266.449 Z M387.201 225.328 L387.973 214.759 L388.745 225.056 L389.981 230.094 L385.965 230.802 L387.201 225.328 Z M395.388 252.554 L425.974 247.161 L408.132 192.968 L367.969 200.049 L349.741 260.603 L380.249 255.223 L381.331 250.493 L394.307 248.205 L395.388 252.554 Z" fill="#002a53" fill-rule="nonzero"/>
    <path d="M455.261 328.058 C374.565 342.201 59.8962 396.76 51.26 398.249 C32.0339 401.379 14.4666 393.385 20.8091 383.059 C22.7317 379.929 32.4173 375.583 41.9112 381.253 C53.9185 388.425 48 406.417 34.0387 415.093 C19.0096 424.433 -6.78741 428.252 -6.78741 428.252" fill="none" stroke="#002a53" stroke-width="8" stroke-linecap="round" stroke-linejoin="miter"/>
    <path d="M442.049 319.486 L455.261 328.058 L445.751 340.612" fill="none" stroke="#002a53" stroke-width="8" stroke-linecap="round" stroke-linejoin="miter"/>
  </g>
  <g transform="translate(306.1544 52)">
    <g id="rotating-star">
      <animateTransform attributeName="transform" type="rotate" from="0" to="360" dur="3s" repeatCount="indefinite"/>
      <path d="M55.2356 24.1214 L57.5514 7.03798 L42.5178 13.2697 L33.0709 .0182495 L25.982 15.733 L10.3063 14.0762 L15.3146 30.0685 L2.59264 40.9768 L16.7644 47.8786 L14.4486 64.962 L29.4821 58.7303 L38.929 71.9818 L46.018 56.267 L61.6937 57.9238 L56.6854 41.9315 L69.4074 31.0232 L55.2356 24.1214 Z" fill="#002a53" fill-rule="nonzero" transform="translate(-36 -36)"/>
    </g>
  </g>
</svg>
