<?xml version="1.0" encoding="UTF-8"?>
<svg xmlns="http://www.w3.org/2000/svg" xmlns:amisfits="https://amisfits.fi/metadata" viewBox="0 0 820 350" width="820" height="350" role="img" aria-labelledby="teema1-title teema1-desc">
  <title id="teema1-title">Amis antaa suunnan - teema 1</title>
  <desc id="teema1-desc">AMIS ANTAA SUUNNAN. Animated SVG, tight 820 x 350 crop. The star rotates once every 3 seconds around its own center.</desc>
  <metadata>
    <amisfits:text>AMIS ANTAA SUUNNAN</amisfits:text>
    <amisfits:animation>Star rotation, 360 degrees, 3 seconds, indefinite repeat.</amisfits:animation>
    <amisfits:source-crop>820x350</amisfits:source-crop>
  </metadata>
  <g id="logo-base">
    <path d="M770 273.365 L770 235.033 L643.333 257.333 L643.333 295.666 L770 273.365 Z M748.843 253.372 C749.022 253.467 749.988 253.369 750.543 253.271 C751.097 253.173 752.027 252.919 752.224 252.758 L752.224 263.17 L748.843 263.766 L748.843 253.372 Z M711.696 259.922 C711.874 260.017 712.84 259.919 713.395 259.821 C713.949 259.723 714.879 259.469 715.076 259.308 L715.076 269.721 L711.696 270.317 L711.696 259.922 Z M688.445 264.022 C688.623 264.117 689.589 264.019 690.144 263.921 C690.698 263.823 691.628 263.569 691.825 263.408 L691.825 273.82 L688.445 274.416 L688.445 264.022 Z M669.414 277.772 L666.731 278.245 L666.373 276.558 C665.783 277.835 664.656 278.882 662.725 279.222 C660.471 279.62 659.38 278.729 659.38 276.997 C659.38 275.734 659.899 274.83 660.739 274.159 C661.562 273.49 662.313 273.213 663.994 272.646 C665.569 272.152 666.212 271.858 666.212 271.191 C666.212 270.595 665.855 270.243 664.746 270.439 C663.601 270.64 663.047 271.28 663.011 272.26 L659.702 272.844 C659.863 270.379 661.508 268.483 664.746 267.912 C668.18 267.307 669.414 268.677 669.414 271.095 L669.414 277.772 Z M686.799 274.707 L683.544 275.281 L683.544 269.542 C683.544 268.279 683.222 267.488 682.077 267.689 C680.95 267.888 680.593 268.817 680.593 270.098 L680.593 275.801 L677.338 276.375 L677.338 270.6 C677.338 269.409 677.051 268.576 675.907 268.777 C674.78 268.976 674.368 269.969 674.368 271.358 L674.368 276.898 L671.095 277.476 L671.095 267.009 L673.832 266.527 L674.118 268.118 C674.655 266.887 675.692 265.982 677.159 265.723 C678.751 265.443 679.752 265.952 680.235 267.094 C680.772 265.826 681.809 264.903 683.329 264.635 C685.619 264.232 686.799 265.467 686.799 267.994 L686.799 274.707 Z M692.093 261.087 C692.093 262.278 691.467 262.821 690.144 263.055 C688.713 263.307 688.194 263.002 688.194 261.775 C688.194 260.547 688.838 260.019 690.144 259.789 C691.432 259.562 692.093 259.86 692.093 261.087 Z M696.439 265.572 C696.439 266.222 697.316 266.175 698.854 266.103 C700.643 266.022 702.789 266.094 702.789 268.531 C702.789 270.624 701.215 272.453 697.996 273.021 C694.901 273.567 693.22 272.492 692.88 270.133 L696.243 269.541 C696.457 270.387 697.101 270.67 698.157 270.484 C699.176 270.305 699.623 269.883 699.623 269.305 C699.623 268.584 698.496 268.692 697.209 268.757 C695.42 268.837 693.309 268.813 693.309 266.322 C693.309 264.283 694.901 262.577 697.835 262.06 C700.947 261.511 702.342 262.672 702.664 264.709 L699.462 265.274 C699.319 264.577 698.783 264.275 697.799 264.448 C696.797 264.625 696.439 265.067 696.439 265.572 Z M710.355 259.058 L709.335 259.238 C708.333 259.414 708.137 259.702 708.137 260.929 L708.137 261.091 L710.337 260.703 L710.337 263.555 L708.137 263.942 L708.119 270.947 L704.989 271.499 L704.989 264.498 L703.343 264.788 L703.343 261.937 L704.989 261.646 L704.989 261.051 C704.989 258.38 706.133 257.132 708.852 256.652 L710.355 256.387 L710.355 259.058 Z M715.344 256.987 C715.344 258.178 714.718 258.722 713.395 258.955 C711.964 259.207 711.445 258.902 711.445 257.675 C711.445 256.448 712.089 255.919 713.395 255.689 C714.683 255.462 715.344 255.76 715.344 256.987 Z M723.589 268.219 L721.944 268.51 C718.814 269.061 718.045 268.06 718.045 264.794 L718.045 261.636 L716.292 261.945 L716.292 259.22 C716.685 259.151 716.954 259.067 717.311 258.932 C717.973 258.725 718.224 258.392 718.331 257.489 C718.385 257.047 718.42 256.481 718.438 256.045 L721.121 255.572 L721.121 258.188 L723.589 257.753 L723.589 260.658 L721.121 261.094 L721.121 263.602 C721.121 265.406 721.389 265.558 722.928 265.286 L723.589 265.17 L723.589 268.219 Z M727.828 260.037 C727.828 260.687 728.704 260.641 730.243 260.568 C732.031 260.487 734.178 260.56 734.178 262.996 C734.178 265.089 732.604 266.919 729.384 267.486 C726.29 268.032 724.609 266.957 724.269 264.599 L727.631 264.006 C727.846 264.852 728.49 265.136 729.545 264.95 C730.565 264.77 731.012 264.348 731.012 263.771 C731.012 263.049 729.885 263.157 728.597 263.222 C726.809 263.303 724.698 263.278 724.698 260.788 C724.698 258.749 726.29 257.042 729.223 256.525 C732.335 255.976 733.731 257.138 734.052 259.174 L730.851 259.739 C730.708 259.042 730.171 258.74 729.187 258.913 C728.186 259.09 727.828 259.532 727.828 260.037 Z M739.436 263.711 C739.436 265.209 738.881 265.74 737.468 265.989 C735.966 266.254 735.519 265.954 735.519 264.402 C735.519 262.868 736.073 262.391 737.468 262.145 C738.863 261.899 739.436 262.177 739.436 263.711 Z M747.502 252.508 L746.483 252.688 C745.481 252.864 745.284 253.152 745.284 254.379 L745.284 254.541 L747.484 254.153 L747.484 257.004 L745.284 257.392 L745.267 264.397 L742.136 264.949 L742.136 257.947 L740.491 258.238 L740.491 255.386 L742.136 255.096 L742.136 254.501 C742.136 251.83 743.281 250.581 746 250.102 L747.502 249.837 L747.502 252.508 Z M752.492 250.437 C752.492 251.628 751.866 252.172 750.543 252.405 C749.112 252.657 748.593 252.352 748.593 251.125 C748.593 249.898 749.237 249.369 750.543 249.139 C751.83 248.912 752.492 249.21 752.492 250.437 Z M666.23 274.129 L666.23 273.497 C665.926 273.785 665.461 273.994 664.835 274.23 C663.941 274.55 663.601 274.701 663.279 274.974 C662.993 275.241 662.85 275.519 662.85 275.88 C662.85 276.493 663.261 276.728 664.048 276.589 C665.354 276.359 666.23 275.157 666.23 274.129 Z" fill="#002a53" fill-rule="nonzero"/>
    <path d="M731.542 294.845 C731.996 294.765 732.374 294.625 732.675 294.426 C732.977 294.227 733.203 293.977 733.356 293.677 C733.508 293.377 733.584 293.04 733.584 292.666 C733.584 292.255 733.471 291.93 733.246 291.692 C733.021 291.454 732.716 291.333 732.332 291.328 C732.6 291.202 732.815 290.995 732.977 290.706 C733.138 290.417 733.219 290.106 733.219 289.773 C733.219 289.252 733.05 288.89 732.714 288.689 C732.377 288.488 731.93 288.436 731.373 288.534 L729.555 288.855 L729.555 295.195 L731.542 294.845 Z M730.345 292.079 L731.506 291.874 C731.901 291.804 732.214 291.842 732.442 291.987 C732.671 292.132 732.785 292.39 732.785 292.76 C732.785 293.068 732.727 293.318 732.611 293.512 C732.495 293.705 732.341 293.853 732.147 293.956 C731.954 294.059 731.742 294.131 731.51 294.172 L730.345 294.377 L730.345 292.079 Z M730.345 289.385 L731.346 289.208 C731.69 289.147 731.956 289.183 732.145 289.314 C732.334 289.446 732.428 289.674 732.428 289.997 C732.428 290.32 732.335 290.594 732.147 290.819 C731.96 291.044 731.693 291.186 731.346 291.248 L730.345 291.424 L730.345 289.385 Z M737.274 293.834 L737.274 291.295 L739.179 287.158 L738.316 287.31 L736.877 290.635 L735.433 287.818 L734.57 287.971 L736.47 291.437 L736.47 293.976 L737.274 293.834 Z M747.108 292.1 L747.108 291.426 L744.335 291.915 L744.335 289.654 L746.889 289.204 L746.889 288.545 L744.335 288.995 L744.335 286.922 L747.108 286.434 L747.108 285.76 L743.545 286.388 L743.545 292.728 L747.108 292.1 Z M750.908 291.43 L750.908 285.768 L752.47 285.493 L752.47 284.814 L748.541 285.507 L748.541 286.185 L750.113 285.908 L750.113 291.57 L750.908 291.43 Z M757.791 290.216 L757.791 289.543 L755.018 290.032 L755.018 287.771 L757.572 287.32 L757.572 286.661 L755.018 287.111 L755.018 285.039 L757.791 284.55 L757.791 283.876 L754.228 284.505 L754.228 290.844 L757.791 290.216 Z M760.718 289.7 L760.718 286.445 L763.108 289.279 L764.053 289.112 L761.582 286.199 L763.87 282.804 L762.975 282.962 L760.718 286.412 L760.718 283.36 L759.928 283.499 L759.928 289.839 L760.718 289.7 Z M765.838 288.797 L766.391 286.891 L768.63 286.496 L769.159 288.212 L769.982 288.067 L767.931 282.088 L767.095 282.236 L765.021 288.941 L765.838 288.797 Z M767.51 282.958 L768.429 285.844 L766.592 286.168 L767.51 282.958 Z" fill="#002a53" fill-rule="nonzero"/>
    <path d="M814.214 134.906 C733.518 149.05 45.6442 271.834 37.008 273.322 C17.7819 276.452 -.992371 268.458 5.35001 258.132 C7.27261 255.002 18.1654 250.656 27.6593 256.326 C39.6665 263.498 33.748 281.49 19.7867 290.167 C15.2126 293.009 9.60822 295.34 4.07001 297.208" fill="none" stroke="#002a53" stroke-width="8" stroke-linecap="round" stroke-linejoin="miter"/>
    <path d="M801.001 126.335 L814.214 134.906 L804.704 147.46" fill="none" stroke="#002a53" stroke-width="8" stroke-linecap="round" stroke-linejoin="miter"/>
    <path d="M70.3612 329.432 L70.3612 321.158 L49.0429 324.917 L49.0429 333.191 L55.069 332.128 L55.069 346.335 L64.214 344.722 L64.214 330.516 L70.3612 329.432 Z M80.899 327.73 L80.899 327.667 L80.9293 327.756 L82.4434 332.453 L79.3849 332.993 L80.899 327.73 Z M85.1687 341.027 L94.4349 339.394 L86.1983 318.365 L75.7511 320.207 L67.3328 344.172 L76.599 342.539 L77.4469 339.579 L84.3208 338.367 L85.1687 341.027 Z M104.609 337.6 L104.609 315.119 L95.4039 316.742 L95.4039 339.223 L104.609 337.6 Z M107.759 337.044 L119.114 335.042 C126.321 333.771 131.227 329.284 131.227 321.947 L131.227 321.385 C131.227 314.047 126.412 311.274 119.084 312.567 L107.759 314.564 L107.759 337.044 Z M118.569 320.338 C120.962 319.916 121.9 320.75 121.9 323.123 L121.9 323.404 C121.9 325.59 120.962 326.91 118.569 327.332 L116.752 327.653 L116.752 320.659 L118.569 320.338 Z M145.792 330.9 C153.453 329.549 158.299 325.042 158.299 317.236 L158.299 316.643 C158.299 309.305 153.272 305.976 145.944 307.269 C138.343 308.609 133.346 313.705 133.346 321.042 L133.346 321.636 C133.346 329.441 137.919 332.288 145.792 330.9 Z M145.823 322.808 C143.854 323.155 142.703 322.171 142.703 319.892 L142.703 319.486 C142.703 317.3 143.854 315.755 145.823 315.408 C147.761 315.066 148.911 316.175 148.911 318.391 L148.911 318.797 C148.911 321.077 147.761 322.466 145.823 322.808 Z M181.191 309.89 L181.191 301.615 L159.873 305.374 L159.873 313.649 L165.899 312.586 L165.899 326.792 L175.044 325.18 L175.044 310.973 L181.191 309.89 Z M204.235 320.595 C211.048 319.394 215.712 314.949 215.712 307.456 L215.712 306.55 C215.712 299.244 210.927 296.091 204.205 297.277 C197.512 298.457 192.789 303.38 192.789 310.624 L192.789 311.467 C192.789 319.147 197.21 321.834 204.235 320.595 Z M204.205 316.26 C199.935 317.013 197.573 315.15 197.573 310.529 L197.573 309.905 C197.573 305.034 199.935 302.338 204.235 301.58 C208.474 300.832 210.927 302.554 210.927 307.581 L210.927 308.206 C210.927 313.045 208.474 315.507 204.205 316.26 Z M230.368 315.425 L239.725 291.513 L234.758 292.389 L228.127 309.981 L221.828 294.669 L216.832 295.55 L225.644 316.258 L230.368 315.425 Z M252.231 302.734 L244.964 304.015 L248.537 294.705 L252.231 302.734 Z M255.986 310.908 L260.862 310.048 L250.99 289.527 L246.114 290.386 L236.424 314.357 L241.33 313.492 L243.359 308.232 L253.897 306.374 L255.986 310.908 Z M277.214 289.024 L277.214 284.903 L258.106 288.272 L258.106 292.393 L265.132 291.155 L265.132 309.295 L269.886 308.457 L269.886 290.316 L277.214 289.024 Z M307.344 283.711 L307.344 279.59 L288.236 282.959 L288.236 287.081 L295.261 285.842 L295.261 303.982 L300.016 303.144 L300.016 285.004 L307.344 283.711 Z M320.425 300.107 C327.239 298.906 331.902 294.462 331.902 286.968 L331.902 286.063 C331.902 278.757 327.118 275.604 320.395 276.789 C313.703 277.969 308.979 282.892 308.979 290.136 L308.979 290.979 C308.979 298.66 313.4 301.346 320.425 300.107 Z M320.395 295.773 C316.125 296.526 313.763 294.663 313.763 290.042 L313.763 289.417 C313.763 284.546 316.125 281.851 320.425 281.093 C324.665 280.345 327.118 282.067 327.118 287.094 L327.118 287.718 C327.118 292.558 324.665 295.02 320.395 295.773 Z M336.171 296.769 L345.468 295.13 C352.735 293.848 357.096 289.801 357.096 282.463 L357.096 281.62 C357.096 274.127 352.614 271.608 345.226 272.91 L336.171 274.507 L336.171 296.769 Z M345.014 277.069 C350.071 276.177 352.372 277.77 352.372 282.547 L352.372 283.078 C352.372 287.824 350.131 290.124 345.226 290.989 L340.744 291.779 L340.744 277.822 L345.014 277.069 Z M380.2 284.821 L365.786 287.363 L365.786 282.399 L377.505 280.332 L377.505 276.242 L365.786 278.308 L365.786 273.344 L379.625 270.904 L379.625 266.845 L361.335 270.07 L361.335 292.332 L380.2 289.005 L380.2 284.821 Z M401.518 285.246 L401.518 280.75 L388.739 283.004 L388.739 265.238 L384.076 266.06 L384.076 288.322 L401.518 285.246 Z M422.866 281.482 L422.866 276.986 L410.087 279.239 L410.087 261.473 L405.424 262.296 L405.424 284.558 L422.866 281.482 Z M431.466 279.966 L431.466 257.704 L426.802 258.526 L426.802 280.788 L431.466 279.966 Z M441.096 262.375 L441.429 262.941 L453.117 276.148 L457.508 275.374 L457.508 253.112 L453.087 253.891 L453.087 269.316 L453.117 269.56 L452.784 269.026 L441.217 255.985 L436.674 256.785 L436.674 279.048 L441.096 278.268 L441.096 262.375 Z M481.552 266.951 L467.138 269.492 L467.138 264.528 L478.857 262.461 L478.857 258.371 L467.138 260.437 L467.138 255.473 L480.977 253.033 L480.977 248.974 L462.686 252.199 L462.686 274.461 L481.552 271.134 L481.552 266.951 Z M489.849 253.779 L490.182 254.345 L501.87 267.552 L506.261 266.777 L506.261 244.515 L501.84 245.295 L501.84 260.719 L501.87 260.964 L501.537 260.429 L489.97 247.388 L485.428 248.189 L485.428 270.451 L489.849 269.671 L489.849 253.779 Z M534.423 261.812 L544.597 260.018 L536.997 247.714 L544.688 237.521 L534.029 239.401 L528.336 247.242 L528.336 240.404 L519.373 241.985 L519.373 264.466 L528.336 262.885 L528.336 257.015 L530.183 254.504 L534.423 261.812 Z M555.619 258.074 L555.619 235.594 L546.414 237.217 L546.414 259.697 L555.619 258.074 Z M577.876 254.15 L577.876 245.407 L568.216 247.111 L568.216 233.372 L558.769 235.038 L558.769 257.519 L577.876 254.15 Z M591.806 236.738 C593.562 236.428 594.228 236.873 594.228 238.122 C594.228 239.371 593.562 240.019 591.806 240.328 L588.989 240.825 L588.989 237.234 L591.806 236.738 Z M591.987 247.353 C599.618 246.007 603.101 242.427 603.101 236.495 C603.101 230.531 599.709 227.819 591.927 229.192 L580.359 231.231 L580.359 253.712 L588.989 252.19 L588.989 247.881 L591.987 247.353 Z M615.092 233.537 L615.092 233.475 L615.122 233.563 L616.637 238.261 L613.578 238.8 L615.092 233.537 Z M619.362 246.835 L628.628 245.201 L620.392 224.173 L609.944 226.015 L601.526 249.98 L610.792 248.346 L611.64 245.386 L618.514 244.174 L619.362 246.835 Z M638.803 243.407 L638.803 220.926 L629.597 222.549 L629.597 245.03 L638.803 243.407 Z M661.06 239.482 L661.06 230.74 L651.4 232.443 L651.4 218.705 L641.952 220.371 L641.952 242.852 L661.06 239.482 Z M674.596 237.658 C682.075 236.339 686.163 232.152 686.163 223.909 L686.163 212.575 L676.806 214.225 L676.806 225.497 C676.806 227.963 676.11 228.898 674.626 229.16 C673.142 229.421 672.415 228.706 672.415 226.271 L672.415 214.999 L663.058 216.649 L663.058 227.983 C663.058 236.07 666.147 239.147 674.596 237.658 Z M709.48 223.607 L697.67 225.69 L697.67 224.003 L708.753 222.049 L708.753 217.21 L697.67 219.164 L697.67 217.572 L709.237 215.532 L709.237 208.507 L689.07 212.063 L689.07 234.543 L709.48 230.945 L709.48 223.607 Z M732.917 212.605 L732.917 204.331 L711.599 208.09 L711.599 216.364 L717.625 215.302 L717.625 229.508 L726.77 227.896 L726.77 213.689 L732.917 212.605 Z M746.786 224.928 C754.266 223.61 758.354 219.423 758.354 211.18 L758.354 199.846 L748.997 201.496 L748.997 212.768 C748.997 215.234 748.3 216.169 746.816 216.43 C745.333 216.692 744.606 215.977 744.606 213.542 L744.606 202.27 L735.249 203.92 L735.249 215.254 C735.249 223.341 738.338 226.418 746.786 224.928 Z M765.803 221.419 C769.527 220.762 770.739 219.799 770.739 216.115 C770.739 212.337 769.406 211.854 765.803 212.489 C762.169 213.13 760.897 214.072 760.897 217.851 C760.897 221.628 761.866 222.113 765.803 221.419 Z" fill="#002a53" fill-rule="nonzero"/>
    <path d="M65.4859 308.706 L76.2358 306.81 L68.3323 294.559 L76.357 284.308 L65.0619 286.3 L59.0662 294.289 L59.0662 287.357 L49.6183 289.023 L49.6183 311.504 L59.0662 309.838 L59.0662 303.968 L61.0042 301.409 L65.4859 308.706 Z M88.712 291.122 L88.9239 290.054 L89.1359 291.078 L90.4683 295.121 L87.3493 295.671 L88.712 291.122 Z M93.3148 303.799 L103.096 302.074 L94.6169 281.089 L83.3521 283.075 L74.631 307.093 L84.4423 305.363 L85.3204 302.398 L92.4366 301.144 L93.3148 303.799 Z M84.8965 281.678 C87.5007 281.219 88.3486 280.32 88.3486 277.76 C88.3486 275.075 87.4099 274.522 84.8965 274.966 C82.3831 275.409 81.5049 276.282 81.5049 278.967 C81.5049 281.59 82.1409 282.164 84.8965 281.678 Z M92.8 280.285 C95.4345 279.82 96.2521 278.927 96.2521 276.367 C96.2521 273.681 95.3436 273.123 92.8 273.572 C90.226 274.026 89.4084 274.888 89.4084 277.573 C89.4084 280.196 90.0746 280.765 92.8 280.285 Z M116.238 299.757 L116.238 290.983 L124.656 275.792 L114.603 277.564 L111.514 283.542 L108.456 278.648 L98.3414 280.432 L106.548 292.723 L106.548 301.465 L116.238 299.757 Z M147.276 280.452 L147.276 271.803 L124.868 275.755 L124.868 284.403 L131.166 283.293 L131.166 297.125 L140.856 295.416 L140.856 281.584 L147.276 280.452 Z M158.208 278.868 L158.42 277.8 L158.632 278.824 L159.964 282.867 L156.845 283.417 L158.208 278.868 Z M162.811 291.545 L172.592 289.82 L164.113 268.835 L152.848 270.821 L144.127 294.839 L153.938 293.109 L154.816 290.144 L161.932 288.89 L162.811 291.545 Z M154.392 269.424 C156.997 268.965 157.844 268.066 157.844 265.506 C157.844 262.821 156.906 262.268 154.392 262.712 C151.879 263.155 151.001 264.028 151.001 266.713 C151.001 269.336 151.637 269.91 154.392 269.424 Z M162.296 268.031 C164.93 267.566 165.748 266.673 165.748 264.113 C165.748 261.427 164.839 260.869 162.296 261.318 C159.722 261.772 158.904 262.634 158.904 265.319 C158.904 267.942 159.57 268.511 162.296 268.031 Z M190.366 286.686 L199.148 285.137 L199.148 262.657 L190.033 264.264 L190.033 274.255 L182.463 265.599 L173.409 267.195 L173.409 289.676 L182.554 288.063 L182.554 277.604 L190.366 286.686 Z M219.255 281.592 L228.036 280.044 L228.036 257.563 L218.922 259.17 L218.922 269.162 L211.351 260.505 L202.297 262.102 L202.297 284.582 L211.442 282.97 L211.442 272.51 L219.255 281.592 Z M243.722 277.871 C251.928 276.424 256.955 271.76 256.955 263.767 C256.955 256.336 251.716 252.794 243.904 254.172 C235.819 255.598 230.489 261.002 230.489 268.433 C230.489 276.426 235.364 279.345 243.722 277.871 Z M243.722 269.41 C241.663 269.773 240.331 268.821 240.331 266.698 C240.331 264.669 241.663 263.091 243.722 262.728 C245.781 262.365 247.114 263.472 247.114 265.502 C247.114 267.625 245.781 269.047 243.722 269.41 Z M239.846 254.107 C242.45 253.648 243.298 252.749 243.298 250.189 C243.298 247.503 242.359 246.951 239.846 247.394 C237.333 247.837 236.454 248.71 236.454 251.395 C236.454 254.018 237.09 254.593 239.846 254.107 Z M247.75 252.713 C250.384 252.249 251.202 251.355 251.202 248.795 C251.202 246.11 250.293 245.552 247.75 246 C245.176 246.454 244.358 247.316 244.358 250.002 C244.358 252.624 245.024 253.194 247.75 252.713 Z M276.365 271.522 L285.147 269.974 L285.147 247.493 L276.032 249.1 L276.032 259.091 L268.462 250.435 L259.408 252.031 L259.408 274.512 L268.553 272.9 L268.553 262.44 L276.365 271.522 Z M312.006 265.238 L322.756 263.342 L314.853 251.091 L322.877 240.84 L311.582 242.832 L305.587 250.82 L305.587 243.889 L296.139 245.555 L296.139 268.035 L305.587 266.369 L305.587 260.5 L307.525 257.941 L312.006 265.238 Z M334.536 261.858 C342.742 260.411 347.769 255.747 347.769 247.754 C347.769 240.323 342.53 236.781 334.718 238.159 C326.632 239.585 321.303 244.989 321.303 252.42 C321.303 260.414 326.178 263.332 334.536 261.858 Z M334.536 253.397 C332.477 253.76 331.144 252.808 331.144 250.685 C331.144 248.656 332.477 247.078 334.536 246.715 C336.595 246.352 337.927 247.46 337.927 249.489 C337.927 251.612 336.595 253.034 334.536 253.397 Z M366.089 255.701 L376.839 253.806 L368.935 241.555 L376.96 231.304 L365.665 233.295 L359.669 241.284 L359.669 234.353 L350.221 236.019 L350.221 258.499 L359.669 256.833 L359.669 250.963 L361.607 248.405 L366.089 255.701 Z M400.155 242.138 L387.619 244.349 L387.619 242.694 L399.338 240.628 L399.338 236.132 L387.619 238.198 L387.619 236.668 L399.883 234.506 L399.883 227.262 L378.595 231.016 L378.595 253.496 L400.155 249.694 L400.155 242.138 Z M416.053 241.927 L416.689 241.815 L420.747 236.291 L420.747 246.064 L430.134 244.408 L430.134 221.928 L421.686 223.417 L416.568 230.939 L411.299 225.249 L402.76 226.755 L402.76 249.235 L412.177 247.575 L412.177 237.864 L416.053 241.927 Z M445.275 242.332 C453.239 240.928 457.539 236.579 457.539 228.055 L457.539 217.096 L447.697 218.831 L447.697 229.79 C447.697 232.194 446.88 233.213 445.335 233.485 C443.7 233.773 442.913 233.038 442.913 230.634 L442.913 219.675 L433.071 221.41 L433.071 232.369 C433.071 240.706 436.221 243.928 445.275 242.332 Z M472.679 237.562 C481.521 236.003 485.185 231.954 485.185 227.27 C485.185 222.368 481.703 221.234 475.314 221.892 C470.196 222.42 469.439 222.397 469.439 221.835 C469.439 221.367 469.923 220.844 471.589 220.551 C473.466 220.22 474.617 220.485 474.95 221.332 L484.943 219.57 C483.368 213.946 479.25 212.518 471.892 213.815 C464.382 215.14 459.84 219.032 459.84 224.246 C459.84 228.742 463.019 230.117 469.499 229.443 C474.738 228.925 475.647 228.921 475.647 229.608 C475.647 230.107 475.071 230.49 473.557 230.757 C471.983 231.035 470.256 230.995 469.954 229.987 L459.295 231.867 C460.052 236.854 463.261 239.223 472.679 237.562 Z M503.566 232.022 C509.471 230.981 512.741 227.189 512.741 220.476 L512.741 207.58 L507.896 208.435 L507.896 221.205 C507.896 225.42 506.594 227.055 503.566 227.589 C500.417 228.144 499.448 226.66 499.387 223.736 L499.387 223.361 L494.542 224.215 L494.542 224.621 C494.603 230.449 497.48 233.096 503.566 232.022 Z M529.972 217.968 L522.704 219.25 L526.277 209.94 L529.972 217.968 Z M533.727 226.142 L538.602 225.283 L528.73 204.761 L523.855 205.621 L514.165 229.592 L519.071 228.727 L521.099 223.467 L531.637 221.609 L533.727 226.142 Z M570.943 205.748 L570.943 197.099 L548.534 201.051 L548.534 209.699 L554.833 208.589 L554.833 222.421 L564.523 220.712 L564.523 206.88 L570.943 205.748 Z M588.99 216.398 L588.99 207.624 L597.408 192.433 L587.355 194.205 L584.266 200.183 L581.208 195.289 L571.094 197.073 L579.3 209.364 L579.3 218.106 L588.99 216.398 Z M608.704 213.515 C616.91 212.068 621.937 207.404 621.937 199.411 C621.937 191.98 616.698 188.438 608.885 189.816 C600.8 191.242 595.47 196.646 595.47 204.077 C595.47 212.07 600.346 214.989 608.704 213.515 Z M608.704 205.054 C606.644 205.417 605.312 204.465 605.312 202.342 C605.312 200.312 606.644 198.735 608.704 198.372 C610.763 198.009 612.095 199.116 612.095 201.146 C612.095 203.269 610.763 204.69 608.704 205.054 Z M604.827 189.751 C607.432 189.292 608.28 188.393 608.28 185.832 C608.28 183.147 607.341 182.595 604.827 183.038 C602.314 183.481 601.436 184.354 601.436 187.039 C601.436 189.662 602.072 190.237 604.827 189.751 Z M612.731 188.357 C615.365 187.893 616.183 186.999 616.183 184.439 C616.183 181.754 615.275 181.196 612.731 181.644 C610.157 182.098 609.339 182.96 609.339 185.646 C609.339 188.268 610.006 188.838 612.731 188.357 Z M645.949 198.798 L633.413 201.009 L633.413 199.354 L645.132 197.288 L645.132 192.792 L633.413 194.858 L633.413 193.328 L645.677 191.166 L645.677 183.922 L624.389 187.675 L624.389 210.156 L645.949 206.354 L645.949 198.798 Z M668.63 202.355 L668.63 193.269 L658.516 195.053 L658.516 181.658 L648.554 183.414 L648.554 205.895 L668.63 202.355 Z M683.438 186.256 L683.65 185.188 L683.862 186.212 L685.194 190.255 L682.075 190.805 L683.438 186.256 Z M688.041 198.933 L697.822 197.208 L689.343 176.222 L678.078 178.209 L669.357 202.227 L679.168 200.497 L680.046 197.532 L687.163 196.277 L688.041 198.933 Z M679.622 176.812 C682.227 176.353 683.074 175.454 683.074 172.894 C683.074 170.209 682.136 169.656 679.622 170.099 C677.109 170.542 676.231 171.415 676.231 174.101 C676.231 176.723 676.867 177.298 679.622 176.812 Z M687.526 175.419 C690.16 174.954 690.978 174.061 690.978 171.5 C690.978 168.815 690.07 168.257 687.526 168.706 C684.952 169.159 684.134 170.022 684.134 172.707 C684.134 175.33 684.801 175.899 687.526 175.419 Z M711.933 189.755 L712.569 189.643 L716.626 184.119 L716.626 193.892 L726.014 192.237 L726.014 169.756 L717.565 171.246 L712.447 178.768 L707.178 173.077 L698.639 174.583 L698.639 197.064 L708.057 195.403 L708.057 185.693 L711.933 189.755 Z M740.942 176.116 L741.154 175.048 L741.366 176.073 L742.698 180.115 L739.579 180.665 L740.942 176.116 Z M745.545 188.793 L755.326 187.068 L746.847 166.083 L735.582 168.069 L726.861 192.087 L736.672 190.357 L737.55 187.393 L744.667 186.138 L745.545 188.793 Z M737.126 166.673 C739.731 166.213 740.579 165.315 740.579 162.754 C740.579 160.069 739.64 159.517 737.126 159.96 C734.613 160.403 733.735 161.276 733.735 163.961 C733.735 166.584 734.371 167.159 737.126 166.673 Z M745.03 165.279 C747.664 164.815 748.482 163.921 748.482 161.361 C748.482 158.676 747.574 158.118 745.03 158.566 C742.456 159.02 741.638 159.882 741.638 162.567 C741.638 165.19 742.305 165.76 745.03 165.279 Z M772.98 168.5 L755.78 171.533 L755.78 180.338 L772.98 177.305 L772.98 168.5 Z" fill="#002a53" fill-rule="nonzero"/>
    <path d="M336.308 111.648 L336.308 109.201 C336.308 104.309 338.209 101.352 343.395 100.438 C348.754 99.4931 351.001 101.543 351.001 107.834 L351.001 114.998 L383.671 109.237 L383.671 100.85 C383.671 77.9593 369.324 68.9564 344.087 73.4064 C317.121 78.1612 302.773 93.0974 302.773 115.988 L302.773 119.832 C302.773 141.849 318.503 146.589 332.159 149.773 C342.358 152.343 351.519 154.048 351.519 161.562 L351.519 166.28 C351.519 170.997 349.791 173.923 344.259 174.899 C337.864 176.026 335.962 173.042 335.962 167.45 L335.962 156.616 L301.563 162.682 L301.563 173.515 C301.563 198.328 312.108 209.574 343.222 204.088 C371.398 199.12 385.054 184.131 385.054 160.192 L385.054 152.503 C385.054 129.787 368.632 124.82 354.977 121.811 C344.951 119.385 336.308 118.113 336.308 111.648 Z M258.004 216.843 L291.884 210.869 L291.884 112.736 L258.004 118.71 L258.004 216.843 Z M212.37 224.889 L243.83 219.342 L243.83 93.5306 L214.963 98.6207 L194.047 146.343 L173.304 105.966 L144.437 111.056 L144.437 221.945 L141.612 222.443 L112.805 116.591 L79.7895 122.413 L47.6378 253.893 L80.8266 248.041 L83.9381 232.814 L108.83 228.425 L112.114 242.524 L175.897 231.32 L175.897 167.192 L191.627 194.647 L196.986 193.703 L212.37 160.935 L212.37 224.889 Z M102.953 202.202 L89.8153 204.519 L96.211 172.812 L102.953 202.202 Z" fill="#002a53" fill-rule="nonzero"/>
    <path d="M431.172 187.167 C446.221 184.514 453.783 176.319 453.783 163.921 C453.783 151.602 444.255 150.007 436.617 149.404 C431.475 148.985 427.24 149.03 427.24 146.535 C427.24 144.82 428.223 143.321 431.097 142.814 C434.046 142.294 435.558 143.353 435.558 146.472 L435.558 146.628 L453.027 143.548 L453.027 143.314 C453.027 130.76 445.087 126.001 431.626 128.374 C417.031 130.948 409.242 139.494 409.242 150.645 C409.242 162.73 418.392 164.158 425.955 164.696 C431.248 165.088 435.785 165.145 435.785 168.03 C435.785 169.902 434.651 171.193 431.777 171.7 C428.223 172.327 426.938 170.76 426.938 167.875 L426.938 167.329 L408.637 170.556 L408.637 170.712 C408.637 183.89 414.006 190.194 431.172 187.167 Z M480.627 178.447 C494.391 176.02 502.785 166.899 502.785 149.355 L502.785 117.23 L484.257 120.497 L484.257 151.92 C484.257 158.47 483.577 160.227 480.627 160.747 C478.132 161.187 476.922 159.529 476.922 153.214 L476.922 121.791 L458.395 125.058 L458.395 157.182 C458.395 174.726 465.503 181.114 480.627 178.447 Z M531.142 169.54 C544.906 167.113 553.3 157.992 553.3 140.448 L553.3 108.323 L534.772 111.59 L534.772 143.013 C534.772 149.563 534.092 151.32 531.142 151.84 C528.647 152.28 527.437 150.622 527.437 144.306 L527.437 112.884 L508.91 116.15 L508.91 148.275 C508.91 165.819 516.018 172.207 531.142 169.54 Z M592.018 157.636 L608.125 154.796 L608.125 98.6561 L591.715 101.55 L591.715 127.826 L576.288 104.27 L559.727 107.19 L559.727 163.33 L576.137 160.437 L576.137 133.614 L592.018 157.636 Z M647.145 147.916 L663.252 145.076 L663.252 88.9356 L646.842 91.8291 L646.842 118.106 L631.416 94.5493 L614.855 97.4695 L614.855 153.61 L631.264 150.716 L631.264 123.894 L647.145 147.916 Z M696.298 117.729 L689.719 118.889 L692.971 106.152 L696.298 117.729 Z M702.272 138.196 L720.119 135.049 L701.97 82.1087 L684.123 85.2556 L666.201 144.556 L683.972 141.422 L685.862 133.994 L700.306 131.447 L702.272 138.196 Z M755.282 128.849 L771.389 126.008 L771.389 69.8682 L754.979 72.7617 L754.979 99.0384 L739.553 75.4818 L722.991 78.402 L722.991 134.542 L739.401 131.649 L739.401 104.826 L755.282 128.849 Z" fill="#002a53" fill-rule="nonzero"/>
    <path d="M442.213 86.9319 L442.969 76.5842 L443.726 86.6652 L444.936 91.5981 L441.003 92.2914 L442.213 86.9319 Z M450.229 113.589 L480.175 108.308 L462.707 55.2483 L423.383 62.182 L405.537 121.469 L435.407 116.202 L436.466 111.571 L449.17 109.331 L450.229 113.589 Z M515.943 86.4849 L509.894 66.577 L523.279 100.708 L556.25 94.8943 L556.25 38.7541 L527.438 43.8344 L527.438 58.3373 L533.261 77.3495 L520.405 45.0744 L486.829 50.9948 L486.829 107.135 L515.943 102.001 L515.943 86.4849 Z M623.098 52.074 L623.098 26.9668 L566.458 36.9541 L566.458 62.0612 L578.331 59.9678 L578.331 91.0008 L611.226 85.2005 L611.226 54.1674 L623.098 52.074 Z M659.472 48.6233 L660.228 38.2755 L660.985 48.3566 L662.194 53.2895 L658.262 53.9828 L659.472 48.6233 Z M667.488 75.28 L697.434 69.9997 L679.965 16.9396 L640.642 23.8734 L622.796 83.1604 L652.666 77.8935 L653.725 73.2624 L666.429 71.0222 L667.488 75.28 Z M736.757 34.9959 L737.513 24.6482 L738.269 34.7293 L739.479 39.6621 L735.547 40.3555 L736.757 34.9959 Z M744.772 61.6526 L774.719 56.3723 L757.25 3.3123 L717.927 10.246 L700.08 69.5331 L729.951 64.2661 L731.009 59.635 L743.714 57.3949 L744.772 61.6526 Z" fill="#002a53" fill-rule="nonzero"/>
  </g>
  <g id="star-position" transform="translate(274.3303 76.7089)">
    <g id="rotating-star">
      <animateTransform attributeName="transform" type="rotate" from="0" to="360" dur="3s" repeatCount="indefinite"/>
      <path d="M55.2356 24.1214 L57.5514 7.03798 L42.5178 13.2697 L33.0709 .0182495 L25.982 15.733 L10.3063 14.0762 L15.3146 30.0685 L2.59264 40.9768 L16.7644 47.8786 L14.4486 64.962 L29.4821 58.7303 L38.929 71.9818 L46.018 56.267 L61.6937 57.9238 L56.6854 41.9315 L69.4074 31.0232 L55.2356 24.1214 Z" fill="#002a53" fill-rule="nonzero" transform="translate(-36 -36)"/>
    </g>
    <g id="rotating-star-static" display="none">
      <path d="M55.2356 24.1214 L57.5514 7.03798 L42.5178 13.2697 L33.0709 .0182495 L25.982 15.733 L10.3063 14.0762 L15.3146 30.0685 L2.59264 40.9768 L16.7644 47.8786 L14.4486 64.962 L29.4821 58.7303 L38.929 71.9818 L46.018 56.267 L61.6937 57.9238 L56.6854 41.9315 L69.4074 31.0232 L55.2356 24.1214 Z" fill="#002a53" fill-rule="nonzero" transform="translate(-36 -36)"/>
    </g>
  </g>
  <style>
    @media (prefers-reduced-motion: reduce) {
      #rotating-star { display: none; }
      #rotating-star-static { display: inline; }
    }
  </style>
</svg>
