<?xml version="1.0" encoding="UTF-8"?>
<svg xmlns="http://www.w3.org/2000/svg" viewBox="0 0 960 400" width="960" height="400" role="img" aria-labelledby="title">
  <title id="title">Amis antaa suunnan - desktop, animoitu tähti</title>
  <g id="logo-base">
    <path d="M840 295.536 L840 257.204 L713.333 279.504 L713.333 317.837 L840 295.536 Z M818.843 275.543 C819.022 275.638 819.988 275.54 820.543 275.442 C821.097 275.344 822.027 275.09 822.224 274.929 L822.224 285.341 L818.843 285.937 L818.843 275.543 Z M781.696 282.093 C781.874 282.188 782.84 282.09 783.395 281.992 C783.949 281.894 784.879 281.64 785.076 281.479 L785.076 291.891 L781.696 292.488 L781.696 282.093 Z M758.445 286.193 C758.623 286.288 759.589 286.19 760.144 286.092 C760.698 285.994 761.628 285.74 761.825 285.579 L761.825 295.991 L758.445 296.587 L758.445 286.193 Z M739.414 299.943 L736.731 300.416 L736.373 298.729 C735.783 300.006 734.656 301.053 732.725 301.393 C730.471 301.791 729.38 300.9 729.38 299.168 C729.38 297.905 729.899 297.001 730.739 296.33 C731.562 295.661 732.313 295.384 733.994 294.817 C735.569 294.323 736.212 294.029 736.212 293.361 C736.212 292.766 735.855 292.414 734.746 292.61 C733.601 292.811 733.047 293.451 733.011 294.431 L729.702 295.015 C729.863 292.55 731.508 290.654 734.746 290.083 C738.18 289.478 739.414 290.848 739.414 293.266 L739.414 299.943 Z M756.799 296.878 L753.544 297.451 L753.544 291.713 C753.544 290.45 753.222 289.658 752.077 289.86 C750.95 290.059 750.593 290.988 750.593 292.269 L750.593 297.972 L747.338 298.546 L747.338 292.771 C747.338 291.58 747.051 290.747 745.907 290.948 C744.78 291.147 744.368 292.14 744.368 293.529 L744.368 299.069 L741.095 299.647 L741.095 289.18 L743.832 288.698 L744.118 290.289 C744.655 289.058 745.692 288.153 747.159 287.894 C748.751 287.614 749.752 288.123 750.235 289.265 C750.772 287.997 751.809 287.074 753.329 286.806 C755.619 286.403 756.799 287.638 756.799 290.165 L756.799 296.878 Z M762.093 283.258 C762.093 284.449 761.467 284.992 760.144 285.226 C758.713 285.478 758.194 285.173 758.194 283.946 C758.194 282.718 758.838 282.19 760.144 281.96 C761.432 281.733 762.093 282.031 762.093 283.258 Z M766.439 287.743 C766.439 288.393 767.316 288.346 768.854 288.274 C770.643 288.193 772.789 288.265 772.789 290.702 C772.789 292.795 771.215 294.624 767.996 295.192 C764.901 295.738 763.22 294.663 762.88 292.304 L766.243 291.712 C766.457 292.558 767.101 292.841 768.157 292.655 C769.176 292.476 769.623 292.054 769.623 291.476 C769.623 290.755 768.496 290.863 767.209 290.928 C765.42 291.008 763.309 290.984 763.309 288.493 C763.309 286.454 764.901 284.748 767.835 284.231 C770.947 283.682 772.342 284.843 772.664 286.88 L769.462 287.444 C769.319 286.748 768.783 286.446 767.799 286.619 C766.797 286.796 766.439 287.238 766.439 287.743 Z M780.355 281.229 L779.335 281.409 C778.333 281.585 778.137 281.873 778.137 283.1 L778.137 283.262 L780.337 282.874 L780.337 285.726 L778.137 286.113 L778.119 293.118 L774.989 293.67 L774.989 286.669 L773.343 286.959 L773.343 284.107 L774.989 283.817 L774.989 283.222 C774.989 280.551 776.133 279.303 778.852 278.823 L780.355 278.558 L780.355 281.229 Z M785.344 279.158 C785.344 280.349 784.718 280.893 783.395 281.126 C781.964 281.378 781.445 281.073 781.445 279.846 C781.445 278.619 782.089 278.09 783.395 277.86 C784.683 277.633 785.344 277.931 785.344 279.158 Z M793.589 290.39 L791.944 290.681 C788.814 291.232 788.045 290.231 788.045 286.965 L788.045 283.807 L786.292 284.116 L786.292 281.391 C786.685 281.322 786.954 281.238 787.311 281.103 C787.973 280.896 788.224 280.563 788.331 279.66 C788.385 279.218 788.42 278.652 788.438 278.216 L791.121 277.743 L791.121 280.359 L793.589 279.924 L793.589 282.829 L791.121 283.265 L791.121 285.773 C791.121 287.577 791.389 287.729 792.928 287.457 L793.589 287.341 L793.589 290.39 Z M797.828 282.208 C797.828 282.858 798.704 282.812 800.243 282.739 C802.031 282.658 804.178 282.731 804.178 285.167 C804.178 287.26 802.604 289.09 799.384 289.657 C796.29 290.203 794.609 289.128 794.269 286.77 L797.631 286.177 C797.846 287.023 798.49 287.307 799.545 287.121 C800.565 286.941 801.012 286.519 801.012 285.942 C801.012 285.22 799.885 285.328 798.597 285.393 C796.809 285.474 794.698 285.449 794.698 282.959 C794.698 280.92 796.29 279.213 799.223 278.696 C802.335 278.147 803.731 279.309 804.052 281.345 L800.851 281.91 C800.708 281.213 800.171 280.911 799.187 281.084 C798.186 281.261 797.828 281.703 797.828 282.208 Z M809.436 285.882 C809.436 287.38 808.881 287.911 807.468 288.16 C805.966 288.425 805.519 288.125 805.519 286.573 C805.519 285.039 806.073 284.562 807.468 284.316 C808.863 284.07 809.436 284.348 809.436 285.882 Z M817.502 274.679 L816.483 274.859 C815.481 275.035 815.284 275.323 815.284 276.55 L815.284 276.712 L817.484 276.324 L817.484 279.175 L815.284 279.563 L815.267 286.568 L812.136 287.12 L812.136 280.118 L810.491 280.409 L810.491 277.557 L812.136 277.267 L812.136 276.672 C812.136 274.001 813.281 272.752 816 272.273 L817.502 272.008 L817.502 274.679 Z M822.492 272.608 C822.492 273.799 821.866 274.343 820.543 274.576 C819.112 274.828 818.593 274.523 818.593 273.296 C818.593 272.068 819.237 271.54 820.543 271.31 C821.83 271.083 822.492 271.381 822.492 272.608 Z M736.23 296.3 L736.23 295.668 C735.926 295.956 735.461 296.165 734.835 296.401 C733.941 296.721 733.601 296.872 733.279 297.145 C732.993 297.412 732.85 297.69 732.85 298.051 C732.85 298.664 733.261 298.899 734.048 298.76 C735.354 298.529 736.23 297.328 736.23 296.3 Z" fill="#002a53" fill-rule="nonzero"/>
    <path d="M801.542 317.016 C801.996 316.936 802.374 316.796 802.675 316.597 C802.977 316.398 803.203 316.148 803.356 315.848 C803.508 315.548 803.584 315.211 803.584 314.837 C803.584 314.426 803.471 314.101 803.246 313.863 C803.021 313.625 802.716 313.504 802.332 313.499 C802.6 313.373 802.815 313.166 802.977 312.877 C803.138 312.588 803.219 312.277 803.219 311.944 C803.219 311.423 803.05 311.061 802.714 310.86 C802.377 310.659 801.93 310.607 801.373 310.705 L799.555 311.026 L799.555 317.366 L801.542 317.016 Z M800.345 314.25 L801.506 314.045 C801.901 313.975 802.214 314.013 802.442 314.158 C802.671 314.303 802.785 314.561 802.785 314.931 C802.785 315.239 802.727 315.489 802.611 315.682 C802.495 315.876 802.341 316.024 802.147 316.127 C801.954 316.23 801.742 316.302 801.51 316.343 L800.345 316.548 L800.345 314.25 Z M800.345 311.555 L801.346 311.379 C801.69 311.318 801.956 311.354 802.145 311.485 C802.334 311.617 802.428 311.844 802.428 312.168 C802.428 312.491 802.335 312.765 802.147 312.99 C801.96 313.214 801.693 313.357 801.346 313.419 L800.345 313.595 L800.345 311.555 Z M807.274 316.005 L807.274 313.466 L809.179 309.329 L808.316 309.481 L806.877 312.806 L805.433 309.989 L804.57 310.142 L806.47 313.608 L806.47 316.147 L807.274 316.005 Z M817.108 314.271 L817.108 313.597 L814.335 314.086 L814.335 311.825 L816.889 311.375 L816.889 310.716 L814.335 311.166 L814.335 309.093 L817.108 308.604 L817.108 307.931 L813.545 308.559 L813.545 314.899 L817.108 314.271 Z M820.908 313.601 L820.908 307.939 L822.47 307.664 L822.47 306.985 L818.541 307.678 L818.541 308.356 L820.113 308.079 L820.113 313.741 L820.908 313.601 Z M827.791 312.387 L827.791 311.714 L825.018 312.203 L825.018 309.942 L827.572 309.491 L827.572 308.832 L825.018 309.282 L825.018 307.21 L827.791 306.721 L827.791 306.047 L824.228 306.675 L824.228 313.015 L827.791 312.387 Z M830.718 311.871 L830.718 308.616 L833.108 311.45 L834.053 311.283 L831.582 308.37 L833.87 304.975 L832.975 305.133 L830.718 308.583 L830.718 305.531 L829.928 305.67 L829.928 312.01 L830.718 311.871 Z M835.838 310.968 L836.391 309.062 L838.63 308.667 L839.159 310.383 L839.982 310.238 L837.931 304.259 L837.095 304.407 L835.021 311.112 L835.838 310.968 Z M837.51 305.129 L838.429 308.015 L836.592 308.339 L837.51 305.129 Z" fill="#002a53" fill-rule="nonzero"/>
    <path d="M931.103 149.006 C850.408 163.15 95.093 298.256 86.4568 299.745 C67.2307 302.875 49.6635 294.881 56.0059 284.555 C57.9285 281.425 67.6142 277.079 77.1081 282.749 C89.1153 289.921 83.1968 307.913 69.2355 316.589 C54.2065 325.929 28.4094 329.748 28.4094 329.748" fill="none" stroke="#002a53" stroke-width="8" stroke-linecap="round" stroke-linejoin="miter"/>
    <path d="M917.891 140.435 L931.103 149.006 L921.594 161.56" fill="none" stroke="#002a53" stroke-width="8" stroke-linecap="round" stroke-linejoin="miter"/>
    <path d="M140.361 351.603 L140.361 343.329 L119.043 347.088 L119.043 355.362 L125.069 354.299 L125.069 368.506 L134.214 366.893 L134.214 352.687 L140.361 351.603 Z M150.899 349.901 L150.899 349.838 L150.929 349.927 L152.443 354.624 L149.385 355.164 L150.899 349.901 Z M155.169 363.198 L164.435 361.565 L156.198 340.536 L145.751 342.378 L137.333 366.343 L146.599 364.709 L147.447 361.75 L154.321 360.538 L155.169 363.198 Z M174.609 359.77 L174.609 337.29 L165.404 338.913 L165.404 361.394 L174.609 359.77 Z M177.759 359.215 L189.114 357.213 C196.321 355.942 201.227 351.455 201.227 344.118 L201.227 343.556 C201.227 336.218 196.412 333.445 189.084 334.738 L177.759 336.735 L177.759 359.215 Z M188.569 342.509 C190.962 342.087 191.9 342.921 191.9 345.294 L191.9 345.575 C191.9 347.761 190.962 349.081 188.569 349.503 L186.752 349.824 L186.752 342.83 L188.569 342.509 Z M215.792 353.071 C223.453 351.72 228.299 347.213 228.299 339.407 L228.299 338.814 C228.299 331.476 223.272 328.147 215.944 329.439 C208.343 330.78 203.346 335.876 203.346 343.213 L203.346 343.807 C203.346 351.612 207.919 354.459 215.792 353.071 Z M215.823 344.979 C213.854 345.326 212.703 344.342 212.703 342.063 L212.703 341.657 C212.703 339.471 213.854 337.926 215.823 337.579 C217.761 337.237 218.911 338.346 218.911 340.562 L218.911 340.968 C218.911 343.248 217.761 344.637 215.823 344.979 Z M251.191 332.061 L251.191 323.786 L229.873 327.545 L229.873 335.82 L235.899 334.757 L235.899 348.963 L245.044 347.351 L245.044 333.144 L251.191 332.061 Z M274.235 342.766 C281.048 341.564 285.712 337.12 285.712 329.627 L285.712 328.721 C285.712 321.415 280.927 318.262 274.205 319.448 C267.512 320.628 262.789 325.551 262.789 332.794 L262.789 333.637 C262.789 341.318 267.21 344.005 274.235 342.766 Z M274.205 338.431 C269.935 339.184 267.573 337.321 267.573 332.7 L267.573 332.076 C267.573 327.205 269.935 324.509 274.235 323.751 C278.474 323.003 280.927 324.725 280.927 329.752 L280.927 330.377 C280.927 335.216 278.474 337.678 274.205 338.431 Z M300.368 337.596 L309.725 313.684 L304.758 314.56 L298.127 332.152 L291.828 316.84 L286.832 317.721 L295.644 338.429 L300.368 337.596 Z M322.231 324.905 L314.964 326.186 L318.537 316.876 L322.231 324.905 Z M325.986 333.079 L330.862 332.219 L320.99 311.698 L316.115 312.557 L306.424 336.528 L311.33 335.663 L313.359 330.403 L323.897 328.545 L325.986 333.079 Z M347.214 311.195 L347.214 307.074 L328.106 310.443 L328.106 314.564 L335.132 313.325 L335.132 331.466 L339.886 330.628 L339.886 312.487 L347.214 311.195 Z M377.344 305.882 L377.344 301.761 L358.236 305.13 L358.236 309.252 L365.261 308.013 L365.261 326.153 L370.016 325.315 L370.016 307.175 L377.344 305.882 Z M390.425 322.278 C397.239 321.077 401.902 316.633 401.902 309.139 L401.902 308.234 C401.902 300.928 397.118 297.775 390.395 298.96 C383.703 300.14 378.979 305.063 378.979 312.307 L378.979 313.15 C378.979 320.831 383.4 323.517 390.425 322.278 Z M390.395 317.944 C386.125 318.697 383.763 316.834 383.763 312.213 L383.763 311.588 C383.763 306.717 386.125 304.022 390.425 303.263 C394.665 302.516 397.118 304.238 397.118 309.265 L397.118 309.889 C397.118 314.729 394.665 317.191 390.395 317.944 Z M406.171 318.94 L415.468 317.301 C422.735 316.019 427.096 311.972 427.096 304.634 L427.096 303.791 C427.096 296.298 422.614 293.778 415.226 295.081 L406.171 296.678 L406.171 318.94 Z M415.014 299.24 C420.071 298.348 422.372 299.941 422.372 304.718 L422.372 305.249 C422.372 309.995 420.131 312.294 415.226 313.159 L410.744 313.95 L410.744 299.993 L415.014 299.24 Z M450.2 306.992 L435.786 309.534 L435.786 304.57 L447.505 302.503 L447.505 298.413 L435.786 300.479 L435.786 295.515 L449.625 293.075 L449.625 289.016 L431.335 292.241 L431.335 314.503 L450.2 311.176 L450.2 306.992 Z M471.518 307.417 L471.518 302.921 L458.739 305.175 L458.739 287.409 L454.076 288.231 L454.076 310.493 L471.518 307.417 Z M492.866 303.653 L492.866 299.157 L480.087 301.41 L480.087 283.644 L475.424 284.467 L475.424 306.729 L492.866 303.653 Z M501.466 302.137 L501.466 279.875 L496.802 280.697 L496.802 302.959 L501.466 302.137 Z M511.096 284.546 L511.429 285.112 L523.117 298.319 L527.508 297.545 L527.508 275.283 L523.087 276.062 L523.087 291.487 L523.117 291.731 L522.784 291.197 L511.217 278.155 L506.674 278.956 L506.674 301.218 L511.096 300.439 L511.096 284.546 Z M551.552 289.121 L537.138 291.663 L537.138 286.699 L548.857 284.632 L548.857 280.542 L537.138 282.608 L537.138 277.644 L550.977 275.204 L550.977 271.145 L532.686 274.37 L532.686 296.632 L551.552 293.305 L551.552 289.121 Z M559.849 275.95 L560.182 276.516 L571.871 289.723 L576.261 288.948 L576.261 266.686 L571.84 267.466 L571.84 282.89 L571.871 283.135 L571.537 282.6 L559.97 269.559 L555.428 270.36 L555.428 292.622 L559.849 291.842 L559.849 275.95 Z M604.423 283.983 L614.597 282.189 L606.997 269.884 L614.688 259.692 L604.029 261.572 L598.336 269.413 L598.336 262.575 L589.373 264.156 L589.373 286.637 L598.336 285.056 L598.336 279.186 L600.183 276.675 L604.423 283.983 Z M625.619 280.245 L625.619 257.765 L616.414 259.388 L616.414 281.868 L625.619 280.245 Z M647.876 276.321 L647.876 267.578 L638.216 269.282 L638.216 255.543 L628.769 257.209 L628.769 279.69 L647.876 276.321 Z M661.806 258.909 C663.562 258.599 664.228 259.044 664.228 260.293 C664.228 261.541 663.562 262.19 661.806 262.499 L658.989 262.996 L658.989 259.405 L661.806 258.909 Z M661.987 269.524 C669.618 268.178 673.101 264.598 673.101 258.666 C673.101 252.702 669.709 249.99 661.927 251.363 L650.359 253.402 L650.359 275.883 L658.989 274.361 L658.989 270.052 L661.987 269.524 Z M685.092 255.708 L685.092 255.646 L685.122 255.734 L686.637 260.432 L683.578 260.971 L685.092 255.708 Z M689.362 269.006 L698.628 267.372 L690.392 246.344 L679.944 248.186 L671.526 272.151 L680.792 270.517 L681.64 267.557 L688.514 266.345 L689.362 269.006 Z M708.803 265.578 L708.803 243.097 L699.597 244.72 L699.597 267.201 L708.803 265.578 Z M731.06 261.653 L731.06 252.911 L721.4 254.614 L721.4 240.876 L711.952 242.542 L711.952 265.023 L731.06 261.653 Z M744.596 259.829 C752.075 258.51 756.163 254.323 756.163 246.08 L756.163 234.746 L746.806 236.396 L746.806 247.668 C746.806 250.134 746.11 251.069 744.626 251.331 C743.142 251.592 742.415 250.877 742.415 248.442 L742.415 237.17 L733.058 238.82 L733.058 250.154 C733.058 258.241 736.147 261.318 744.596 259.829 Z M779.48 245.778 L767.67 247.86 L767.67 246.174 L778.753 244.22 L778.753 239.381 L767.67 241.335 L767.67 239.742 L779.237 237.703 L779.237 230.678 L759.07 234.234 L759.07 256.714 L779.48 253.116 L779.48 245.778 Z M802.917 234.776 L802.917 226.502 L781.599 230.261 L781.599 238.535 L787.625 237.473 L787.625 251.679 L796.77 250.067 L796.77 235.86 L802.917 234.776 Z M816.786 247.099 C824.266 245.781 828.354 241.594 828.354 233.351 L828.354 222.017 L818.997 223.667 L818.997 234.939 C818.997 237.405 818.3 238.34 816.816 238.601 C815.333 238.863 814.606 238.148 814.606 235.713 L814.606 224.441 L805.249 226.091 L805.249 237.425 C805.249 245.512 808.338 248.589 816.786 247.099 Z M835.803 243.59 C839.527 242.933 840.739 241.97 840.739 238.286 C840.739 234.508 839.406 234.025 835.803 234.66 C832.169 235.301 830.897 236.243 830.897 240.021 C830.897 243.799 831.866 244.284 835.803 243.59 Z" fill="#002a53" fill-rule="nonzero"/>
    <path d="M135.486 330.877 L146.236 328.981 L138.332 316.73 L146.357 306.479 L135.062 308.471 L129.066 316.46 L129.066 309.528 L119.618 311.194 L119.618 333.675 L129.066 332.009 L129.066 326.139 L131.004 323.58 L135.486 330.877 Z M158.712 313.293 L158.924 312.225 L159.136 313.249 L160.468 317.292 L157.349 317.842 L158.712 313.293 Z M163.315 325.97 L173.096 324.245 L164.617 303.259 L153.352 305.246 L144.631 329.264 L154.442 327.534 L155.32 324.569 L162.437 323.314 L163.315 325.97 Z M154.896 303.849 C157.501 303.39 158.349 302.491 158.349 299.931 C158.349 297.246 157.41 296.693 154.896 297.136 C152.383 297.58 151.505 298.453 151.505 301.138 C151.505 303.761 152.141 304.335 154.896 303.849 Z M162.8 302.456 C165.434 301.991 166.252 301.098 166.252 298.537 C166.252 295.852 165.344 295.294 162.8 295.743 C160.226 296.197 159.408 297.059 159.408 299.744 C159.408 302.367 160.075 302.936 162.8 302.456 Z M186.238 321.928 L186.238 313.154 L194.656 297.963 L184.603 299.735 L181.514 305.713 L178.456 300.819 L168.341 302.603 L176.548 314.894 L176.548 323.636 L186.238 321.928 Z M217.276 302.623 L217.276 293.974 L194.868 297.925 L194.868 306.574 L201.166 305.464 L201.166 319.295 L210.856 317.587 L210.856 303.755 L217.276 302.623 Z M228.208 301.039 L228.42 299.971 L228.632 300.995 L229.964 305.038 L226.845 305.588 L228.208 301.039 Z M232.811 313.716 L242.592 311.991 L234.113 291.005 L222.848 292.992 L214.127 317.01 L223.938 315.28 L224.816 312.315 L231.932 311.06 L232.811 313.716 Z M224.392 291.595 C226.997 291.136 227.844 290.237 227.844 287.677 C227.844 284.992 226.906 284.439 224.392 284.882 C221.879 285.326 221.001 286.199 221.001 288.884 C221.001 291.507 221.637 292.081 224.392 291.595 Z M232.296 290.202 C234.93 289.737 235.748 288.844 235.748 286.283 C235.748 283.598 234.839 283.04 232.296 283.489 C229.722 283.943 228.904 284.805 228.904 287.49 C228.904 290.113 229.57 290.682 232.296 290.202 Z M260.366 308.857 L269.148 307.308 L269.148 284.828 L260.033 286.435 L260.033 296.426 L252.463 287.77 L243.409 289.366 L243.409 311.847 L252.554 310.234 L252.554 299.775 L260.366 308.857 Z M289.255 303.763 L298.036 302.215 L298.036 279.734 L288.922 281.341 L288.922 291.333 L281.351 282.676 L272.297 284.273 L272.297 306.753 L281.442 305.141 L281.442 294.681 L289.255 303.763 Z M313.722 300.042 C321.928 298.595 326.955 293.931 326.955 285.938 C326.955 278.507 321.716 274.965 313.904 276.343 C305.819 277.769 300.489 283.173 300.489 290.604 C300.489 298.597 305.364 301.516 313.722 300.042 Z M313.722 291.581 C311.663 291.944 310.331 290.992 310.331 288.869 C310.331 286.839 311.663 285.262 313.722 284.899 C315.781 284.536 317.114 285.643 317.114 287.673 C317.114 289.796 315.781 291.218 313.722 291.581 Z M309.846 276.278 C312.45 275.819 313.298 274.92 313.298 272.36 C313.298 269.674 312.359 269.122 309.846 269.565 C307.333 270.008 306.454 270.881 306.454 273.566 C306.454 276.189 307.09 276.764 309.846 276.278 Z M317.75 274.884 C320.384 274.42 321.202 273.526 321.202 270.966 C321.202 268.281 320.293 267.723 317.75 268.171 C315.176 268.625 314.358 269.487 314.358 272.173 C314.358 274.795 315.024 275.365 317.75 274.884 Z M346.365 293.693 L355.147 292.145 L355.147 269.664 L346.032 271.271 L346.032 281.262 L338.462 272.606 L329.408 274.202 L329.408 296.683 L338.553 295.071 L338.553 284.611 L346.365 293.693 Z M382.006 287.408 L392.756 285.513 L384.853 273.262 L392.877 263.011 L381.582 265.003 L375.587 272.991 L375.587 266.06 L366.139 267.726 L366.139 290.206 L375.587 288.54 L375.587 282.671 L377.525 280.112 L382.006 287.408 Z M404.536 284.029 C412.742 282.582 417.769 277.918 417.769 269.925 C417.769 262.494 412.53 258.952 404.718 260.33 C396.632 261.756 391.303 267.16 391.303 274.591 C391.303 282.585 396.178 285.503 404.536 284.029 Z M404.536 275.568 C402.477 275.931 401.144 274.979 401.144 272.856 C401.144 270.827 402.477 269.249 404.536 268.886 C406.595 268.523 407.927 269.631 407.927 271.66 C407.927 273.783 406.595 275.205 404.536 275.568 Z M436.089 277.872 L446.839 275.977 L438.935 263.726 L446.96 253.475 L435.665 255.466 L429.669 263.455 L429.669 256.524 L420.221 258.19 L420.221 280.67 L429.669 279.004 L429.669 273.134 L431.607 270.576 L436.089 277.872 Z M470.155 264.309 L457.619 266.52 L457.619 264.865 L469.338 262.799 L469.338 258.303 L457.619 260.369 L457.619 258.839 L469.883 256.677 L469.883 249.433 L448.595 253.186 L448.595 275.667 L470.155 271.865 L470.155 264.309 Z M486.053 264.098 L486.689 263.986 L490.747 258.462 L490.747 268.235 L500.134 266.579 L500.134 244.099 L491.686 245.588 L486.568 253.11 L481.299 247.42 L472.76 248.926 L472.76 271.406 L482.177 269.746 L482.177 260.035 L486.053 264.098 Z M515.275 264.503 C523.239 263.099 527.539 258.75 527.539 250.226 L527.539 239.267 L517.697 241.002 L517.697 251.961 C517.697 254.365 516.88 255.384 515.335 255.656 C513.7 255.944 512.913 255.209 512.913 252.805 L512.913 241.845 L503.071 243.581 L503.071 254.54 C503.071 262.877 506.221 266.099 515.275 264.503 Z M542.679 259.733 C551.521 258.174 555.185 254.125 555.185 249.441 C555.185 244.539 551.703 243.405 545.314 244.063 C540.196 244.591 539.439 244.568 539.439 244.006 C539.439 243.538 539.923 243.015 541.589 242.722 C543.466 242.39 544.617 242.656 544.95 243.503 L554.943 241.741 C553.368 236.117 549.25 234.689 541.892 235.986 C534.382 237.311 529.84 241.203 529.84 246.417 C529.84 250.913 533.019 252.288 539.499 251.614 C544.738 251.096 545.647 251.092 545.647 251.779 C545.647 252.278 545.071 252.661 543.557 252.928 C541.983 253.206 540.257 253.166 539.954 252.158 L529.295 254.038 C530.052 259.025 533.262 261.394 542.679 259.733 Z M573.566 254.193 C579.471 253.152 582.741 249.36 582.741 242.647 L582.741 229.751 L577.896 230.606 L577.896 243.376 C577.896 247.591 576.594 249.226 573.566 249.76 C570.417 250.315 569.448 248.831 569.387 245.907 L569.387 245.532 L564.542 246.386 L564.542 246.792 C564.603 252.62 567.48 255.267 573.566 254.193 Z M599.972 240.139 L592.704 241.421 L596.277 232.111 L599.972 240.139 Z M603.727 248.313 L608.602 247.454 L598.73 226.932 L593.855 227.792 L584.165 251.762 L589.071 250.897 L591.099 245.638 L601.637 243.78 L603.727 248.313 Z M640.943 227.919 L640.943 219.27 L618.534 223.222 L618.534 231.87 L624.833 230.76 L624.833 244.592 L634.523 242.883 L634.523 229.051 L640.943 227.919 Z M658.99 238.569 L658.99 229.795 L667.408 214.604 L657.355 216.376 L654.266 222.354 L651.208 217.46 L641.094 219.244 L649.3 231.535 L649.3 240.277 L658.99 238.569 Z M678.704 235.686 C686.91 234.239 691.937 229.575 691.937 221.582 C691.937 214.15 686.698 210.609 678.885 211.987 C670.8 213.412 665.47 218.817 665.47 226.248 C665.47 234.241 670.346 237.16 678.704 235.686 Z M678.704 227.225 C676.644 227.588 675.312 226.636 675.312 224.513 C675.312 222.483 676.644 220.906 678.704 220.543 C680.763 220.18 682.095 221.287 682.095 223.317 C682.095 225.44 680.763 226.861 678.704 227.225 Z M674.827 211.922 C677.432 211.463 678.28 210.564 678.28 208.003 C678.28 205.318 677.341 204.766 674.827 205.209 C672.314 205.652 671.436 206.525 671.436 209.21 C671.436 211.833 672.072 212.408 674.827 211.922 Z M682.731 210.528 C685.365 210.064 686.183 209.17 686.183 206.61 C686.183 203.925 685.275 203.367 682.731 203.815 C680.157 204.269 679.339 205.131 679.339 207.817 C679.339 210.439 680.006 211.009 682.731 210.528 Z M715.949 220.969 L703.413 223.18 L703.413 221.525 L715.132 219.459 L715.132 214.963 L703.413 217.029 L703.413 215.499 L715.677 213.336 L715.677 206.093 L694.389 209.846 L694.389 232.327 L715.949 228.525 L715.949 220.969 Z M738.63 224.526 L738.63 215.44 L728.516 217.223 L728.516 203.829 L718.554 205.585 L718.554 228.066 L738.63 224.526 Z M753.438 208.427 L753.65 207.359 L753.862 208.383 L755.194 212.426 L752.075 212.976 L753.438 208.427 Z M758.041 221.103 L767.822 219.379 L759.343 198.393 L748.078 200.38 L739.357 224.398 L749.168 222.668 L750.046 219.703 L757.163 218.448 L758.041 221.103 Z M749.622 198.983 C752.227 198.524 753.074 197.625 753.074 195.065 C753.074 192.38 752.136 191.827 749.622 192.27 C747.109 192.713 746.231 193.586 746.231 196.272 C746.231 198.894 746.867 199.469 749.622 198.983 Z M757.526 197.59 C760.16 197.125 760.978 196.232 760.978 193.671 C760.978 190.986 760.07 190.428 757.526 190.877 C754.952 191.33 754.134 192.193 754.134 194.878 C754.134 197.501 754.801 198.07 757.526 197.59 Z M781.933 211.926 L782.569 211.814 L786.626 206.29 L786.626 216.063 L796.014 214.408 L796.014 191.927 L787.565 193.417 L782.447 200.939 L777.178 195.248 L768.639 196.754 L768.639 219.235 L778.057 217.574 L778.057 207.864 L781.933 211.926 Z M810.942 198.287 L811.154 197.219 L811.366 198.244 L812.698 202.286 L809.579 202.836 L810.942 198.287 Z M815.545 210.964 L825.326 209.239 L816.847 188.254 L805.582 190.24 L796.861 214.258 L806.672 212.528 L807.55 209.563 L814.667 208.309 L815.545 210.964 Z M807.126 188.844 C809.731 188.384 810.579 187.486 810.579 184.925 C810.579 182.24 809.64 181.688 807.126 182.131 C804.613 182.574 803.735 183.447 803.735 186.132 C803.735 188.755 804.371 189.33 807.126 188.844 Z M815.03 187.45 C817.664 186.986 818.482 186.092 818.482 183.532 C818.482 180.847 817.574 180.289 815.03 180.737 C812.456 181.191 811.638 182.053 811.638 184.738 C811.638 187.361 812.305 187.931 815.03 187.45 Z M842.98 190.671 L825.78 193.704 L825.78 202.509 L842.98 199.476 L842.98 190.671 Z" fill="#002a53" fill-rule="nonzero"/>
    <path d="M500.644 209.619 C516.387 206.843 523.179 199.439 523.179 186.389 L523.179 185.115 C523.256 175.314 518.78 172.125 507.358 170.637 C501.338 169.869 499.718 169.518 499.718 167.847 L499.718 167.131 C499.718 166.017 500.181 165.537 500.875 165.415 C501.801 165.251 502.419 165.699 502.419 167.132 L502.419 169.519 L522.561 165.967 L522.561 163.5 C522.716 151.776 515.153 147.062 500.875 149.579 C485.595 152.274 478.726 160.487 478.726 172.026 L478.726 172.662 C478.726 182.291 483.279 185.148 494.007 186.758 C500.875 187.855 502.419 188.06 502.419 189.97 L502.419 190.606 C502.419 191.72 501.956 192.2 501.03 192.363 C500.258 192.499 499.718 192.197 499.718 190.764 L499.718 188.218 L478.109 192.028 L478.109 194.017 C478.031 206.763 483.974 212.558 500.644 209.619 Z M550.954 200.669 C564.459 198.287 572.949 190.981 572.949 174.35 L572.949 138.383 L552.111 142.057 L552.111 177.627 C552.111 180.173 551.88 180.612 551.185 180.734 C550.414 180.87 550.182 180.513 550.182 177.967 L550.182 142.397 L529.268 146.085 L529.268 182.052 C529.268 198.126 535.905 203.322 550.954 200.669 Z M601.719 191.717 C615.224 189.336 623.714 182.03 623.714 165.399 L623.714 129.431 L602.876 133.106 L602.876 168.675 C602.876 171.222 602.645 171.66 601.95 171.783 C601.178 171.919 600.947 171.562 600.947 169.016 L600.947 133.446 L580.033 137.134 L580.033 173.101 C580.033 189.175 586.67 194.371 601.719 191.717 Z M650.361 167.225 L646.811 146.048 L655.378 181.142 L679.302 176.923 L679.302 119.63 L660.162 123.005 L660.162 135.736 L664.407 160.133 L655.378 123.848 L630.913 128.162 L630.913 185.456 L650.361 182.026 L650.361 167.225 Z M706.073 157.402 L702.523 136.225 L711.089 171.318 L735.013 167.1 L735.013 109.806 L715.874 113.181 L715.874 125.913 L720.119 150.31 L711.089 114.025 L686.625 118.339 L686.625 175.632 L706.073 172.203 L706.073 157.402 Z M762.919 135.84 L763.382 124.539 L763.922 135.663 L765.157 142.687 L761.607 143.313 L762.919 135.84 Z M768.398 161.213 L788.927 157.593 L776.038 102.572 L750.571 107.063 L737.837 166.602 L758.134 163.023 L758.906 158.67 L767.704 157.118 L768.398 161.213 Z M811.121 138.879 L807.571 117.702 L816.138 152.795 L840.062 148.577 L840.062 91.2834 L820.923 94.6582 L820.923 107.39 L825.167 131.787 L816.138 95.5019 L791.673 99.8156 L791.673 157.109 L811.121 153.68 L811.121 138.879 Z" fill="#002a53" fill-rule="nonzero"/>
    <path d="M512.914 108.22 L513.686 97.6594 L514.458 107.948 L515.693 112.982 L511.68 113.689 L512.914 108.22 Z M521.095 135.424 L551.656 130.035 L533.829 75.8852 L493.698 82.9613 L475.485 143.466 L505.969 138.091 L507.049 133.365 L520.015 131.079 L521.095 135.424 Z M585.736 108.191 L579.562 87.8739 L593.222 122.706 L626.87 116.773 L626.87 59.4795 L597.467 64.6641 L597.467 79.4649 L603.409 98.8677 L590.289 65.9297 L556.024 71.9716 L556.024 129.265 L585.736 124.026 L585.736 108.191 Z M691.303 73.7411 L691.303 48.1182 L633.499 58.3106 L633.499 83.9335 L645.616 81.7971 L645.616 113.468 L679.187 107.548 L679.187 75.8776 L691.303 73.7411 Z M727.459 70.3897 L728.231 59.8294 L729.003 70.1175 L730.238 75.1517 L726.225 75.8593 L727.459 70.3897 Z M735.64 97.594 L766.201 92.2052 L748.374 38.0551 L708.243 45.1313 L690.029 105.636 L720.514 100.261 L721.594 95.5349 L734.559 93.2488 L735.64 97.594 Z M806.2 56.5055 L806.972 45.9452 L807.744 56.2333 L808.979 61.2675 L804.965 61.9751 L806.2 56.5055 Z M814.381 83.7098 L844.942 78.3211 L827.115 24.171 L786.984 31.2471 L768.77 91.7522 L799.255 86.377 L800.335 81.6508 L813.3 79.3646 L814.381 83.7098 Z" fill="#002a53" fill-rule="nonzero"/>
    <path d="M171.868 224.565 L158.988 226.836 L165.259 195.151 L171.868 224.565 Z M180.85 264.918 L213.557 259.151 L181.528 138.987 L149.159 144.695 L117.638 276.064 L150.176 270.327 L153.226 255.111 L177.63 250.808 L180.85 264.918 Z M266.599 215.899 L271.852 214.973 L286.935 182.258 L286.935 246.212 L317.778 240.774 L317.778 114.963 L289.477 119.953 L268.971 167.602 L248.635 127.154 L220.334 132.145 L220.334 257.956 L251.177 252.517 L251.177 188.389 L266.599 215.899 Z M364.891 232.467 L364.891 134.334 L331.675 140.191 L331.675 238.324 L364.891 232.467 Z M415.222 225.864 C442.845 220.993 456.233 206.051 456.233 182.112 L456.233 174.423 C456.233 151.707 440.134 146.683 426.746 143.627 C416.916 141.166 408.443 139.865 408.443 133.399 L408.443 130.953 C408.443 126.06 410.307 123.111 415.391 122.214 C420.645 121.288 422.848 123.346 422.848 129.636 L422.848 136.8 L454.877 131.153 L454.877 122.765 C454.877 99.8747 440.811 90.8222 416.069 95.1849 C389.632 99.8465 375.566 114.733 375.566 137.624 L375.566 141.468 C375.566 163.485 390.988 168.279 404.376 171.51 C414.374 174.116 423.356 175.852 423.356 183.366 L423.356 188.084 C423.356 192.802 421.661 195.722 416.239 196.678 C409.968 197.783 408.104 194.792 408.104 189.2 L408.104 178.367 L374.38 184.313 L374.38 195.147 C374.38 219.96 384.717 231.242 415.222 225.864 Z" fill="#002a53" fill-rule="nonzero"/>
  </g>
  <g transform="translate(348.1424 96.9213)">
    <g id="rotating-star">
      <animateTransform attributeName="transform" type="rotate" from="0" to="360" dur="3s" repeatCount="indefinite"/>
      <path d="M55.2356 24.1214 L57.5514 7.03798 L42.5178 13.2697 L33.0709 .0182495 L25.982 15.733 L10.3063 14.0762 L15.3146 30.0685 L2.59264 40.9768 L16.7644 47.8786 L14.4486 64.962 L29.4821 58.7303 L38.929 71.9818 L46.018 56.267 L61.6937 57.9238 L56.6854 41.9315 L69.4074 31.0232 L55.2356 24.1214 Z" fill="#002a53" fill-rule="nonzero" transform="translate(-36 -36)"/>
    </g>
  </g>
</svg>
